Halibut-Condensed Thin.ufo
<glyph name="exclam" format="2">
	<advance width="210"/>
	<unicode hex="0021"/>
	<outline>
		<contour>
			<point x="120" y="700" type="line"/>
			<point x="105" y="145" type="line"/>
			<point x="85" y="145" type="line"/>
			<point x="70" y="700" type="line"/>
		</contour>
		<component base="dotaccentcomb" xOffset="14" yOffset="-520"/>
	</outline>
</glyph>
<glyph name="numbersign" format="2">
	<advance width="486"/>
	<unicode hex="0023"/>
	<outline>
		<contour>
			<point x="20" y="184" type="line"/>
			<point x="139" y="184" type="line"/>
			<point x="100" y="0" type="line"/>
			<point x="123" y="0" type="line"/>
			<point x="162" y="184" type="line"/>
			<point x="278" y="184" type="line"/>
			<point x="240" y="0" type="line"/>
			<point x="264" y="0" type="line"/>
			<point x="302" y="184" type="line"/>
			<point x="409" y="184" type="line"/>
			<point x="409" y="205" type="line"/>
			<point x="306" y="205" type="line"/>
			<point x="342" y="390" type="line"/>
			<point x="466" y="390" type="line"/>
			<point x="466" y="411" type="line"/>
			<point x="346" y="411" type="line"/>
			<point x="386" y="600" type="line"/>
			<point x="362" y="600" type="line"/>
			<point x="322" y="411" type="line"/>
			<point x="206" y="411" type="line"/>
			<point x="245" y="600" type="line"/>
			<point x="222" y="600" type="line"/>
			<point x="183" y="411" type="line"/>
			<point x="77" y="411" type="line"/>
			<point x="77" y="390" type="line"/>
			<point x="179" y="390" type="line"/>
			<point x="143" y="205" type="line"/>
			<point x="20" y="205" type="line"/>
		</contour>
		<contour>
			<point x="166" y="205" type="line"/>
			<point x="202" y="390" type="line"/>
			<point x="318" y="390" type="line"/>
			<point x="282" y="205" type="line"/>
		</contour>
	</outline>
</glyph>
<glyph name="dollar" format="2">
	<advance width="331"/>
	<unicode hex="0024"/>
	<outline>
		<contour>
			<point x="155" y="681" type="line"/>
			<point x="155" y="-81" type="line"/>
			<point x="185" y="-81" type="line"/>
			<point x="185" y="681" type="line"/>
		</contour>
		<contour>
			<point x="20" y="21" type="line"/>
			<point x="52" y="-3"/>
			<point x="112" y="-20"/>
			<point x="161" y="-20" type="curve" smooth="yes"/>
			<point x="253" y="-20"/>
			<point x="311" y="45"/>
			<point x="311" y="149" type="curve" smooth="yes"/>
			<point x="311" y="220"/>
			<point x="284" y="266"/>
			<point x="217" y="309" type="curve" smooth="yes"/>
			<point x="149" y="353" type="line" smooth="yes"/>
			<point x="102" y="384"/>
			<point x="81" y="428"/>
			<point x="82" y="493" type="curve" smooth="yes"/>
			<point x="83" y="557"/>
			<point x="112" y="592"/>
			<point x="163" y="592" type="curve" smooth="yes"/>
			<point x="177" y="592"/>
			<point x="197" y="589"/>
			<point x="219" y="583" type="curve"/>
			<point x="235" y="417" type="line"/>
			<point x="243" y="415" type="line"/>
			<point x="296" y="598" type="line"/>
			<point x="260" y="611"/>
			<point x="210" y="620"/>
			<point x="176" y="620" type="curve" smooth="yes"/>
			<point x="95" y="620"/>
			<point x="48" y="572"/>
			<point x="46" y="485" type="curve" smooth="yes"/>
			<point x="45" y="410"/>
			<point x="74" y="353"/>
			<point x="135" y="313" type="curve" smooth="yes"/>
			<point x="206" y="267" type="line" smooth="yes"/>
			<point x="259" y="232"/>
			<point x="279" y="197"/>
			<point x="279" y="134" type="curve" smooth="yes"/>
			<point x="278" y="50"/>
			<point x="242" y="8"/>
			<point x="172" y="8" type="curve" smooth="yes"/>
			<point x="145" y="8"/>
			<point x="122" y="14"/>
			<point x="96" y="28" type="curve"/>
			<point x="80" y="187" type="line"/>
			<point x="72" y="189" type="line"/>
		</contour>
	</outline>
</glyph>
<glyph name="percent" format="2">
	<advance width="543"/>
	<unicode hex="0025"/>
	<outline>
		<contour>
			<point x="410" y="-4" type="curve" smooth="yes"/>
			<point x="477" y="-4"/>
			<point x="513" y="47"/>
			<point x="513" y="131" type="curve" smooth="yes"/>
			<point x="513" y="212"/>
			<point x="475" y="263"/>
			<point x="410" y="263" type="curve" smooth="yes"/>
			<point x="345" y="263"/>
			<point x="306" y="212"/>
			<point x="306" y="131" type="curve" smooth="yes"/>
			<point x="306" y="47"/>
			<point x="345" y="-4"/>
		</contour>
		<contour>
			<point x="410" y="21" type="curve" smooth="yes"/>
			<point x="364" y="21"/>
			<point x="338" y="62"/>
			<point x="338" y="131" type="curve" smooth="yes"/>
			<point x="338" y="199"/>
			<point x="365" y="238"/>
			<point x="410" y="238" type="curve" smooth="yes"/>
			<point x="455" y="238"/>
			<point x="481" y="199"/>
			<point x="481" y="131" type="curve" smooth="yes"/>
			<point x="481" y="62"/>
			<point x="456" y="21"/>
		</contour>
		<contour>
			<point x="269" y="314" type="line"/>
			<point x="284" y="312" type="line"/>
			<point x="413" y="600" type="line"/>
			<point x="356" y="600" type="line"/>
		</contour>
		<contour>
			<point x="133" y="333" type="curve" smooth="yes"/>
			<point x="200" y="333"/>
			<point x="236" y="384"/>
			<point x="236" y="468" type="curve" smooth="yes"/>
			<point x="236" y="549"/>
			<point x="198" y="600"/>
			<point x="133" y="600" type="curve" smooth="yes"/>
			<point x="68" y="600"/>
			<point x="29" y="549"/>
			<point x="29" y="468" type="curve" smooth="yes"/>
			<point x="29" y="384"/>
			<point x="68" y="333"/>
		</contour>
		<contour>
			<point x="133" y="358" type="curve" smooth="yes"/>
			<point x="87" y="358"/>
			<point x="61" y="399"/>
			<point x="61" y="468" type="curve" smooth="yes"/>
			<point x="61" y="536"/>
			<point x="88" y="575"/>
			<point x="133" y="575" type="curve" smooth="yes"/>
			<point x="178" y="575"/>
			<point x="204" y="536"/>
			<point x="204" y="468" type="curve" smooth="yes"/>
			<point x="204" y="399"/>
			<point x="179" y="358"/>
		</contour>
		<contour>
			<point x="273" y="286" type="line"/>
			<point x="258" y="288" type="line"/>
			<point x="130" y="0" type="line"/>
			<point x="187" y="0" type="line"/>
		</contour>
	</outline>
</glyph>
<glyph name="ampersand" format="2">
  <advance width="457"/>
  <unicode hex="0026"/>
  <outline>
    <contour>
      <point x="10" y="168" type="curve" smooth="yes"/>
      <point x="10" y="60"/>
      <point x="95" y="-20"/>
      <point x="211" y="-20" type="curve" smooth="yes"/>
      <point x="378" y="-20"/>
      <point x="453" y="108"/>
      <point x="407" y="312" type="curve"/>
      <point x="487" y="331" type="line"/>
      <point x="485" y="339" type="line"/>
      <point x="211" y="343" type="line"/>
      <point x="250" y="169" type="line"/>
      <point x="258" y="171" type="line"/>
      <point x="287" y="313" type="line"/>
      <point x="404" y="321" type="line"/>
      <point x="367" y="332" type="line"/>
      <point x="422" y="130"/>
      <point x="367" y="10"/>
      <point x="219" y="10" type="curve" smooth="yes"/>
      <point x="124" y="10"/>
      <point x="46" y="85"/>
      <point x="46" y="176" type="curve" smooth="yes"/>
      <point x="46" y="251"/>
      <point x="98" y="314"/>
      <point x="160" y="312" type="curve"/>
      <point x="171" y="337" type="line"/>
      <point x="115" y="358"/>
      <point x="81" y="408"/>
      <point x="81" y="466" type="curve" smooth="yes"/>
      <point x="81" y="539"/>
      <point x="129" y="589"/>
      <point x="199" y="589" type="curve" smooth="yes"/>
      <point x="230" y="589"/>
      <point x="267" y="584"/>
      <point x="281" y="577" type="curve"/>
      <point x="298" y="415" type="line"/>
      <point x="306" y="413" type="line"/>
      <point x="357" y="589" type="line"/>
      <point x="326" y="606"/>
      <point x="257" y="620"/>
      <point x="204" y="620" type="curve" smooth="yes"/>
      <point x="109" y="620"/>
      <point x="45" y="556"/>
      <point x="45" y="462" type="curve" smooth="yes"/>
      <point x="45" y="393"/>
      <point x="83" y="344"/>
      <point x="154" y="324" type="curve"/>
      <point x="161" y="334" type="line"/>
      <point x="78" y="339"/>
      <point x="10" y="264"/>
    </contour>
  </outline>
</glyph>
<glyph name="quotesingle" format="2">
	<advance width="182"/>
	<unicode hex="0027"/>
	<outline>
		<contour>
			<point x="132" y="681" type="line"/>
			<point x="70" y="681" type="line"/>
			<point x="97" y="490" type="line"/>
			<point x="107" y="490" type="line"/>
		</contour>
	</outline>
</glyph>
<glyph name="parenleft" format="2">
  <advance width="323"/>
  <unicode hex="0028"/>
  <outline>
    <contour>
      <point x="235" y="690" type="line"/>
      <point x="154" y="595"/>
      <point x="109" y="453"/>
      <point x="109" y="291" type="curve" smooth="yes"/>
      <point x="109" y="135"/>
      <point x="152" y="-10"/>
      <point x="235" y="-108" type="curve"/>
      <point x="253" y="-95" type="line"/>
      <point x="175" y="23"/>
      <point x="142" y="144"/>
      <point x="142" y="291" type="curve" smooth="yes"/>
      <point x="142" y="438"/>
      <point x="175" y="559"/>
      <point x="253" y="677" type="curve"/>
    </contour>
  </outline>
</glyph>
<glyph name="asterisk" format="2">
	<advance width="195"/>
	<unicode hex="002A"/>
	<outline>
		<contour>
			<point x="79" y="680" type="line"/>
			<point x="94" y="560" type="line"/>
			<point x="7" y="603" type="line"/>
			<point x="-5" y="569" type="line"/>
			<point x="92" y="551" type="line"/>
			<point x="24" y="461" type="line"/>
			<point x="53" y="438" type="line"/>
			<point x="100" y="544" type="line"/>
			<point x="144" y="438" type="line"/>
			<point x="175" y="459" type="line"/>
			<point x="108" y="551" type="line"/>
			<point x="205" y="569" type="line"/>
			<point x="193" y="603" type="line"/>
			<point x="105" y="560" type="line"/>
			<point x="117" y="680" type="line"/>
		</contour>
	</outline>
</glyph>
<glyph name="plus" format="2">
	<advance width="445"/>
	<unicode hex="002B"/>
	<outline>
		<contour>
			<point x="69" y="267" type="line"/>
			<point x="209" y="268" type="line"/>
			<point x="209" y="127" type="line"/>
			<point x="236" y="127" type="line"/>
			<point x="236" y="267" type="line"/>
			<point x="375" y="266" type="line"/>
			<point x="375" y="292" type="line"/>
			<point x="236" y="292" type="line"/>
			<point x="236" y="433" type="line"/>
			<point x="210" y="433" type="line"/>
			<point x="210" y="292" type="line"/>
			<point x="69" y="292" type="line"/>
		</contour>
	</outline>
</glyph>
<glyph name="comma" format="2">
  <advance width="224"/>
  <unicode hex="002C"/>
  <outline>
    <contour>
      <point x="164" y="90" type="line"/>
      <point x="104" y="90" type="line"/>
      <point x="60" y="-97" type="line"/>
      <point x="71" y="-97" type="line"/>
    </contour>
  </outline>
</glyph>
<glyph name="hyphen" format="2">
	<advance width="420"/>
	<unicode hex="002D"/>
	<outline>
		<contour>
			<point x="90" y="249" type="line"/>
			<point x="90" y="235" type="line"/>
			<point x="330" y="222" type="line"/>
			<point x="330" y="262" type="line"/>
		</contour>
	</outline>
</glyph>
<glyph name="slash" format="2">
  <advance width="414"/>
  <unicode hex="002F"/>
  <outline>
    <contour>
      <point x="20" y="-84" type="line"/>
      <point x="45" y="-98" type="line"/>
      <point x="424" y="684" type="line"/>
      <point x="399" y="699" type="line"/>
    </contour>
  </outline>
</glyph>
<glyph name="zero" format="2">
	<advance width="412"/>
	<unicode hex="0030"/>
	<outline>
		<contour>
			<point x="206" y="-20" type="curve" smooth="yes"/>
			<point x="315" y="-20"/>
			<point x="372" y="93"/>
			<point x="372" y="311" type="curve" smooth="yes"/>
			<point x="372" y="525"/>
			<point x="323" y="620"/>
			<point x="213" y="620" type="curve" smooth="yes"/>
			<point x="98" y="620"/>
			<point x="40" y="514"/>
			<point x="40" y="301" type="curve" smooth="yes"/>
			<point x="40" y="91"/>
			<point x="97" y="-20"/>
		</contour>
		<contour>
			<point x="211" y="10" type="curve" smooth="yes"/>
			<point x="127" y="10"/>
			<point x="77" y="123"/>
			<point x="77" y="311" type="curve" smooth="yes"/>
			<point x="77" y="495"/>
			<point x="124" y="590"/>
			<point x="208" y="590" type="curve" smooth="yes"/>
			<point x="293" y="590"/>
			<point x="335" y="490"/>
			<point x="335" y="304" type="curve" smooth="yes"/>
			<point x="335" y="113"/>
			<point x="292" y="10"/>
		</contour>
	</outline>
</glyph>
<glyph name="one" format="2">
  <advance width="282"/>
  <unicode hex="0031"/>
  <outline>
    <contour>
      <point x="32" y="485" type="line"/>
      <point x="127" y="516" type="line"/>
      <point x="127" y="45" type="line"/>
      <point x="37" y="8" type="line"/>
      <point x="39" y="0" type="line"/>
      <point x="250" y="0" type="line"/>
      <point x="252" y="8" type="line"/>
      <point x="162" y="45" type="line"/>
      <point x="162" y="620" type="line"/>
      <point x="30" y="493" type="line"/>
    </contour>
  </outline>
</glyph>
<glyph name="two" format="2">
	<advance width="439"/>
	<unicode hex="0032"/>
	<outline>
		<contour>
			<point x="208" y="591" type="curve" smooth="yes"/>
			<point x="274" y="591"/>
			<point x="310" y="548"/>
			<point x="309" y="470" type="curve" smooth="yes"/>
			<point x="308" y="363"/>
			<point x="213" y="210"/>
			<point x="40" y="29" type="curve"/>
			<point x="58" y="0" type="line"/>
			<point x="369" y="0" type="line"/>
			<point x="348" y="196" type="line"/>
			<point x="340" y="194" type="line"/>
			<point x="303" y="32" type="line"/>
			<point x="52" y="26" type="line"/>
			<point x="62" y="16" type="line"/>
			<point x="235" y="174"/>
			<point x="347" y="350"/>
			<point x="346" y="477" type="curve" smooth="yes"/>
			<point x="345" y="569"/>
			<point x="295" y="620"/>
			<point x="207" y="620" type="curve" smooth="yes"/>
			<point x="163" y="620"/>
			<point x="114" y="608"/>
			<point x="81" y="598" type="curve"/>
			<point x="118" y="404" type="line"/>
			<point x="126" y="406" type="line"/>
			<point x="148" y="583" type="line"/>
			<point x="156" y="587"/>
			<point x="180" y="591"/>
		</contour>
	</outline>
</glyph>
<glyph name="three" format="2">
	<advance width="432"/>
	<unicode hex="0033"/>
	<outline>
		<contour>
			<point x="225" y="334" type="curve" smooth="yes"/>
			<point x="295" y="334"/>
			<point x="342" y="284"/>
			<point x="342" y="178" type="curve" smooth="yes"/>
			<point x="342" y="69"/>
			<point x="274" y="10"/>
			<point x="188" y="10" type="curve" smooth="yes"/>
			<point x="146" y="10"/>
			<point x="124" y="16"/>
			<point x="106" y="27" type="curve"/>
			<point x="91" y="173" type="line"/>
			<point x="83" y="175" type="line"/>
			<point x="40" y="2" type="line"/>
			<point x="89" y="-16"/>
			<point x="129" y="-20"/>
			<point x="181" y="-20" type="curve" smooth="yes"/>
			<point x="297" y="-20"/>
			<point x="382" y="56"/>
			<point x="382" y="195" type="curve" smooth="yes"/>
			<point x="382" y="292"/>
			<point x="339" y="364"/>
			<point x="229" y="364" type="curve" smooth="yes"/>
			<point x="198" y="364"/>
			<point x="166" y="353"/>
			<point x="133" y="326" type="curve"/>
			<point x="136" y="312" type="line"/>
			<point x="351" y="584" type="line"/>
			<point x="336" y="600" type="line"/>
			<point x="35" y="612" type="line"/>
			<point x="74" y="431" type="line"/>
			<point x="82" y="433" type="line"/>
			<point x="102" y="575" type="line"/>
			<point x="330" y="580" type="line"/>
			<point x="313" y="590" type="line"/>
			<point x="101" y="316" type="line"/>
			<point x="131" y="290" type="line"/>
			<point x="157" y="319"/>
			<point x="186" y="334"/>
		</contour>
	</outline>
</glyph>
<glyph name="four" format="2">
  <advance width="465"/>
  <unicode hex="0034"/>
  <outline>
    <contour>
      <point x="395" y="163" type="line"/>
      <point x="395" y="192" type="line"/>
      <point x="40" y="192" type="line"/>
      <point x="56" y="174" type="line"/>
      <point x="293" y="597" type="line"/>
      <point x="270" y="597" type="line"/>
      <point x="270" y="45" type="line"/>
      <point x="135" y="8" type="line"/>
      <point x="137" y="0" type="line"/>
      <point x="413" y="0" type="line"/>
      <point x="415" y="8" type="line"/>
      <point x="305" y="45" type="line"/>
      <point x="305" y="557" type="line"/>
      <point x="415" y="592" type="line"/>
      <point x="413" y="600" type="line"/>
      <point x="255" y="600" type="line"/>
      <point x="20" y="183" type="line"/>
      <point x="47" y="163" type="line"/>
    </contour>
  </outline>
</glyph>
<glyph name="five" format="2">
	<advance width="452"/>
	<unicode hex="0035"/>
	<outline>
		<contour>
			<point x="402" y="195" type="curve" smooth="yes"/>
			<point x="402" y="292"/>
			<point x="349" y="364"/>
			<point x="239" y="364" type="curve" smooth="yes"/>
			<point x="190" y="364"/>
			<point x="146" y="347"/>
			<point x="109" y="314" type="curve"/>
			<point x="130" y="318" type="line"/>
			<point x="152" y="592" type="line"/>
			<point x="133" y="581" type="line"/>
			<point x="301" y="575" type="line"/>
			<point x="321" y="423" type="line"/>
			<point x="329" y="421" type="line"/>
			<point x="368" y="612" type="line"/>
			<point x="116" y="600" type="line"/>
			<point x="93" y="307" type="line"/>
			<point x="109" y="293" type="line"/>
			<point x="151" y="324"/>
			<point x="186" y="334"/>
			<point x="235" y="334" type="curve" smooth="yes"/>
			<point x="305" y="334"/>
			<point x="362" y="284"/>
			<point x="362" y="178" type="curve" smooth="yes"/>
			<point x="362" y="69"/>
			<point x="304" y="10"/>
			<point x="218" y="10" type="curve" smooth="yes"/>
			<point x="181" y="10"/>
			<point x="147" y="16"/>
			<point x="126" y="29" type="curve"/>
			<point x="111" y="175" type="line"/>
			<point x="103" y="177" type="line"/>
			<point x="60" y="4" type="line"/>
			<point x="98" y="-10"/>
			<point x="147" y="-20"/>
			<point x="211" y="-20" type="curve" smooth="yes"/>
			<point x="327" y="-20"/>
			<point x="402" y="56"/>
		</contour>
	</outline>
</glyph>
<glyph name="six" format="2">
  <advance width="456"/>
  <unicode hex="0036"/>
  <outline>
    <contour>
      <point x="97" y="283" type="curve"/>
      <point x="102" y="242" type="line"/>
      <point x="137" y="308"/>
      <point x="185" y="344"/>
      <point x="239" y="344" type="curve" smooth="yes"/>
      <point x="308" y="344"/>
      <point x="349" y="284"/>
      <point x="349" y="181" type="curve" smooth="yes"/>
      <point x="349" y="75"/>
      <point x="306" y="10"/>
      <point x="235" y="10" type="curve" smooth="yes"/>
      <point x="150" y="10"/>
      <point x="110" y="102"/>
      <point x="110" y="299" type="curve" smooth="yes"/>
      <point x="110" y="497"/>
      <point x="148" y="590"/>
      <point x="229" y="590" type="curve" smooth="yes"/>
      <point x="252" y="590"/>
      <point x="286" y="583"/>
      <point x="297" y="576" type="curve"/>
      <point x="313" y="436" type="line"/>
      <point x="321" y="434" type="line"/>
      <point x="365" y="588" type="line"/>
      <point x="339" y="606"/>
      <point x="285" y="620"/>
      <point x="243" y="620" type="curve" smooth="yes"/>
      <point x="127" y="620"/>
      <point x="70" y="512"/>
      <point x="70" y="290" type="curve" smooth="yes"/>
      <point x="70" y="77"/>
      <point x="119" y="-20"/>
      <point x="226" y="-20" type="curve" smooth="yes"/>
      <point x="326" y="-20"/>
      <point x="386" y="60"/>
      <point x="386" y="193" type="curve" smooth="yes"/>
      <point x="386" y="312"/>
      <point x="339" y="375"/>
      <point x="252" y="374" type="curve" smooth="yes"/>
      <point x="192" y="374"/>
      <point x="141" y="344"/>
    </contour>
  </outline>
</glyph>
<glyph name="seven" format="2">
  <advance width="404"/>
  <unicode hex="0037"/>
  <outline>
    <contour>
      <point x="35" y="612" type="line"/>
      <point x="75" y="418" type="line"/>
      <point x="83" y="420" type="line"/>
      <point x="102" y="575" type="line"/>
      <point x="320" y="579" type="line"/>
      <point x="306" y="588" type="line"/>
      <point x="144" y="45" type="line"/>
      <point x="24" y="8" type="line"/>
      <point x="26" y="0" type="line"/>
      <point x="301" y="0" type="line"/>
      <point x="303" y="8" type="line"/>
      <point x="183" y="45" type="line"/>
      <point x="345" y="581" type="line"/>
      <point x="336" y="600" type="line"/>
    </contour>
  </outline>
</glyph>
<glyph name="eight" format="2">
	<advance width="412"/>
	<unicode hex="0038"/>
	<outline>
		<contour>
			<point x="167" y="323" type="curve" smooth="yes"/>
			<point x="237" y="279" type="line" smooth="yes"/>
			<point x="294" y="243"/>
			<point x="325" y="194"/>
			<point x="325" y="138" type="curve" smooth="yes"/>
			<point x="325" y="61"/>
			<point x="279" y="10"/>
			<point x="209" y="10" type="curve" smooth="yes"/>
			<point x="134" y="10"/>
			<point x="87" y="59"/>
			<point x="87" y="136" type="curve" smooth="yes"/>
			<point x="87" y="219"/>
			<point x="140" y="289"/>
			<point x="226" y="320" type="curve"/>
			<point x="209" y="336" type="line"/>
			<point x="113" y="315"/>
			<point x="50" y="233"/>
			<point x="50" y="128" type="curve" smooth="yes"/>
			<point x="50" y="38"/>
			<point x="111" y="-20"/>
			<point x="205" y="-20" type="curve" smooth="yes"/>
			<point x="299" y="-20"/>
			<point x="362" y="48"/>
			<point x="362" y="148" type="curve" smooth="yes"/>
			<point x="362" y="216"/>
			<point x="332" y="267"/>
			<point x="269" y="307" type="curve" smooth="yes"/>
			<point x="199" y="351" type="line" smooth="yes"/>
			<point x="137" y="390"/>
			<point x="103" y="440"/>
			<point x="103" y="491" type="curve" smooth="yes"/>
			<point x="103" y="548"/>
			<point x="146" y="590"/>
			<point x="206" y="590" type="curve" smooth="yes"/>
			<point x="265" y="590"/>
			<point x="304" y="549"/>
			<point x="304" y="485" type="curve" smooth="yes"/>
			<point x="304" y="420"/>
			<point x="262" y="372"/>
			<point x="193" y="337" type="curve"/>
			<point x="210" y="311" type="line"/>
			<point x="291" y="350"/>
			<point x="341" y="412"/>
			<point x="341" y="495" type="curve" smooth="yes"/>
			<point x="341" y="573"/>
			<point x="292" y="620"/>
			<point x="212" y="620" type="curve" smooth="yes"/>
			<point x="126" y="620"/>
			<point x="66" y="562"/>
			<point x="66" y="480" type="curve" smooth="yes"/>
			<point x="66" y="418"/>
			<point x="101" y="365"/>
		</contour>
	</outline>
</glyph>
<glyph name="nine" format="2">
	<advance width="460"/>
	<unicode hex="0039"/>
	<outline>
		<contour>
			<point x="363" y="316" type="curve"/>
			<point x="358" y="360" type="line"/>
			<point x="322" y="292"/>
			<point x="275" y="255"/>
			<point x="221" y="255" type="curve" smooth="yes"/>
			<point x="152" y="255"/>
			<point x="111" y="316"/>
			<point x="111" y="418" type="curve" smooth="yes"/>
			<point x="111" y="523"/>
			<point x="155" y="589"/>
			<point x="225" y="589" type="curve" smooth="yes"/>
			<point x="305" y="589"/>
			<point x="350" y="482"/>
			<point x="350" y="290" type="curve" smooth="yes"/>
			<point x="350" y="102"/>
			<point x="304" y="9"/>
			<point x="211" y="9" type="curve" smooth="yes"/>
			<point x="185" y="9"/>
			<point x="148" y="16"/>
			<point x="138" y="23" type="curve"/>
			<point x="122" y="163" type="line"/>
			<point x="114" y="165" type="line"/>
			<point x="70" y="11" type="line"/>
			<point x="96" y="-7"/>
			<point x="152" y="-21"/>
			<point x="197" y="-21" type="curve" smooth="yes"/>
			<point x="327" y="-21"/>
			<point x="390" y="83"/>
			<point x="390" y="299" type="curve" smooth="yes"/>
			<point x="390" y="514"/>
			<point x="339" y="619"/>
			<point x="234" y="619" type="curve" smooth="yes"/>
			<point x="137" y="619"/>
			<point x="74" y="536"/>
			<point x="74" y="406" type="curve" smooth="yes"/>
			<point x="74" y="288"/>
			<point x="122" y="224"/>
			<point x="208" y="225" type="curve" smooth="yes"/>
			<point x="267" y="225"/>
			<point x="320" y="256"/>
		</contour>
	</outline>
</glyph>
<glyph name="equal" format="2">
	<advance width="463"/>
	<unicode hex="003D"/>
	<outline>
		<contour>
			<point x="69" y="366" type="line"/>
			<point x="69" y="341" type="line"/>
			<point x="394" y="341" type="line"/>
			<point x="394" y="366" type="line"/>
		</contour>
		<contour>
			<point x="69" y="221" type="line"/>
			<point x="69" y="196" type="line"/>
			<point x="394" y="196" type="line"/>
			<point x="394" y="221" type="line"/>
		</contour>
	</outline>
</glyph>
<glyph name="greater" format="2">
  <advance width="453"/>
  <unicode hex="003E"/>
  <outline>
    <contour>
      <point x="69" y="145" type="line"/>
      <point x="384" y="284" type="line"/>
      <point x="384" y="305" type="line"/>
      <point x="69" y="445" type="line"/>
      <point x="69" y="416" type="line"/>
      <point x="364" y="286" type="line"/>
      <point x="364" y="303" type="line"/>
      <point x="69" y="174" type="line"/>
    </contour>
  </outline>
</glyph>
<glyph name="question" format="2">
  <advance width="386"/>
  <unicode hex="003F"/>
  <outline>
    <contour>
      <point x="188" y="681" type="curve" smooth="yes"/>
      <point x="254" y="681"/>
      <point x="290" y="638"/>
      <point x="289" y="560" type="curve" smooth="yes"/>
      <point x="288" y="463"/>
      <point x="272" y="381"/>
      <point x="100" y="170" type="curve"/>
      <point x="118" y="141" type="line"/>
      <point x="265" y="143" type="line"/>
      <point x="267" y="151" type="line"/>
      <point x="126" y="188" type="line"/>
      <point x="122" y="157" type="line"/>
      <point x="294" y="345"/>
      <point x="327" y="450"/>
      <point x="326" y="567" type="curve" smooth="yes"/>
      <point x="325" y="659"/>
      <point x="275" y="710"/>
      <point x="187" y="710" type="curve" smooth="yes"/>
      <point x="143" y="710"/>
      <point x="94" y="698"/>
      <point x="61" y="688" type="curve"/>
      <point x="98" y="504" type="line"/>
      <point x="106" y="506" type="line"/>
      <point x="128" y="673" type="line"/>
      <point x="136" y="677"/>
      <point x="160" y="681"/>
    </contour>
    <component base="dotaccentcomb" xOffset="95" yOffset="-520" identifier="A674E353"/>
  </outline>
</glyph>
<glyph name="at" format="2">
  <advance width="665"/>
  <unicode hex="0040"/>
  <outline>
    <contour>
      <point x="81" y="183" type="curve" smooth="yes"/>
      <point x="81" y="36"/>
      <point x="191" y="-74"/>
      <point x="333" y="-67" type="curve" smooth="yes"/>
      <point x="415" y="-63"/>
      <point x="471" y="-35"/>
      <point x="520" y="28" type="curve"/>
      <point x="506" y="38" type="line"/>
      <point x="457" y="-17"/>
      <point x="412" y="-37"/>
      <point x="335" y="-41" type="curve" smooth="yes"/>
      <point x="206" y="-48"/>
      <point x="111" y="51"/>
      <point x="111" y="193" type="curve" smooth="yes"/>
      <point x="111" y="346"/>
      <point x="208" y="454"/>
      <point x="346" y="454" type="curve" smooth="yes"/>
      <point x="469" y="454"/>
      <point x="546" y="368"/>
      <point x="546" y="245" type="curve" smooth="yes"/>
      <point x="546" y="173"/>
      <point x="519" y="118"/>
      <point x="457" y="118" type="curve" smooth="yes"/>
      <point x="415" y="118"/>
      <point x="399" y="137"/>
      <point x="402" y="185" type="curve" smooth="yes"/>
      <point x="411" y="354" type="line"/>
      <point x="383" y="347" type="line"/>
      <point x="382" y="329" type="line"/>
      <point x="372" y="347"/>
      <point x="353" y="354"/>
      <point x="337" y="354" type="curve" smooth="yes"/>
      <point x="278" y="354"/>
      <point x="229" y="297"/>
      <point x="229" y="197" type="curve" smooth="yes"/>
      <point x="229" y="129"/>
      <point x="255" y="91"/>
      <point x="303" y="91" type="curve" smooth="yes"/>
      <point x="340" y="91"/>
      <point x="374" y="123"/>
      <point x="397" y="181" type="curve"/>
      <point x="377" y="182" type="line"/>
      <point x="371" y="123"/>
      <point x="396" y="93"/>
      <point x="449" y="93" type="curve" smooth="yes"/>
      <point x="531" y="93"/>
      <point x="575" y="163"/>
      <point x="575" y="257" type="curve" smooth="yes"/>
      <point x="575" y="384"/>
      <point x="485" y="480"/>
      <point x="351" y="480" type="curve" smooth="yes"/>
      <point x="197" y="480"/>
      <point x="81" y="353"/>
    </contour>
    <contour>
      <point x="259" y="206" type="curve" smooth="yes"/>
      <point x="259" y="283"/>
      <point x="296" y="331"/>
      <point x="330" y="331" type="curve" smooth="yes"/>
      <point x="354" y="331"/>
      <point x="373" y="321"/>
      <point x="381" y="304" type="curve"/>
      <point x="374" y="180" type="line"/>
      <point x="362" y="140"/>
      <point x="338" y="117"/>
      <point x="309" y="117" type="curve" smooth="yes"/>
      <point x="277" y="117"/>
      <point x="259" y="150"/>
    </contour>
  </outline>
</glyph>
<glyph name="A" format="2">
  <advance width="492"/>
  <unicode hex="0041"/>
  <anchor x="246" y="0" name="bottom"/>
  <anchor x="407" y="10" name="ogonek"/>
  <anchor x="242" y="600" name="top"/>
  <outline>
    <contour>
      <point x="372" y="194" type="line"/>
      <point x="372" y="224" type="line"/>
      <point x="119" y="224" type="line"/>
      <point x="119" y="194" type="line"/>
    </contour>
    <contour>
      <point x="237" y="572" type="line"/>
      <point x="407" y="45" type="line"/>
      <point x="287" y="8" type="line"/>
      <point x="289" y="0" type="line"/>
      <point x="510" y="0" type="line"/>
      <point x="512" y="8" type="line"/>
      <point x="442" y="45" type="line"/>
      <point x="260" y="600" type="line"/>
      <point x="116" y="600" type="line"/>
      <point x="114" y="592" type="line"/>
      <point x="223" y="555" type="line"/>
      <point x="50" y="45" type="line"/>
      <point x="-20" y="8" type="line"/>
      <point x="-18" y="0" type="line"/>
      <point x="204" y="0" type="line"/>
      <point x="206" y="8" type="line"/>
      <point x="86" y="45" type="line"/>
      <point x="259" y="572" type="line"/>
    </contour>
  </outline>
</glyph>
<glyph name="B" format="2">
  <advance width="510"/>
  <unicode hex="0042"/>
  <anchor x="357" y="0" name="bottom"/>
  <anchor x="357" y="300" name="center"/>
  <anchor x="318" y="600" name="top"/>
  <outline>
    <contour>
      <point x="20" y="3" type="line"/>
      <point x="22" y="0" type="line"/>
      <point x="306" y="1" type="line" smooth="yes"/>
      <point x="403" y="1"/>
      <point x="480" y="78"/>
      <point x="480" y="175" type="curve" smooth="yes"/>
      <point x="480" y="257"/>
      <point x="423" y="319"/>
      <point x="343" y="323" type="curve"/>
      <point x="337" y="313" type="line"/>
      <point x="392" y="320"/>
      <point x="434" y="383"/>
      <point x="434" y="459" type="curve" smooth="yes"/>
      <point x="434" y="543"/>
      <point x="379" y="600"/>
      <point x="297" y="600" type="curve" smooth="yes"/>
      <point x="22" y="600" type="line"/>
      <point x="20" y="597" type="line"/>
      <point x="130" y="555" type="line"/>
      <point x="130" y="46" type="line"/>
    </contour>
    <contour>
      <point x="165" y="35" type="line"/>
      <point x="165" y="301" type="line"/>
      <point x="286" y="301" type="line" smooth="yes"/>
      <point x="379" y="301"/>
      <point x="445" y="248"/>
      <point x="445" y="170" type="curve" smooth="yes"/>
      <point x="445" y="91"/>
      <point x="380" y="30"/>
      <point x="297" y="32" type="curve" smooth="yes"/>
    </contour>
    <contour>
      <point x="165" y="331" type="line"/>
      <point x="165" y="569" type="line"/>
      <point x="286" y="573" type="line" smooth="yes"/>
      <point x="351" y="575"/>
      <point x="400" y="531"/>
      <point x="400" y="455" type="curve" smooth="yes"/>
      <point x="400" y="383"/>
      <point x="356" y="331"/>
      <point x="297" y="331" type="curve" smooth="yes"/>
    </contour>
  </outline>
</glyph>
<glyph name="C" format="2">
  <advance width="480"/>
  <unicode hex="0043"/>
  <anchor x="272" y="0" name="bottom"/>
  <anchor x="230" y="600" name="top"/>
  <outline>
    <contour>
      <point x="254" y="589" type="curve" smooth="yes"/>
      <point x="283" y="589"/>
      <point x="317" y="584"/>
      <point x="334" y="577" type="curve"/>
      <point x="351" y="413" type="line"/>
      <point x="359" y="411" type="line"/>
      <point x="410" y="589" type="line"/>
      <point x="375" y="607"/>
      <point x="312" y="620"/>
      <point x="261" y="620" type="curve" smooth="yes"/>
      <point x="118" y="620"/>
      <point x="45" y="510"/>
      <point x="45" y="294" type="curve" smooth="yes"/>
      <point x="45" y="85"/>
      <point x="113" y="-20"/>
      <point x="249" y="-20" type="curve" smooth="yes"/>
      <point x="320" y="-20"/>
      <point x="373" y="9"/>
      <point x="430" y="78" type="curve"/>
      <point x="414" y="90" type="line"/>
      <point x="366" y="35"/>
      <point x="314" y="8"/>
      <point x="255" y="8" type="curve" smooth="yes"/>
      <point x="141" y="8"/>
      <point x="84" y="106"/>
      <point x="84" y="300" type="curve" smooth="yes"/>
      <point x="84" y="495"/>
      <point x="139" y="589"/>
    </contour>
  </outline>
</glyph>
<glyph name="D" format="2">
  <advance width="521"/>
  <unicode hex="0044"/>
  <anchor x="258" y="0" name="bottom"/>
  <anchor x="258" y="300" name="center"/>
  <anchor x="260" y="600" name="top"/>
  <outline>
    <contour>
      <point x="22" y="0" type="line"/>
      <point x="249" y="1" type="line" smooth="yes"/>
      <point x="395" y="2"/>
      <point x="476" y="109"/>
      <point x="476" y="300" type="curve" smooth="yes"/>
      <point x="476" y="491"/>
      <point x="394" y="600"/>
      <point x="250" y="600" type="curve" smooth="yes"/>
      <point x="22" y="600" type="line"/>
      <point x="20" y="591" type="line"/>
      <point x="130" y="555" type="line"/>
      <point x="130" y="45" type="line"/>
      <point x="20" y="8" type="line"/>
    </contour>
    <contour>
      <point x="165" y="35" type="line"/>
      <point x="165" y="571" type="line"/>
      <point x="242" y="571" type="line" smooth="yes"/>
      <point x="366" y="571"/>
      <point x="440" y="468"/>
      <point x="440" y="287" type="curve" smooth="yes"/>
      <point x="440" y="113"/>
      <point x="370" y="24"/>
      <point x="240" y="31" type="curve" smooth="yes"/>
    </contour>
  </outline>
</glyph>
<glyph name="E" format="2">
  <advance width="512"/>
  <unicode hex="0045"/>
  <anchor x="291" y="0" name="bottom"/>
  <anchor x="382" y="10" name="ogonek"/>
  <anchor x="258" y="600" name="top"/>
  <anchor x="31" y="600" name="topleft"/>
  <outline>
    <contour>
      <point x="20" y="8" type="line"/>
      <point x="22" y="0" type="line"/>
      <point x="452" y="0" type="line"/>
      <point x="431" y="198" type="line"/>
      <point x="423" y="196" type="line"/>
      <point x="386" y="30" type="line"/>
      <point x="165" y="25" type="line"/>
      <point x="165" y="279" type="line"/>
      <point x="274" y="279" type="line"/>
      <point x="334" y="156" type="line"/>
      <point x="342" y="158" type="line"/>
      <point x="323" y="292" type="line"/>
      <point x="340" y="429" type="line"/>
      <point x="332" y="433" type="line"/>
      <point x="274" y="309" type="line"/>
      <point x="165" y="309" type="line"/>
      <point x="165" y="579" type="line"/>
      <point x="382" y="575" type="line"/>
      <point x="402" y="423" type="line"/>
      <point x="410" y="421" type="line"/>
      <point x="449" y="612" type="line"/>
      <point x="22" y="600" type="line"/>
      <point x="20" y="592" type="line"/>
      <point x="130" y="555" type="line"/>
      <point x="130" y="45" type="line"/>
    </contour>
  </outline>
</glyph>
<glyph name="F" format="2">
	<advance width="446"/>
	<unicode hex="0046"/>
	<anchor x="238" y="0" name="bottom"/>
	<anchor x="250" y="600" name="top"/>
	<outline>
		<contour>
			<point x="22" y="600" type="line"/>
			<point x="20" y="592" type="line"/>
			<point x="130" y="555" type="line"/>
			<point x="130" y="45" type="line"/>
			<point x="20" y="8" type="line"/>
			<point x="22" y="0" type="line"/>
			<point x="323" y="0" type="line"/>
			<point x="325" y="8" type="line"/>
			<point x="165" y="45" type="line"/>
			<point x="165" y="269" type="line"/>
			<point x="260" y="269" type="line"/>
			<point x="320" y="146" type="line"/>
			<point x="328" y="148" type="line"/>
			<point x="309" y="282" type="line"/>
			<point x="326" y="421" type="line"/>
			<point x="318" y="423" type="line"/>
			<point x="260" y="299" type="line"/>
			<point x="164" y="299" type="line"/>
			<point x="164" y="579" type="line"/>
			<point x="369" y="575" type="line"/>
			<point x="389" y="423" type="line"/>
			<point x="397" y="421" type="line"/>
			<point x="436" y="612" type="line"/>
		</contour>
	</outline>
</glyph>
<glyph name="G" format="2">
	<advance width="499"/>
	<unicode hex="0047"/>
	<anchor x="290" y="0" name="bottom"/>
	<anchor x="269" y="600" name="top"/>
	<outline>
		<contour>
			<point x="375" y="224" type="line"/>
			<point x="405" y="-16" type="line"/>
			<point x="417" y="-18" type="line"/>
			<point x="436" y="269" type="line"/>
			<point x="236" y="269" type="line"/>
			<point x="238" y="261" type="line"/>
		</contour>
		<contour>
			<point x="254" y="587" type="curve" smooth="yes"/>
			<point x="283" y="587"/>
			<point x="329" y="582"/>
			<point x="344" y="575" type="curve"/>
			<point x="361" y="413" type="line"/>
			<point x="369" y="411" type="line"/>
			<point x="420" y="589" type="line"/>
			<point x="386" y="607"/>
			<point x="313" y="620"/>
			<point x="261" y="620" type="curve" smooth="yes"/>
			<point x="120" y="620"/>
			<point x="45" y="507"/>
			<point x="45" y="294" type="curve" smooth="yes"/>
			<point x="45" y="92"/>
			<point x="128" y="-20"/>
			<point x="259" y="-20" type="curve" smooth="yes"/>
			<point x="326" y="-20"/>
			<point x="374" y="10"/>
			<point x="422" y="68" type="curve"/>
			<point x="414" y="92" type="line"/>
			<point x="367" y="38"/>
			<point x="323" y="10"/>
			<point x="265" y="10" type="curve" smooth="yes"/>
			<point x="155" y="10"/>
			<point x="84" y="114"/>
			<point x="84" y="300" type="curve" smooth="yes"/>
			<point x="84" y="494"/>
			<point x="139" y="587"/>
		</contour>
	</outline>
</glyph>
<glyph name="H" format="2">
	<advance width="622"/>
	<unicode hex="0048"/>
	<anchor x="313" y="471" name="bar"/>
	<anchor x="317" y="0" name="bottom"/>
	<anchor x="307" y="300" name="center"/>
	<anchor x="307" y="600" name="top"/>
	<anchor x="-86" y="600" name="topleft"/>
	<outline>
		<contour>
			<point x="165" y="45" type="line"/>
			<point x="165" y="555" type="line"/>
			<point x="275" y="592" type="line"/>
			<point x="273" y="600" type="line"/>
			<point x="22" y="600" type="line"/>
			<point x="20" y="592" type="line"/>
			<point x="130" y="555" type="line"/>
			<point x="130" y="45" type="line"/>
			<point x="20" y="8" type="line"/>
			<point x="22" y="0" type="line"/>
			<point x="273" y="0" type="line"/>
			<point x="275" y="8" type="line"/>
		</contour>
		<contour>
			<point x="475" y="286" type="line"/>
			<point x="475" y="316" type="line"/>
			<point x="143" y="316" type="line"/>
			<point x="143" y="286" type="line"/>
		</contour>
		<contour>
			<point x="458" y="555" type="line"/>
			<point x="458" y="45" type="line"/>
			<point x="348" y="8" type="line"/>
			<point x="350" y="0" type="line"/>
			<point x="600" y="0" type="line"/>
			<point x="602" y="8" type="line"/>
			<point x="492" y="45" type="line"/>
			<point x="492" y="555" type="line"/>
			<point x="602" y="592" type="line"/>
			<point x="600" y="600" type="line"/>
			<point x="350" y="600" type="line"/>
			<point x="348" y="592" type="line"/>
		</contour>
	</outline>
</glyph>
<glyph name="I" format="2">
  <advance width="306"/>
  <unicode hex="0049"/>
  <anchor x="164" y="0" name="ogonek"/>
  <anchor x="154" y="600" name="top"/>
  <anchor x="-45" y="600" name="topleft"/>
  <outline>
    <contour>
      <point x="20" y="8" type="line"/>
      <point x="22" y="0" type="line"/>
      <point x="279" y="0" type="line"/>
      <point x="281" y="8" type="line"/>
      <point x="171" y="45" type="line"/>
      <point x="171" y="555" type="line"/>
      <point x="286" y="592" type="line"/>
      <point x="284" y="600" type="line"/>
      <point x="28" y="600" type="line"/>
      <point x="26" y="592" type="line"/>
      <point x="136" y="555" type="line"/>
      <point x="136" y="45" type="line"/>
    </contour>
  </outline>
</glyph>
<glyph name="J" format="2">
	<advance width="407"/>
	<unicode hex="004A"/>
	<anchor x="183" y="2" name="bottom"/>
	<anchor x="193" y="600" name="top"/>
	<outline>
		<contour>
			<point x="25" y="53" type="curve"/>
			<point x="41" y="69" type="line"/>
			<point x="81" y="29"/>
			<point x="131" y="5"/>
			<point x="189" y="5" type="curve" smooth="yes"/>
			<point x="251" y="5"/>
			<point x="272" y="51"/>
			<point x="272" y="135" type="curve" smooth="yes"/>
			<point x="272" y="600" type="line"/>
			<point x="287" y="577" type="line"/>
			<point x="156" y="573" type="line"/>
			<point x="136" y="421" type="line"/>
			<point x="128" y="419" type="line"/>
			<point x="89" y="612" type="line"/>
			<point x="307" y="600" type="line"/>
			<point x="307" y="170" type="line" smooth="yes"/>
			<point x="307" y="29"/>
			<point x="277" y="-20"/>
			<point x="180" y="-20" type="curve" smooth="yes"/>
			<point x="128" y="-20"/>
			<point x="60" y="9"/>
		</contour>
	</outline>
</glyph>
<glyph name="K" format="2">
	<advance width="604"/>
	<unicode hex="004B"/>
	<anchor x="313" y="0" name="bottom"/>
	<anchor x="293" y="600" name="top"/>
	<outline>
		<contour>
			<point x="277" y="361" type="line"/>
			<point x="261" y="328" type="line"/>
			<point x="426" y="45" type="line"/>
			<point x="327" y="8" type="line"/>
			<point x="329" y="0" type="line"/>
			<point x="590" y="0" type="line"/>
			<point x="592" y="8" type="line"/>
			<point x="468" y="45" type="line"/>
		</contour>
		<contour>
			<point x="156" y="203" type="line"/>
			<point x="156" y="147" type="line"/>
			<point x="438" y="555" type="line"/>
			<point x="539" y="592" type="line"/>
			<point x="537" y="600" type="line"/>
			<point x="302" y="600" type="line"/>
			<point x="300" y="592" type="line"/>
			<point x="399" y="555" type="line"/>
		</contour>
		<contour>
			<point x="171" y="45" type="line"/>
			<point x="171" y="555" type="line"/>
			<point x="251" y="592" type="line"/>
			<point x="249" y="600" type="line"/>
			<point x="28" y="600" type="line"/>
			<point x="26" y="592" type="line"/>
			<point x="136" y="555" type="line"/>
			<point x="136" y="45" type="line"/>
			<point x="20" y="8" type="line"/>
			<point x="22" y="0" type="line"/>
			<point x="279" y="0" type="line"/>
			<point x="281" y="8" type="line"/>
		</contour>
	</outline>
</glyph>
<glyph name="L" format="2">
  <advance width="461"/>
  <unicode hex="004C"/>
  <anchor x="241" y="0" name="bottom"/>
  <anchor x="401" y="300" name="center"/>
  <anchor x="151" y="600" name="top"/>
  <anchor x="341" y="600" name="topright"/>
  <outline>
    <contour>
      <point x="20" y="8" type="line"/>
      <point x="22" y="0" type="line"/>
      <point x="411" y="0" type="line"/>
      <point x="390" y="195" type="line"/>
      <point x="382" y="193" type="line"/>
      <point x="345" y="32" type="line"/>
      <point x="165" y="26" type="line"/>
      <point x="165" y="555" type="line"/>
      <point x="282" y="592" type="line"/>
      <point x="280" y="600" type="line"/>
      <point x="22" y="600" type="line"/>
      <point x="20" y="592" type="line"/>
      <point x="130" y="555" type="line"/>
      <point x="130" y="45" type="line"/>
    </contour>
  </outline>
</glyph>
<glyph name="M" format="2">
  <advance width="741"/>
  <unicode hex="004D"/>
  <anchor x="371" y="0" name="bottom"/>
  <anchor x="341" y="600" name="top"/>
  <outline>
    <contour>
      <point x="15" y="8" type="line"/>
      <point x="17" y="0" type="line"/>
      <point x="263" y="0" type="line"/>
      <point x="265" y="8" type="line"/>
      <point x="155" y="45" type="line"/>
      <point x="221" y="546" type="line"/>
      <point x="216" y="545" type="line"/>
      <point x="354" y="0" type="line"/>
      <point x="373" y="0" type="line"/>
      <point x="523" y="594" type="line"/>
      <point x="499" y="586" type="line"/>
      <point x="581" y="45" type="line"/>
      <point x="467" y="8" type="line"/>
      <point x="469" y="0" type="line"/>
      <point x="722" y="0" type="line"/>
      <point x="724" y="8" type="line"/>
      <point x="614" y="45" type="line"/>
      <point x="537" y="557" type="line"/>
      <point x="672" y="592" type="line"/>
      <point x="670" y="600" type="line"/>
      <point x="494" y="600" type="line"/>
      <point x="360" y="62" type="line"/>
      <point x="375" y="45" type="line"/>
      <point x="240" y="600" type="line"/>
      <point x="88" y="600" type="line"/>
      <point x="86" y="592" type="line"/>
      <point x="193" y="554" type="line"/>
      <point x="125" y="45" type="line"/>
    </contour>
  </outline>
</glyph>
<glyph name="N" format="2">
	<advance width="577"/>
	<unicode hex="004E"/>
	<anchor x="282" y="0" name="bottom"/>
	<anchor x="282" y="600" name="top"/>
	<outline>
		<contour>
			<point x="420" y="-2" type="line"/>
			<point x="447" y="0" type="line"/>
			<point x="447" y="555" type="line"/>
			<point x="557" y="592" type="line"/>
			<point x="555" y="600" type="line"/>
			<point x="309" y="600" type="line"/>
			<point x="307" y="592" type="line"/>
			<point x="417" y="555" type="line"/>
			<point x="417" y="42" type="line"/>
			<point x="431" y="61" type="line"/>
			<point x="173" y="600" type="line"/>
			<point x="22" y="600" type="line"/>
			<point x="20" y="592" type="line"/>
			<point x="130" y="555" type="line"/>
			<point x="131" y="45" type="line"/>
			<point x="21" y="8" type="line"/>
			<point x="23" y="0" type="line"/>
			<point x="269" y="0" type="line"/>
			<point x="271" y="8" type="line"/>
			<point x="161" y="45" type="line"/>
			<point x="161" y="583" type="line"/>
			<point x="149" y="569" type="line"/>
		</contour>
	</outline>
</glyph>
<glyph name="O" format="2">
  <advance width="500"/>
  <unicode hex="004F"/>
  <anchor x="250" y="0" name="bottom"/>
  <anchor x="250" y="300" name="center"/>
  <anchor x="332" y="10" name="ogonek"/>
  <anchor x="250" y="600" name="top"/>
  <anchor x="-4" y="600" name="topleft"/>
  <anchor x="409" y="600" name="topright"/>
  <outline>
    <contour>
      <point x="250" y="-20" type="curve" smooth="yes"/>
      <point x="382" y="-20"/>
      <point x="455" y="94"/>
      <point x="455" y="298" type="curve" smooth="yes"/>
      <point x="455" y="505"/>
      <point x="384" y="620"/>
      <point x="255" y="620" type="curve" smooth="yes"/>
      <point x="120" y="620"/>
      <point x="45" y="507"/>
      <point x="45" y="303" type="curve" smooth="yes"/>
      <point x="45" y="95"/>
      <point x="118" y="-20"/>
    </contour>
    <contour>
      <point x="257" y="12" type="curve" smooth="yes"/>
      <point x="145" y="12"/>
      <point x="82" y="121"/>
      <point x="82" y="316" type="curve" smooth="yes"/>
      <point x="82" y="491"/>
      <point x="142" y="588"/>
      <point x="250" y="588" type="curve" smooth="yes"/>
      <point x="358" y="588"/>
      <point x="418" y="481"/>
      <point x="418" y="287" type="curve" smooth="yes"/>
      <point x="418" y="110"/>
      <point x="361" y="12"/>
    </contour>
  </outline>
</glyph>
<glyph name="P" format="2">
  <advance width="467"/>
  <unicode hex="0050"/>
  <anchor x="248" y="0" name="bottom"/>
  <anchor x="248" y="600" name="top"/>
  <outline>
    <contour>
      <point x="20" y="8" type="line"/>
      <point x="22" y="0" type="line"/>
      <point x="304" y="0" type="line"/>
      <point x="306" y="8" type="line"/>
      <point x="165" y="47" type="line"/>
      <point x="165" y="257" type="line"/>
      <point x="259" y="258" type="line" smooth="yes"/>
      <point x="357" y="259"/>
      <point x="427" y="329"/>
      <point x="427" y="426" type="curve" smooth="yes"/>
      <point x="427" y="523"/>
      <point x="358" y="600"/>
      <point x="270" y="600" type="curve" smooth="yes"/>
      <point x="22" y="600" type="line"/>
      <point x="20" y="592" type="line"/>
      <point x="130" y="555" type="line"/>
      <point x="130" y="45" type="line"/>
    </contour>
    <contour>
      <point x="165" y="288" type="line"/>
      <point x="165" y="571" type="line"/>
      <point x="258" y="575" type="line" smooth="yes"/>
      <point x="333" y="578"/>
      <point x="392" y="504"/>
      <point x="392" y="418" type="curve" smooth="yes"/>
      <point x="392" y="341"/>
      <point x="342" y="283"/>
      <point x="268" y="285" type="curve" smooth="yes"/>
    </contour>
  </outline>
</glyph>
<glyph name="Q" format="2">
  <advance width="500"/>
  <unicode hex="0051"/>
  <anchor x="269" y="0" name="bottom"/>
  <anchor x="250" y="300" name="center"/>
  <anchor x="332" y="10" name="ogonek"/>
  <anchor x="269" y="600" name="top"/>
  <anchor x="-4" y="600" name="topleft"/>
  <anchor x="409" y="600" name="topright"/>
  <outline>
    <contour>
      <point x="205" y="207" type="curve" smooth="yes"/>
      <point x="263" y="207"/>
      <point x="306" y="149"/>
      <point x="306" y="70" type="curve" smooth="yes"/>
      <point x="306" y="-7"/>
      <point x="266" y="-80"/>
      <point x="162" y="-189" type="curve"/>
      <point x="176" y="-204" type="line"/>
      <point x="286" y="-104"/>
      <point x="341" y="-6"/>
      <point x="341" y="92" type="curve" smooth="yes"/>
      <point x="341" y="182"/>
      <point x="292" y="241"/>
      <point x="217" y="241" type="curve" smooth="yes"/>
      <point x="165" y="241"/>
      <point x="118" y="213"/>
      <point x="74" y="155" type="curve"/>
      <point x="87" y="150" type="line"/>
      <point x="128" y="187"/>
      <point x="169" y="207"/>
    </contour>
    <contour>
      <point x="250" y="-20" type="curve" smooth="yes"/>
      <point x="382" y="-20"/>
      <point x="455" y="94"/>
      <point x="455" y="298" type="curve" smooth="yes"/>
      <point x="455" y="505"/>
      <point x="384" y="620"/>
      <point x="255" y="620" type="curve" smooth="yes"/>
      <point x="120" y="620"/>
      <point x="45" y="507"/>
      <point x="45" y="303" type="curve" smooth="yes"/>
      <point x="45" y="95"/>
      <point x="118" y="-20"/>
    </contour>
    <contour>
      <point x="257" y="11" type="curve" smooth="yes"/>
      <point x="145" y="11"/>
      <point x="79" y="121"/>
      <point x="79" y="316" type="curve" smooth="yes"/>
      <point x="79" y="491"/>
      <point x="142" y="588"/>
      <point x="250" y="588" type="curve" smooth="yes"/>
      <point x="358" y="588"/>
      <point x="421" y="481"/>
      <point x="421" y="287" type="curve" smooth="yes"/>
      <point x="421" y="110"/>
      <point x="361" y="11"/>
    </contour>
  </outline>
</glyph>
<glyph name="R" format="2">
	<advance width="506"/>
	<unicode hex="0052"/>
	<anchor x="268" y="0" name="bottom"/>
	<anchor x="253" y="600" name="top"/>
	<outline>
		<contour>
			<point x="165" y="263" type="line"/>
			<point x="282" y="264" type="line" smooth="yes"/>
			<point x="344" y="265"/>
			<point x="437" y="322"/>
			<point x="437" y="431" type="curve" smooth="yes"/>
			<point x="437" y="528"/>
			<point x="368" y="600"/>
			<point x="280" y="600" type="curve" smooth="yes"/>
			<point x="22" y="600" type="line"/>
			<point x="20" y="592" type="line"/>
			<point x="130" y="555" type="line"/>
			<point x="130" y="45" type="line"/>
			<point x="20" y="8" type="line"/>
			<point x="22" y="0" type="line"/>
			<point x="243" y="0" type="line"/>
			<point x="245" y="8" type="line"/>
			<point x="165" y="47" type="line"/>
		</contour>
		<contour>
			<point x="165" y="294" type="line"/>
			<point x="165" y="571" type="line"/>
			<point x="268" y="575" type="line" smooth="yes"/>
			<point x="343" y="578"/>
			<point x="402" y="509"/>
			<point x="402" y="423" type="curve" smooth="yes"/>
			<point x="402" y="336"/>
			<point x="332" y="289"/>
			<point x="272" y="291" type="curve" smooth="yes"/>
		</contour>
		<contour>
			<point x="285" y="288" type="line"/>
			<point x="254" y="275" type="line"/>
			<point x="350" y="45" type="line"/>
			<point x="280" y="8" type="line"/>
			<point x="282" y="0" type="line"/>
			<point x="494" y="0" type="line"/>
			<point x="496" y="8" type="line"/>
			<point x="386" y="45" type="line"/>
		</contour>
	</outline>
</glyph>
<glyph name="S" format="2">
  <advance width="379"/>
  <unicode hex="0053"/>
  <anchor x="204" y="0" name="bottom"/>
  <anchor x="180" y="600" name="top"/>
  <outline>
    <contour>
      <point x="20" y="21" type="line"/>
      <point x="56" y="-3"/>
      <point x="124" y="-20"/>
      <point x="183" y="-20" type="curve" smooth="yes"/>
      <point x="292" y="-20"/>
      <point x="359" y="34"/>
      <point x="359" y="138" type="curve" smooth="yes"/>
      <point x="359" y="207"/>
      <point x="321" y="261"/>
      <point x="245" y="307" type="curve" smooth="yes"/>
      <point x="170" y="352" type="line" smooth="yes"/>
      <point x="111" y="388"/>
      <point x="85" y="428"/>
      <point x="86" y="483" type="curve" smooth="yes"/>
      <point x="87" y="551"/>
      <point x="126" y="593"/>
      <point x="186" y="593" type="curve" smooth="yes"/>
      <point x="202" y="593"/>
      <point x="227" y="589"/>
      <point x="245" y="584" type="curve"/>
      <point x="263" y="417" type="line"/>
      <point x="272" y="415" type="line"/>
      <point x="330" y="599" type="line"/>
      <point x="292" y="611"/>
      <point x="239" y="620"/>
      <point x="201" y="620" type="curve" smooth="yes"/>
      <point x="109" y="620"/>
      <point x="51" y="565"/>
      <point x="49" y="476" type="curve" smooth="yes"/>
      <point x="48" y="408"/>
      <point x="80" y="363"/>
      <point x="157" y="315" type="curve" smooth="yes"/>
      <point x="234" y="267" type="line" smooth="yes"/>
      <point x="294" y="230"/>
      <point x="324" y="184"/>
      <point x="324" y="124" type="curve" smooth="yes"/>
      <point x="324" y="49"/>
      <point x="278" y="7"/>
      <point x="195" y="7" type="curve" smooth="yes"/>
      <point x="161" y="7"/>
      <point x="129" y="14"/>
      <point x="104" y="27" type="curve"/>
      <point x="86" y="186" type="line"/>
      <point x="77" y="188" type="line"/>
    </contour>
  </outline>
</glyph>
<glyph name="T" format="2">
  <advance width="482"/>
  <unicode hex="0054"/>
  <anchor x="234" y="0" name="bottom"/>
  <anchor x="238" y="300" name="center"/>
  <anchor x="241" y="600" name="top"/>
  <outline>
    <contour>
      <point x="35" y="612" type="line"/>
      <point x="74" y="421" type="line"/>
      <point x="82" y="423" type="line"/>
      <point x="102" y="575" type="line"/>
      <point x="223" y="578" type="line"/>
      <point x="223" y="45" type="line"/>
      <point x="113" y="8" type="line"/>
      <point x="115" y="0" type="line"/>
      <point x="366" y="0" type="line"/>
      <point x="368" y="8" type="line"/>
      <point x="258" y="45" type="line"/>
      <point x="258" y="578" type="line"/>
      <point x="380" y="575" type="line"/>
      <point x="400" y="423" type="line"/>
      <point x="408" y="421" type="line"/>
      <point x="447" y="612" type="line"/>
      <point x="241" y="600" type="line"/>
    </contour>
  </outline>
</glyph>
<glyph name="U" format="2">
  <advance width="522"/>
  <unicode hex="0055"/>
  <anchor x="254" y="0" name="bottom"/>
  <anchor x="330" y="10" name="ogonek"/>
  <anchor x="254" y="600" name="top"/>
  <anchor x="572" y="600" name="topright"/>
  <outline>
    <contour>
      <point x="91" y="190" type="line" smooth="yes"/>
      <point x="91" y="49"/>
      <point x="151" y="-20"/>
      <point x="260" y="-20" type="curve" smooth="yes"/>
      <point x="375" y="-20"/>
      <point x="438" y="53"/>
      <point x="436" y="202" type="curve" smooth="yes"/>
      <point x="432" y="555" type="line"/>
      <point x="512" y="592" type="line"/>
      <point x="510" y="600" type="line"/>
      <point x="289" y="600" type="line"/>
      <point x="287" y="592" type="line"/>
      <point x="397" y="555" type="line"/>
      <point x="402" y="195" type="line" smooth="yes"/>
      <point x="404" y="74"/>
      <point x="353" y="10"/>
      <point x="270" y="10" type="curve" smooth="yes"/>
      <point x="177" y="10"/>
      <point x="126" y="74"/>
      <point x="126" y="197" type="curve" smooth="yes"/>
      <point x="127" y="555" type="line"/>
      <point x="237" y="592" type="line"/>
      <point x="235" y="600" type="line"/>
      <point x="12" y="600" type="line"/>
      <point x="10" y="592" type="line"/>
      <point x="90" y="555" type="line"/>
    </contour>
  </outline>
</glyph>
<glyph name="V" format="2">
	<advance width="483"/>
	<unicode hex="0056"/>
	<anchor x="238" y="0" name="bottom"/>
	<anchor x="238" y="600" name="top"/>
	<outline>
		<contour>
			<point x="-17" y="592" type="line"/>
			<point x="59" y="555" type="line"/>
			<point x="223" y="0" type="line"/>
			<point x="251" y="0" type="line"/>
			<point x="414" y="555" type="line"/>
			<point x="494" y="592" type="line"/>
			<point x="492" y="600" type="line"/>
			<point x="273" y="600" type="line"/>
			<point x="271" y="592" type="line"/>
			<point x="381" y="555" type="line"/>
			<point x="229" y="32" type="line"/>
			<point x="247" y="41" type="line"/>
			<point x="97" y="555" type="line"/>
			<point x="207" y="592" type="line"/>
			<point x="205" y="600" type="line"/>
			<point x="-15" y="600" type="line"/>
		</contour>
	</outline>
</glyph>
<glyph name="W" format="2">
  <advance width="612"/>
  <unicode hex="0057"/>
  <anchor x="298" y="0" name="bottom"/>
  <anchor x="298" y="600" name="top"/>
  <outline>
    <contour>
      <point x="-40" y="592" type="line"/>
      <point x="40" y="555" type="line"/>
      <point x="163" y="0" type="line"/>
      <point x="193" y="0" type="line"/>
      <point x="311" y="585" type="line"/>
      <point x="291" y="574" type="line"/>
      <point x="417" y="0" type="line"/>
      <point x="454" y="0" type="line"/>
      <point x="562" y="555" type="line"/>
      <point x="642" y="592" type="line"/>
      <point x="640" y="600" type="line"/>
      <point x="419" y="600" type="line"/>
      <point x="417" y="592" type="line"/>
      <point x="527" y="555" type="line"/>
      <point x="428" y="11" type="line"/>
      <point x="445" y="22" type="line"/>
      <point x="320" y="600" type="line"/>
      <point x="277" y="579" type="line"/>
      <point x="172" y="42" type="line"/>
      <point x="185" y="31" type="line"/>
      <point x="76" y="555" type="line"/>
      <point x="186" y="592" type="line"/>
      <point x="183" y="600" type="line"/>
      <point x="-38" y="600" type="line"/>
    </contour>
  </outline>
</glyph>
<glyph name="X" format="2">
  <advance width="549"/>
  <unicode hex="0058"/>
  <anchor x="276" y="0" name="bottom"/>
  <anchor x="274" y="600" name="top"/>
  <outline>
    <contour>
      <point x="271" y="326" type="line"/>
      <point x="290" y="297" type="line"/>
      <point x="426" y="555" type="line"/>
      <point x="515" y="592" type="line"/>
      <point x="513" y="600" type="line"/>
      <point x="291" y="600" type="line"/>
      <point x="289" y="592" type="line"/>
      <point x="389" y="555" type="line"/>
    </contour>
    <contour>
      <point x="278" y="291" type="line"/>
      <point x="259" y="320" type="line"/>
      <point x="110" y="45" type="line"/>
      <point x="20" y="8" type="line"/>
      <point x="22" y="0" type="line"/>
      <point x="244" y="0" type="line"/>
      <point x="246" y="8" type="line"/>
      <point x="146" y="45" type="line"/>
    </contour>
    <contour>
      <point x="449" y="45" type="line"/>
      <point x="156" y="555" type="line"/>
      <point x="256" y="592" type="line"/>
      <point x="253" y="600" type="line"/>
      <point x="38" y="600" type="line"/>
      <point x="36" y="592" type="line"/>
      <point x="116" y="555" type="line"/>
      <point x="409" y="45" type="line"/>
      <point x="309" y="8" type="line"/>
      <point x="311" y="0" type="line"/>
      <point x="527" y="0" type="line"/>
      <point x="529" y="8" type="line"/>
    </contour>
  </outline>
</glyph>
<glyph name="Y" format="2">
  <advance width="476"/>
  <unicode hex="0059"/>
  <anchor x="232" y="0" name="bottom"/>
  <anchor x="235" y="600" name="top"/>
  <anchor x="-100" y="600" name="topleft"/>
  <outline>
    <contour>
      <point x="0" y="592" type="line"/>
      <point x="80" y="555" type="line"/>
      <point x="224" y="250" type="line"/>
      <point x="224" y="45" type="line"/>
      <point x="114" y="8" type="line"/>
      <point x="116" y="0" type="line"/>
      <point x="367" y="0" type="line"/>
      <point x="369" y="8" type="line"/>
      <point x="259" y="45" type="line"/>
      <point x="259" y="251" type="line"/>
      <point x="396" y="555" type="line"/>
      <point x="476" y="592" type="line"/>
      <point x="474" y="600" type="line"/>
      <point x="264" y="600" type="line"/>
      <point x="262" y="592" type="line"/>
      <point x="362" y="555" type="line"/>
      <point x="234" y="262" type="line"/>
      <point x="251" y="265" type="line"/>
      <point x="120" y="555" type="line"/>
      <point x="220" y="592" type="line"/>
      <point x="218" y="600" type="line"/>
      <point x="2" y="600" type="line"/>
    </contour>
  </outline>
</glyph>
<glyph name="Z" format="2">
	<advance width="404"/>
	<unicode hex="005A"/>
	<anchor x="186" y="0" name="bottom"/>
	<anchor x="204" y="300" name="center"/>
	<anchor x="206" y="600" name="top"/>
	<outline>
		<contour>
			<point x="34" y="0" type="line"/>
			<point x="384" y="0" type="line"/>
			<point x="363" y="198" type="line"/>
			<point x="355" y="196" type="line"/>
			<point x="318" y="30" type="line"/>
			<point x="42" y="25" type="line"/>
			<point x="54" y="9" type="line"/>
			<point x="358" y="585" type="line"/>
			<point x="345" y="600" type="line"/>
			<point x="39" y="612" type="line"/>
			<point x="78" y="421" type="line"/>
			<point x="86" y="423" type="line"/>
			<point x="106" y="575" type="line"/>
			<point x="333" y="579" type="line"/>
			<point x="324" y="592" type="line"/>
			<point x="20" y="15" type="line"/>
		</contour>
	</outline>
</glyph>
<glyph name="bracketleft" format="2">
	<advance width="335"/>
	<unicode hex="005B"/>
	<outline>
		<contour>
			<point x="109" y="-107" type="line"/>
			<point x="284" y="-107" type="line"/>
			<point x="286" y="-99" type="line"/>
			<point x="137" y="-58" type="line"/>
			<point x="137" y="641" type="line"/>
			<point x="286" y="682" type="line"/>
			<point x="284" y="690" type="line"/>
			<point x="109" y="690" type="line"/>
		</contour>
	</outline>
</glyph>
<glyph name="asciicircum" format="2">
	<advance width="438"/>
	<unicode hex="005E"/>
	<outline>
		<contour>
			<point x="224" y="591" type="line"/>
			<point x="211" y="591" type="line"/>
			<point x="69" y="429" type="line"/>
			<point x="103" y="429" type="line"/>
			<point x="230" y="574" type="line"/>
			<point x="205" y="574" type="line"/>
			<point x="334" y="429" type="line"/>
			<point x="369" y="429" type="line"/>
		</contour>
	</outline>
</glyph>
<glyph name="underscore" format="2">
	<advance width="622"/>
	<unicode hex="005F"/>
	<outline>
		<contour>
			<point x="49" y="29" type="line"/>
			<point x="49" y="0" type="line"/>
			<point x="572" y="0" type="line"/>
			<point x="572" y="29" type="line"/>
		</contour>
	</outline>
</glyph>
<glyph name="a" format="2">
  <advance width="381"/>
  <unicode hex="0061"/>
  <anchor x="175" y="0" name="bottom"/>
  <anchor x="286" y="10" name="ogonek"/>
  <anchor x="171" y="392" name="top"/>
  <outline>
    <contour>
      <point x="29" y="109" type="curve" smooth="yes"/>
      <point x="29" y="35"/>
      <point x="79" y="-20"/>
      <point x="144" y="-20" type="curve" smooth="yes"/>
      <point x="178" y="-20"/>
      <point x="223" y="-6"/>
      <point x="254" y="17" type="curve"/>
      <point x="254" y="-23" type="line"/>
      <point x="382" y="40" type="line"/>
      <point x="380" y="48" type="line"/>
      <point x="283" y="38" type="line"/>
      <point x="288" y="244" type="line" smooth="yes"/>
      <point x="291" y="364"/>
      <point x="256" y="412"/>
      <point x="167" y="412" type="curve" smooth="yes"/>
      <point x="130" y="412"/>
      <point x="83" y="399"/>
      <point x="51" y="378" type="curve"/>
      <point x="89" y="279" type="line"/>
      <point x="97" y="281" type="line"/>
      <point x="98" y="373" type="line"/>
      <point x="112" y="381"/>
      <point x="141" y="386"/>
      <point x="166" y="386" type="curve" smooth="yes"/>
      <point x="237" y="386"/>
      <point x="261" y="337"/>
      <point x="254" y="210" type="curve"/>
      <point x="270" y="217" type="line"/>
      <point x="247" y="231"/>
      <point x="206" y="240"/>
      <point x="171" y="240" type="curve" smooth="yes"/>
      <point x="81" y="240"/>
      <point x="29" y="192"/>
    </contour>
    <contour>
      <point x="65" y="114" type="curve" smooth="yes"/>
      <point x="65" y="178"/>
      <point x="102" y="214"/>
      <point x="167" y="214" type="curve" smooth="yes"/>
      <point x="199" y="214"/>
      <point x="238" y="208"/>
      <point x="254" y="198" type="curve"/>
      <point x="254" y="45" type="line"/>
      <point x="227" y="23"/>
      <point x="186" y="7"/>
      <point x="161" y="7" type="curve" smooth="yes"/>
      <point x="99" y="7"/>
      <point x="65" y="47"/>
    </contour>
  </outline>
</glyph>
<glyph name="b" format="2">
  <advance width="387"/>
  <unicode hex="0062"/>
  <anchor x="206" y="0" name="bottom"/>
  <anchor x="206" y="205" name="center"/>
  <anchor x="214" y="392" name="top"/>
  <outline>
    <contour>
      <point x="85" y="48" type="curve"/>
      <point x="85" y="330" type="line"/>
      <point x="100" y="361"/>
      <point x="143" y="385"/>
      <point x="187" y="385" type="curve" smooth="yes"/>
      <point x="264" y="385"/>
      <point x="314" y="308"/>
      <point x="314" y="188" type="curve" smooth="yes"/>
      <point x="314" y="75"/>
      <point x="267" y="7"/>
      <point x="191" y="7" type="curve" smooth="yes"/>
      <point x="154" y="7"/>
      <point x="111" y="23"/>
    </contour>
    <contour>
      <point x="-60" y="635" type="line"/>
      <point x="-56" y="627" type="line"/>
      <point x="51" y="635" type="line"/>
      <point x="51" y="32" type="line"/>
      <point x="103" y="-6"/>
      <point x="144" y="-20"/>
      <point x="184" y="-20" type="curve" smooth="yes"/>
      <point x="282" y="-20"/>
      <point x="348" y="69"/>
      <point x="348" y="202" type="curve" smooth="yes"/>
      <point x="348" y="328"/>
      <point x="286" y="412"/>
      <point x="193" y="412" type="curve" smooth="yes"/>
      <point x="150" y="412"/>
      <point x="107" y="394"/>
      <point x="85" y="368" type="curve"/>
      <point x="85" y="710" type="line"/>
    </contour>
  </outline>
</glyph>
<glyph name="c" format="2">
  <advance width="369"/>
  <unicode hex="0063"/>
  <anchor x="212" y="0" name="bottom"/>
  <anchor x="192" y="400" name="top"/>
  <outline>
    <contour>
      <point x="342" y="62" type="curve"/>
      <point x="330" y="70" type="line"/>
      <point x="296" y="32"/>
      <point x="254" y="7"/>
      <point x="208" y="7" type="curve" smooth="yes"/>
      <point x="130" y="7"/>
      <point x="71" y="86"/>
      <point x="69" y="202" type="curve" smooth="yes"/>
      <point x="68" y="316"/>
      <point x="121" y="388"/>
      <point x="203" y="388" type="curve" smooth="yes"/>
      <point x="228" y="388"/>
      <point x="249" y="384"/>
      <point x="262" y="375" type="curve"/>
      <point x="282" y="270" type="line"/>
      <point x="290" y="268" type="line"/>
      <point x="315" y="393" type="line"/>
      <point x="285" y="405"/>
      <point x="258" y="412"/>
      <point x="210" y="412" type="curve" smooth="yes"/>
      <point x="99" y="412"/>
      <point x="31" y="328"/>
      <point x="34" y="195" type="curve" smooth="yes"/>
      <point x="37" y="64"/>
      <point x="100" y="-20"/>
      <point x="195" y="-20" type="curve" smooth="yes"/>
      <point x="252" y="-20"/>
      <point x="305" y="10"/>
    </contour>
  </outline>
</glyph>
<glyph name="d" format="2">
  <advance width="429"/>
  <unicode hex="0064"/>
  <anchor x="166" y="0" name="bottom"/>
  <anchor x="175" y="205" name="center"/>
  <anchor x="113" y="690" name="top"/>
  <anchor x="377" y="690" name="topright"/>
  <outline>
    <contour>
      <point x="34" y="191" type="curve" smooth="yes"/>
      <point x="34" y="56"/>
      <point x="93" y="-20"/>
      <point x="188" y="-20" type="curve" smooth="yes"/>
      <point x="237" y="-20"/>
      <point x="273" y="-2"/>
      <point x="297" y="28" type="curve"/>
      <point x="297" y="-13" type="line"/>
      <point x="440" y="53" type="line"/>
      <point x="438" y="61" type="line"/>
      <point x="331" y="51" type="line"/>
      <point x="331" y="702" type="line"/>
      <point x="186" y="635" type="line"/>
      <point x="190" y="627" type="line"/>
      <point x="297" y="635" type="line"/>
      <point x="297" y="387" type="line"/>
      <point x="271" y="401"/>
      <point x="234" y="412"/>
      <point x="200" y="412" type="curve" smooth="yes"/>
      <point x="102" y="412"/>
      <point x="34" y="342"/>
    </contour>
    <contour>
      <point x="297" y="355" type="curve"/>
      <point x="297" y="65" type="line"/>
      <point x="270" y="23"/>
      <point x="234" y="7"/>
      <point x="194" y="7" type="curve" smooth="yes"/>
      <point x="119" y="7"/>
      <point x="68" y="82"/>
      <point x="68" y="204" type="curve" smooth="yes"/>
      <point x="68" y="319"/>
      <point x="115" y="386"/>
      <point x="197" y="386" type="curve" smooth="yes"/>
      <point x="231" y="386"/>
      <point x="270" y="373"/>
    </contour>
  </outline>
</glyph>
<glyph name="e" format="2">
	<advance width="361"/>
	<unicode hex="0065"/>
	<anchor x="190" y="0" name="bottom"/>
	<anchor x="268" y="10" name="ogonek"/>
	<anchor x="192" y="392" name="top"/>
	<outline>
		<contour>
			<point x="56" y="222" type="line"/>
			<point x="58" y="201" type="line"/>
			<point x="322" y="204" type="line"/>
			<point x="320" y="349"/>
			<point x="281" y="412"/>
			<point x="194" y="412" type="curve" smooth="yes"/>
			<point x="95" y="412"/>
			<point x="34" y="331"/>
			<point x="34" y="199" type="curve" smooth="yes"/>
			<point x="34" y="64"/>
			<point x="96" y="-20"/>
			<point x="195" y="-20" type="curve" smooth="yes"/>
			<point x="247" y="-20"/>
			<point x="290" y="5"/>
			<point x="322" y="57" type="curve"/>
			<point x="310" y="65" type="line"/>
			<point x="280" y="26"/>
			<point x="243" y="6"/>
			<point x="204" y="6" type="curve" smooth="yes"/>
			<point x="119" y="6"/>
			<point x="71" y="87"/>
			<point x="68" y="210" type="curve" smooth="yes"/>
			<point x="65" y="323"/>
			<point x="108" y="386"/>
			<point x="187" y="386" type="curve" smooth="yes"/>
			<point x="255" y="386"/>
			<point x="283" y="340"/>
			<point x="287" y="227" type="curve"/>
		</contour>
	</outline>
</glyph>
<glyph name="f" format="2">
  <advance width="335"/>
  <unicode hex="0066"/>
  <anchor x="85" y="0" name="bottom"/>
  <anchor x="85" y="692" name="top"/>
  <outline>
    <contour>
      <point x="101" y="540" type="curve" smooth="yes"/>
      <point x="101" y="407" type="line"/>
      <point x="-9" y="375" type="line"/>
      <point x="-7" y="367" type="line"/>
      <point x="101" y="367" type="line"/>
      <point x="101" y="47" type="line"/>
      <point x="-10" y="8" type="line"/>
      <point x="-8" y="0" type="line"/>
      <point x="275" y="0" type="line"/>
      <point x="277" y="8" type="line"/>
      <point x="136" y="47" type="line"/>
      <point x="136" y="367" type="line"/>
      <point x="233" y="366" type="line"/>
      <point x="246" y="274" type="line"/>
      <point x="254" y="272" type="line"/>
      <point x="284" y="391" type="line"/>
      <point x="136" y="392" type="line"/>
      <point x="136" y="564" type="line" smooth="yes"/>
      <point x="136" y="635"/>
      <point x="155" y="674"/>
      <point x="206" y="676" type="curve" smooth="yes"/>
      <point x="245" y="677"/>
      <point x="270" y="669"/>
      <point x="288" y="662" type="curve"/>
      <point x="304" y="569" type="line"/>
      <point x="312" y="567" type="line"/>
      <point x="346" y="675" type="line"/>
      <point x="321" y="688"/>
      <point x="255" y="702"/>
      <point x="216" y="702" type="curve" smooth="yes"/>
      <point x="130" y="702"/>
      <point x="101" y="649"/>
    </contour>
  </outline>
</glyph>
<glyph name="g" format="2">
  <advance width="375"/>
  <unicode hex="0067"/>
  <anchor x="186" y="-242" name="bottom"/>
  <anchor x="186" y="392" name="top"/>
  <outline>
    <contour>
      <point x="29" y="182"/>
      <point x="81" y="127"/>
      <point x="157" y="127" type="curve" smooth="yes"/>
      <point x="242" y="127"/>
      <point x="298" y="185"/>
      <point x="298" y="272" type="curve" smooth="yes"/>
      <point x="298" y="344"/>
      <point x="258" y="395"/>
      <point x="190" y="409" type="curve"/>
      <point x="237" y="372" type="line"/>
      <point x="377" y="403" type="line"/>
      <point x="375" y="412" type="line"/>
      <point x="178" y="412" type="line" smooth="yes"/>
      <point x="91" y="412"/>
      <point x="29" y="352"/>
      <point x="29" y="264" type="curve" smooth="yes"/>
    </contour>
    <contour>
      <point x="64" y="268" type="curve" smooth="yes"/>
      <point x="65" y="339"/>
      <point x="106" y="387"/>
      <point x="169" y="387" type="curve" smooth="yes"/>
      <point x="228" y="387"/>
      <point x="263" y="344"/>
      <point x="264" y="269" type="curve" smooth="yes"/>
      <point x="265" y="196"/>
      <point x="228" y="153"/>
      <point x="165" y="153" type="curve" smooth="yes"/>
      <point x="104" y="153"/>
      <point x="63" y="194"/>
    </contour>
    <contour>
      <point x="174" y="134" type="line"/>
      <point x="147" y="142" type="line"/>
      <point x="35" y="48" type="line"/>
      <point x="34" y="26" type="line"/>
      <point x="224" y="-6" type="line" smooth="yes"/>
      <point x="283" y="-16"/>
      <point x="312" y="-47"/>
      <point x="312" y="-115" type="curve" smooth="yes"/>
      <point x="312" y="-177"/>
      <point x="255" y="-226"/>
      <point x="176" y="-226" type="curve" smooth="yes"/>
      <point x="98" y="-226"/>
      <point x="45" y="-186"/>
      <point x="45" y="-120" type="curve" smooth="yes"/>
      <point x="45" y="-70"/>
      <point x="77" y="-25"/>
      <point x="153" y="23" type="curve"/>
      <point x="113" y="26" type="line"/>
      <point x="46" y="-21"/>
      <point x="11" y="-72"/>
      <point x="11" y="-128" type="curve" smooth="yes"/>
      <point x="11" y="-202"/>
      <point x="78" y="-252"/>
      <point x="168" y="-252" type="curve" smooth="yes"/>
      <point x="270" y="-252"/>
      <point x="346" y="-185"/>
      <point x="346" y="-103" type="curve" smooth="yes"/>
      <point x="346" y="-38"/>
      <point x="311" y="7"/>
      <point x="247" y="19" type="curve" smooth="yes"/>
      <point x="62" y="53" type="line"/>
      <point x="59" y="38" type="line"/>
    </contour>
  </outline>
</glyph>
<glyph name="h" format="2">
  <advance width="500"/>
  <unicode hex="0068"/>
  <anchor x="251" y="0" name="bottom"/>
  <anchor x="249" y="375" name="center"/>
  <anchor x="276" y="682" name="top"/>
  <outline>
    <contour>
      <point x="124" y="318" type="curve"/>
      <point x="124" y="286" type="line"/>
      <point x="170" y="348"/>
      <point x="218" y="383"/>
      <point x="267" y="383" type="curve" smooth="yes"/>
      <point x="322" y="383"/>
      <point x="345" y="346"/>
      <point x="345" y="257" type="curve" smooth="yes"/>
      <point x="345" y="45" type="line"/>
      <point x="265" y="8" type="line"/>
      <point x="267" y="0" type="line"/>
      <point x="479" y="0" type="line"/>
      <point x="481" y="8" type="line"/>
      <point x="380" y="44" type="line"/>
      <point x="380" y="264" type="line" smooth="yes"/>
      <point x="380" y="366"/>
      <point x="349" y="412"/>
      <point x="280" y="412" type="curve" smooth="yes"/>
      <point x="224" y="412"/>
      <point x="173" y="381"/>
    </contour>
    <contour>
      <point x="-8" y="619" type="line"/>
      <point x="99" y="627" type="line"/>
      <point x="99" y="47" type="line"/>
      <point x="-11" y="8" type="line"/>
      <point x="-9" y="0" type="line"/>
      <point x="238" y="0" type="line"/>
      <point x="240" y="8" type="line"/>
      <point x="133" y="47" type="line"/>
      <point x="133" y="702" type="line"/>
      <point x="-12" y="627" type="line"/>
    </contour>
  </outline>
</glyph>
<glyph name="k" format="2">
  <advance width="457"/>
  <unicode hex="006B"/>
  <anchor x="232" y="0" name="bottom"/>
  <anchor x="227" y="681" name="top"/>
  <outline>
    <contour>
      <point x="126" y="118" type="line"/>
      <point x="298" y="347" type="line"/>
      <point x="405" y="384" type="line"/>
      <point x="403" y="392" type="line"/>
      <point x="185" y="392" type="line"/>
      <point x="183" y="384" type="line"/>
      <point x="263" y="347" type="line"/>
      <point x="114" y="143" type="line"/>
    </contour>
    <contour>
      <point x="-8" y="619" type="line"/>
      <point x="99" y="627" type="line"/>
      <point x="99" y="47" type="line"/>
      <point x="-11" y="8" type="line"/>
      <point x="-9" y="0" type="line"/>
      <point x="228" y="0" type="line"/>
      <point x="230" y="8" type="line"/>
      <point x="133" y="47" type="line"/>
      <point x="133" y="702" type="line"/>
      <point x="-12" y="627" type="line"/>
    </contour>
    <contour>
      <point x="208" y="263" type="line"/>
      <point x="191" y="233" type="line"/>
      <point x="310" y="35" type="line"/>
      <point x="249" y="8" type="line"/>
      <point x="251" y="0" type="line"/>
      <point x="436" y="0" type="line"/>
      <point x="438" y="8" type="line"/>
      <point x="343" y="41" type="line"/>
    </contour>
  </outline>
</glyph>
<glyph name="l" format="2">
	<advance width="244"/>
	<unicode hex="006C"/>
	<anchor x="115" y="0" name="bottom"/>
	<anchor x="115" y="375" name="center"/>
	<anchor x="115" y="650" name="top"/>
	<anchor x="177" y="682" name="topright"/>
	<outline>
		<contour>
			<point x="-8" y="619" type="line"/>
			<point x="99" y="627" type="line"/>
			<point x="99" y="47" type="line"/>
			<point x="-11" y="8" type="line"/>
			<point x="-9" y="0" type="line"/>
			<point x="241" y="0" type="line"/>
			<point x="243" y="8" type="line"/>
			<point x="133" y="47" type="line"/>
			<point x="133" y="702" type="line"/>
			<point x="-12" y="627" type="line"/>
		</contour>
	</outline>
</glyph>
<glyph name="m" format="2">
  <advance width="743"/>
  <unicode hex="006D"/>
  <anchor x="467" y="0" name="bottom"/>
  <anchor x="459" y="392" name="top"/>
  <outline>
    <contour>
      <point x="400" y="297" type="line"/>
      <point x="446" y="354"/>
      <point x="486" y="384"/>
      <point x="524" y="384" type="curve" smooth="yes"/>
      <point x="568" y="384"/>
      <point x="590" y="344"/>
      <point x="590" y="258" type="curve" smooth="yes"/>
      <point x="590" y="45" type="line"/>
      <point x="520" y="8" type="line"/>
      <point x="522" y="0" type="line"/>
      <point x="722" y="0" type="line"/>
      <point x="724" y="8" type="line"/>
      <point x="624" y="44" type="line"/>
      <point x="624" y="265" type="line" smooth="yes"/>
      <point x="624" y="364"/>
      <point x="595" y="412"/>
      <point x="538" y="412" type="curve" smooth="yes"/>
      <point x="486" y="412"/>
      <point x="431" y="374"/>
      <point x="386" y="307" type="curve"/>
      <point x="400" y="309" type="line"/>
      <point x="399" y="371"/>
      <point x="365" y="412"/>
      <point x="311" y="412" type="curve" smooth="yes"/>
      <point x="263" y="412"/>
      <point x="213" y="379"/>
      <point x="164" y="316" type="curve"/>
      <point x="166" y="286" type="line"/>
      <point x="216" y="352"/>
      <point x="258" y="384"/>
      <point x="298" y="384" type="curve" smooth="yes"/>
      <point x="344" y="384"/>
      <point x="368" y="341"/>
      <point x="368" y="258" type="curve" smooth="yes"/>
      <point x="368" y="45" type="line"/>
      <point x="298" y="8" type="line"/>
      <point x="300" y="0" type="line"/>
      <point x="470" y="0" type="line"/>
      <point x="472" y="8" type="line"/>
      <point x="402" y="45" type="line"/>
    </contour>
    <contour>
      <point x="184" y="47" type="line"/>
      <point x="184" y="412" type="line"/>
      <point x="39" y="345" type="line"/>
      <point x="41" y="337" type="line"/>
      <point x="150" y="345" type="line"/>
      <point x="150" y="47" type="line"/>
      <point x="49" y="8" type="line"/>
      <point x="51" y="0" type="line"/>
      <point x="252" y="0" type="line"/>
      <point x="254" y="8" type="line"/>
    </contour>
  </outline>
</glyph>
<glyph name="n" format="2">
  <advance width="550"/>
  <unicode hex="006E"/>
  <anchor x="305" y="0" name="bottom"/>
  <anchor x="293" y="392" name="top"/>
  <outline>
    <contour>
      <point x="174" y="318" type="curve"/>
      <point x="174" y="286" type="line"/>
      <point x="225" y="353"/>
      <point x="269" y="383"/>
      <point x="318" y="383" type="curve" smooth="yes"/>
      <point x="373" y="383"/>
      <point x="396" y="346"/>
      <point x="396" y="257" type="curve" smooth="yes"/>
      <point x="396" y="45" type="line"/>
      <point x="316" y="8" type="line"/>
      <point x="318" y="0" type="line"/>
      <point x="529" y="1" type="line"/>
      <point x="531" y="9" type="line"/>
      <point x="430" y="44" type="line"/>
      <point x="430" y="264" type="line" smooth="yes"/>
      <point x="430" y="366"/>
      <point x="399" y="412"/>
      <point x="331" y="412" type="curve" smooth="yes"/>
      <point x="275" y="412"/>
      <point x="222" y="380"/>
    </contour>
    <contour>
      <point x="41" y="337" type="line"/>
      <point x="150" y="345" type="line"/>
      <point x="150" y="47" type="line"/>
      <point x="49" y="8" type="line"/>
      <point x="51" y="0" type="line"/>
      <point x="289" y="0" type="line"/>
      <point x="291" y="8" type="line"/>
      <point x="184" y="47" type="line"/>
      <point x="184" y="412" type="line"/>
      <point x="39" y="345" type="line"/>
    </contour>
  </outline>
</glyph>
<glyph name="o" format="2">
	<advance width="383"/>
	<unicode hex="006F"/>
	<anchor x="189" y="0" name="bottom"/>
	<anchor x="189" y="205" name="center"/>
	<anchor x="264" y="10" name="ogonek"/>
	<anchor x="189" y="392" name="top"/>
	<anchor x="391" y="400" name="topright"/>
	<outline>
		<contour>
			<point x="185" y="-20" type="curve" smooth="yes"/>
			<point x="286" y="-20"/>
			<point x="344" y="59"/>
			<point x="344" y="199" type="curve" smooth="yes"/>
			<point x="344" y="336"/>
			<point x="291" y="412"/>
			<point x="194" y="412" type="curve" smooth="yes"/>
			<point x="91" y="412"/>
			<point x="34" y="333"/>
			<point x="34" y="194" type="curve" smooth="yes"/>
			<point x="34" y="56"/>
			<point x="89" y="-20"/>
		</contour>
		<contour>
			<point x="193" y="6" type="curve" smooth="yes"/>
			<point x="114" y="6"/>
			<point x="69" y="78"/>
			<point x="69" y="202" type="curve" smooth="yes"/>
			<point x="69" y="321"/>
			<point x="110" y="386"/>
			<point x="185" y="386" type="curve" smooth="yes"/>
			<point x="265" y="386"/>
			<point x="309" y="314"/>
			<point x="309" y="191" type="curve" smooth="yes"/>
			<point x="309" y="72"/>
			<point x="268" y="6"/>
		</contour>
	</outline>
</glyph>
<glyph name="p" format="2">
	<advance width="395"/>
	<unicode hex="0070"/>
	<anchor x="200" y="0" name="bottom"/>
	<anchor x="200" y="392" name="top"/>
	<outline>
		<contour>
			<point x="93" y="37" type="curve"/>
			<point x="93" y="327" type="line"/>
			<point x="119" y="367"/>
			<point x="158" y="385"/>
			<point x="196" y="385" type="curve" smooth="yes"/>
			<point x="271" y="385"/>
			<point x="322" y="310"/>
			<point x="322" y="188" type="curve" smooth="yes"/>
			<point x="322" y="73"/>
			<point x="275" y="7"/>
			<point x="193" y="7" type="curve" smooth="yes"/>
			<point x="163" y="7"/>
			<point x="123" y="17"/>
		</contour>
		<contour>
			<point x="-50" y="364" type="line"/>
			<point x="-48" y="356" type="line"/>
			<point x="59" y="346" type="line"/>
			<point x="59" y="-185" type="line"/>
			<point x="-47" y="-224" type="line"/>
			<point x="-45" y="-232" type="line"/>
			<point x="201" y="-232" type="line"/>
			<point x="203" y="-224" type="line"/>
			<point x="93" y="-185" type="line"/>
			<point x="93" y="6" type="line"/>
			<point x="121" y="-10"/>
			<point x="158" y="-20"/>
			<point x="190" y="-20" type="curve" smooth="yes"/>
			<point x="288" y="-20"/>
			<point x="356" y="50"/>
			<point x="356" y="202" type="curve" smooth="yes"/>
			<point x="356" y="336"/>
			<point x="297" y="412"/>
			<point x="202" y="412" type="curve" smooth="yes"/>
			<point x="154" y="412"/>
			<point x="116" y="392"/>
			<point x="93" y="364" type="curve"/>
			<point x="93" y="405" type="line"/>
		</contour>
	</outline>
</glyph>
<glyph name="q" format="2">
	<advance width="404"/>
	<unicode hex="0071"/>
	<anchor x="193" y="0" name="bottom"/>
	<anchor x="193" y="392" name="top"/>
	<outline>
		<contour>
			<point x="297" y="345" type="curve"/>
			<point x="297" y="62" type="line"/>
			<point x="282" y="31"/>
			<point x="238" y="7"/>
			<point x="195" y="7" type="curve" smooth="yes"/>
			<point x="118" y="7"/>
			<point x="68" y="84"/>
			<point x="68" y="204" type="curve" smooth="yes"/>
			<point x="68" y="317"/>
			<point x="115" y="386"/>
			<point x="191" y="386" type="curve" smooth="yes"/>
			<point x="234" y="386"/>
			<point x="276" y="367"/>
		</contour>
		<contour>
			<point x="34" y="191" type="curve" smooth="yes"/>
			<point x="34" y="64"/>
			<point x="96" y="-20"/>
			<point x="189" y="-20" type="curve" smooth="yes"/>
			<point x="230" y="-20"/>
			<point x="274" y="-3"/>
			<point x="297" y="24" type="curve"/>
			<point x="297" y="-185" type="line"/>
			<point x="169" y="-224" type="line"/>
			<point x="171" y="-232" type="line"/>
			<point x="418" y="-232" type="line"/>
			<point x="420" y="-224" type="line"/>
			<point x="331" y="-185" type="line"/>
			<point x="331" y="361" type="line"/>
			<point x="292" y="394"/>
			<point x="246" y="412"/>
			<point x="198" y="412" type="curve" smooth="yes"/>
			<point x="100" y="412"/>
			<point x="34" y="324"/>
		</contour>
	</outline>
</glyph>
<glyph name="r" format="2">
	<advance width="401"/>
	<unicode hex="0072"/>
	<anchor x="162" y="0" name="bottom"/>
	<anchor x="237" y="400" name="top"/>
	<outline>
		<contour>
			<point x="172" y="260" type="curve"/>
			<point x="183" y="242" type="line"/>
			<point x="234" y="356"/>
			<point x="270" y="385"/>
			<point x="317" y="382" type="curve"/>
			<point x="293" y="400" type="line"/>
			<point x="315" y="268" type="line"/>
			<point x="323" y="266" type="line"/>
			<point x="362" y="404" type="line"/>
			<point x="351" y="409"/>
			<point x="337" y="412"/>
			<point x="320" y="412" type="curve" smooth="yes"/>
			<point x="266" y="412"/>
			<point x="217" y="376"/>
		</contour>
		<contour>
			<point x="184" y="47" type="line"/>
			<point x="184" y="412" type="line"/>
			<point x="39" y="345" type="line"/>
			<point x="41" y="337" type="line"/>
			<point x="150" y="345" type="line"/>
			<point x="150" y="47" type="line"/>
			<point x="49" y="8" type="line"/>
			<point x="51" y="0" type="line"/>
			<point x="321" y="0" type="line"/>
			<point x="323" y="8" type="line"/>
		</contour>
	</outline>
</glyph>
<glyph name="s" format="2">
	<advance width="298"/>
	<unicode hex="0073"/>
	<anchor x="149" y="0" name="bottom"/>
	<anchor x="149" y="400" name="top"/>
	<outline>
		<contour>
			<point x="25" y="9" type="line"/>
			<point x="62" y="-10"/>
			<point x="106" y="-20"/>
			<point x="147" y="-20" type="curve" smooth="yes"/>
			<point x="224" y="-20"/>
			<point x="275" y="30"/>
			<point x="275" y="95" type="curve" smooth="yes"/>
			<point x="275" y="150"/>
			<point x="242" y="187"/>
			<point x="186" y="210" type="curve" smooth="yes"/>
			<point x="129" y="234" type="line" smooth="yes"/>
			<point x="73" y="257"/>
			<point x="59" y="283"/>
			<point x="65" y="323" type="curve" smooth="yes"/>
			<point x="70" y="361"/>
			<point x="100" y="389"/>
			<point x="147" y="389" type="curve" smooth="yes"/>
			<point x="164" y="389"/>
			<point x="181" y="385"/>
			<point x="193" y="378" type="curve"/>
			<point x="209" y="277" type="line"/>
			<point x="217" y="275" type="line"/>
			<point x="246" y="393" type="line"/>
			<point x="223" y="405"/>
			<point x="188" y="412"/>
			<point x="152" y="412" type="curve" smooth="yes"/>
			<point x="85" y="412"/>
			<point x="41" y="370"/>
			<point x="36" y="314" type="curve" smooth="yes"/>
			<point x="32" y="266"/>
			<point x="52" y="230"/>
			<point x="117" y="203" type="curve" smooth="yes"/>
			<point x="167" y="182" type="line" smooth="yes"/>
			<point x="221" y="160"/>
			<point x="246" y="136"/>
			<point x="246" y="85" type="curve" smooth="yes"/>
			<point x="246" y="43"/>
			<point x="212" y="9"/>
			<point x="157" y="7" type="curve" smooth="yes"/>
			<point x="125" y="6"/>
			<point x="94" y="12"/>
			<point x="79" y="22" type="curve"/>
			<point x="62" y="132" type="line"/>
			<point x="54" y="134" type="line"/>
		</contour>
	</outline>
</glyph>
<glyph name="t" format="2">
	<advance width="306"/>
	<unicode hex="0074"/>
	<anchor x="186" y="0" name="bottom"/>
	<anchor x="186" y="205" name="center"/>
	<anchor x="186" y="402" name="top"/>
	<anchor x="193" y="682" name="topright"/>
	<outline>
		<contour>
			<point x="9" y="375" type="line"/>
			<point x="11" y="367" type="line"/>
			<point x="92" y="367" type="line"/>
			<point x="92" y="110" type="line" smooth="yes"/>
			<point x="92" y="27"/>
			<point x="121" y="-20"/>
			<point x="174" y="-20" type="curve" smooth="yes"/>
			<point x="214" y="-20"/>
			<point x="250" y="8"/>
			<point x="285" y="64" type="curve"/>
			<point x="273" y="72" type="line"/>
			<point x="240" y="30"/>
			<point x="211" y="11"/>
			<point x="183" y="11" type="curve" smooth="yes"/>
			<point x="143" y="11"/>
			<point x="126" y="47"/>
			<point x="126" y="132" type="curve" smooth="yes"/>
			<point x="126" y="540" type="line"/>
			<point x="118" y="542" type="line"/>
			<point x="74" y="403" type="line"/>
		</contour>
		<contour>
			<point x="109" y="367" type="line"/>
			<point x="235" y="366" type="line"/>
			<point x="247" y="264" type="line"/>
			<point x="255" y="262" type="line"/>
			<point x="286" y="391" type="line"/>
			<point x="109" y="392" type="line"/>
		</contour>
	</outline>
</glyph>
<glyph name="u" format="2">
	<advance width="460"/>
	<unicode hex="0075"/>
	<anchor x="197" y="0" name="bottom"/>
	<anchor x="348" y="10" name="ogonek"/>
	<anchor x="204" y="392" name="top"/>
	<anchor x="461" y="392" name="topright"/>
	<outline>
		<contour>
			<point x="-21" y="345" type="line"/>
			<point x="-19" y="337" type="line"/>
			<point x="90" y="345" type="line"/>
			<point x="90" y="128" type="line" smooth="yes"/>
			<point x="90" y="34"/>
			<point x="129" y="-20"/>
			<point x="194" y="-20" type="curve" smooth="yes"/>
			<point x="236" y="-20"/>
			<point x="278" y="-3"/>
			<point x="322" y="45" type="curve"/>
			<point x="322" y="-20" type="line"/>
			<point x="466" y="47" type="line"/>
			<point x="464" y="55" type="line"/>
			<point x="356" y="47" type="line"/>
			<point x="356" y="412" type="line"/>
			<point x="211" y="345" type="line"/>
			<point x="213" y="337" type="line"/>
			<point x="322" y="345" type="line"/>
			<point x="322" y="73" type="line"/>
			<point x="278" y="22"/>
			<point x="243" y="8"/>
			<point x="207" y="8" type="curve" smooth="yes"/>
			<point x="155" y="8"/>
			<point x="124" y="54"/>
			<point x="124" y="136" type="curve" smooth="yes"/>
			<point x="124" y="412" type="line"/>
		</contour>
	</outline>
</glyph>
<glyph name="v" format="2">
	<advance width="367"/>
	<unicode hex="0076"/>
	<anchor x="178" y="0" name="bottom"/>
	<anchor x="180" y="392" name="top"/>
	<outline>
		<contour>
			<point x="-40" y="384" type="line"/>
			<point x="30" y="347" type="line"/>
			<point x="162" y="0" type="line"/>
			<point x="192" y="0" type="line"/>
			<point x="318" y="347" type="line"/>
			<point x="388" y="384" type="line"/>
			<point x="386" y="392" type="line"/>
			<point x="211" y="392" type="line"/>
			<point x="209" y="384" type="line"/>
			<point x="289" y="347" type="line"/>
			<point x="167" y="14" type="line"/>
			<point x="184" y="29" type="line"/>
			<point x="69" y="347" type="line"/>
			<point x="149" y="384" type="line"/>
			<point x="147" y="392" type="line"/>
			<point x="-38" y="392" type="line"/>
		</contour>
	</outline>
</glyph>
<glyph name="w" format="2">
	<advance width="547"/>
	<unicode hex="0077"/>
	<anchor x="271" y="0" name="bottom"/>
	<anchor x="270" y="392" name="top"/>
	<outline>
		<contour>
			<point x="-31" y="384" type="line"/>
			<point x="39" y="347" type="line"/>
			<point x="154" y="0" type="line"/>
			<point x="172" y="0" type="line"/>
			<point x="282" y="394" type="line"/>
			<point x="264" y="380" type="line"/>
			<point x="383" y="0" type="line"/>
			<point x="401" y="0" type="line"/>
			<point x="498" y="347" type="line"/>
			<point x="568" y="384" type="line"/>
			<point x="566" y="392" type="line"/>
			<point x="400" y="392" type="line"/>
			<point x="398" y="384" type="line"/>
			<point x="468" y="347" type="line"/>
			<point x="386" y="31" type="line"/>
			<point x="407" y="35" type="line"/>
			<point x="289" y="402" type="line"/>
			<point x="252" y="388" type="line"/>
			<point x="151" y="33" type="line"/>
			<point x="172" y="39" type="line"/>
			<point x="78" y="347" type="line"/>
			<point x="158" y="384" type="line"/>
			<point x="156" y="392" type="line"/>
			<point x="-29" y="392" type="line"/>
		</contour>
	</outline>
</glyph>
<glyph name="x" format="2">
	<advance width="421"/>
	<unicode hex="0078"/>
	<anchor x="224" y="0" name="bottom"/>
	<anchor x="224" y="392" name="top"/>
	<outline>
		<contour>
			<point x="205" y="216" type="line"/>
			<point x="222" y="194" type="line"/>
			<point x="315" y="347" type="line"/>
			<point x="385" y="384" type="line"/>
			<point x="383" y="392" type="line"/>
			<point x="227" y="392" type="line"/>
			<point x="225" y="384" type="line"/>
			<point x="285" y="347" type="line"/>
		</contour>
		<contour>
			<point x="103" y="347" type="line"/>
			<point x="303" y="45" type="line"/>
			<point x="233" y="8" type="line"/>
			<point x="235" y="0" type="line"/>
			<point x="405" y="0" type="line"/>
			<point x="407" y="8" type="line"/>
			<point x="337" y="45" type="line"/>
			<point x="137" y="347" type="line"/>
			<point x="197" y="384" type="line"/>
			<point x="195" y="392" type="line"/>
			<point x="35" y="392" type="line"/>
			<point x="33" y="384" type="line"/>
		</contour>
		<contour>
			<point x="218" y="197" type="line"/>
			<point x="201" y="218" type="line"/>
			<point x="94" y="46" type="line"/>
			<point x="14" y="8" type="line"/>
			<point x="16" y="0" type="line"/>
			<point x="194" y="0" type="line"/>
			<point x="196" y="8" type="line"/>
			<point x="126" y="45" type="line"/>
		</contour>
	</outline>
</glyph>
<glyph name="y" format="2">
	<advance width="328"/>
	<unicode hex="0079"/>
	<anchor x="170" y="0" name="bottom"/>
	<anchor x="174" y="392" name="top"/>
	<outline>
		<contour>
			<point x="-41" y="384" type="line"/>
			<point x="30" y="347" type="line"/>
			<point x="167" y="-18" type="line"/>
			<point x="165" y="13" type="line"/>
			<point x="58" y="-228" type="line"/>
			<point x="58" y="-232" type="line"/>
			<point x="112" y="-232" type="line"/>
			<point x="181" y="0" type="line"/>
			<point x="307" y="347" type="line"/>
			<point x="379" y="384" type="line"/>
			<point x="377" y="392" type="line"/>
			<point x="200" y="392" type="line"/>
			<point x="198" y="384" type="line"/>
			<point x="270" y="347" type="line"/>
			<point x="162" y="22" type="line"/>
			<point x="184" y="22" type="line"/>
			<point x="69" y="347" type="line"/>
			<point x="149" y="384" type="line"/>
			<point x="147" y="392" type="line"/>
			<point x="-39" y="392" type="line"/>
		</contour>
	</outline>
</glyph>
<glyph name="z" format="2">
  <advance width="352"/>
  <unicode hex="007A"/>
  <anchor x="165" y="0" name="bottom"/>
  <anchor x="175" y="205" name="center"/>
  <anchor x="175" y="400" name="top"/>
  <outline>
    <contour>
      <point x="29" y="22" type="line"/>
      <point x="39" y="0" type="line"/>
      <point x="313" y="0" type="line"/>
      <point x="294" y="139" type="line"/>
      <point x="286" y="140" type="line"/>
      <point x="260" y="29" type="line"/>
      <point x="49" y="23" type="line"/>
      <point x="60" y="10" type="line"/>
      <point x="299" y="380" type="line"/>
      <point x="290" y="402" type="line"/>
      <point x="46" y="413" type="line"/>
      <point x="75" y="278" type="line"/>
      <point x="83" y="281" type="line"/>
      <point x="101" y="381" type="line"/>
      <point x="284" y="383" type="line"/>
      <point x="269" y="394" type="line"/>
    </contour>
  </outline>
</glyph>
<glyph name="braceleft" format="2">
	<advance width="357"/>
	<unicode hex="007B"/>
	<outline>
		<contour>
			<point x="200" y="511" type="line" smooth="yes"/>
			<point x="200" y="629"/>
			<point x="217" y="648"/>
			<point x="311" y="692" type="curve"/>
			<point x="303" y="710" type="line"/>
			<point x="207" y="668"/>
			<point x="170" y="638"/>
			<point x="170" y="510" type="curve" smooth="yes"/>
			<point x="170" y="411" type="line" smooth="yes"/>
			<point x="170" y="342"/>
			<point x="113" y="305"/>
			<point x="79" y="305" type="curve"/>
			<point x="79" y="290" type="line"/>
			<point x="111" y="290"/>
			<point x="170" y="263"/>
			<point x="170" y="173" type="curve" smooth="yes"/>
			<point x="170" y="74" type="line" smooth="yes"/>
			<point x="170" y="-54"/>
			<point x="207" y="-84"/>
			<point x="303" y="-126" type="curve"/>
			<point x="311" y="-108" type="line"/>
			<point x="217" y="-54"/>
			<point x="200" y="-45"/>
			<point x="200" y="73" type="curve" smooth="yes"/>
			<point x="200" y="167" type="line" smooth="yes"/>
			<point x="200" y="264"/>
			<point x="160" y="307"/>
			<point x="108" y="306" type="curve"/>
			<point x="108" y="292" type="line"/>
			<point x="154" y="291"/>
			<point x="200" y="336"/>
			<point x="200" y="417" type="curve" smooth="yes"/>
		</contour>
	</outline>
</glyph>
<glyph name="bar" format="2">
  <advance width="170"/>
  <unicode hex="007C"/>
  <outline>
    <contour>
      <point x="70" y="-240" type="line"/>
      <point x="99" y="-240" type="line"/>
      <point x="100" y="690" type="line"/>
      <point x="70" y="690" type="line"/>
    </contour>
  </outline>
</glyph>
<glyph name="asciitilde" format="2">
	<advance width="453"/>
	<unicode hex="007E"/>
	<outline>
		<contour>
			<point x="199" y="306" type="curve" smooth="yes"/>
			<point x="275" y="270" type="line" smooth="yes"/>
			<point x="287" y="264"/>
			<point x="304" y="260"/>
			<point x="321" y="260" type="curve" smooth="yes"/>
			<point x="347" y="260"/>
			<point x="359" y="282"/>
			<point x="359" y="323" type="curve"/>
			<point x="384" y="323" type="line"/>
			<point x="384" y="268"/>
			<point x="359" y="235"/>
			<point x="317" y="235" type="curve" smooth="yes"/>
			<point x="299" y="235"/>
			<point x="279" y="242"/>
			<point x="255" y="252" type="curve" smooth="yes"/>
			<point x="180" y="287" type="line" smooth="yes"/>
			<point x="165" y="294"/>
			<point x="151" y="298"/>
			<point x="138" y="298" type="curve" smooth="yes"/>
			<point x="109" y="298"/>
			<point x="94" y="277"/>
			<point x="94" y="235" type="curve"/>
			<point x="69" y="235" type="line"/>
			<point x="69" y="290"/>
			<point x="94" y="323"/>
			<point x="137" y="323" type="curve" smooth="yes"/>
			<point x="155" y="323"/>
			<point x="174" y="316"/>
		</contour>
	</outline>
</glyph>
<glyph name="cent" format="2">
	<advance width="334"/>
	<unicode hex="00A2"/>
	<outline>
		<contour>
			<point x="304" y="62" type="curve"/>
			<point x="294" y="70" type="line"/>
			<point x="263" y="29"/>
			<point x="226" y="7"/>
			<point x="191" y="7" type="curve" smooth="yes"/>
			<point x="122" y="7"/>
			<point x="74" y="87"/>
			<point x="73" y="202" type="curve" smooth="yes"/>
			<point x="72" y="316"/>
			<point x="115" y="388"/>
			<point x="185" y="388" type="curve" smooth="yes"/>
			<point x="204" y="388"/>
			<point x="225" y="383"/>
			<point x="236" y="375" type="curve"/>
			<point x="254" y="270" type="line"/>
			<point x="262" y="268" type="line"/>
			<point x="289" y="393" type="line"/>
			<point x="265" y="404"/>
			<point x="225" y="412"/>
			<point x="192" y="412" type="curve" smooth="yes"/>
			<point x="94" y="412"/>
			<point x="34" y="337"/>
			<point x="37" y="195" type="curve" smooth="yes"/>
			<point x="40" y="64"/>
			<point x="95" y="-20"/>
			<point x="178" y="-20" type="curve" smooth="yes"/>
			<point x="225" y="-20"/>
			<point x="273" y="10"/>
		</contour>
		<contour>
			<point x="166" y="490" type="line"/>
			<point x="166" y="-100" type="line"/>
			<point x="197" y="-100" type="line"/>
			<point x="197" y="490" type="line"/>
		</contour>
	</outline>
</glyph>
<glyph name="sterling" format="2">
  <advance width="462"/>
  <unicode hex="00A3"/>
  <outline>
    <contour>
      <point x="60" y="306" type="line"/>
      <point x="60" y="281" type="line"/>
      <point x="307" y="281" type="line"/>
      <point x="307" y="306" type="line"/>
    </contour>
    <contour>
      <point x="242" y="592" type="curve" smooth="yes"/>
      <point x="261" y="592"/>
      <point x="286" y="588"/>
      <point x="298" y="583" type="curve"/>
      <point x="314" y="417" type="line"/>
      <point x="322" y="415" type="line"/>
      <point x="375" y="598" type="line"/>
      <point x="340" y="611"/>
      <point x="292" y="620"/>
      <point x="255" y="620" type="curve" smooth="yes"/>
      <point x="170" y="620"/>
      <point x="122" y="560"/>
      <point x="122" y="441" type="curve" smooth="yes"/>
      <point x="122" y="323"/>
      <point x="179" y="254"/>
      <point x="179" y="182" type="curve" smooth="yes"/>
      <point x="179" y="123"/>
      <point x="145" y="78"/>
      <point x="72" y="24" type="curve"/>
      <point x="93" y="0" type="line"/>
      <point x="392" y="0" type="line"/>
      <point x="371" y="195" type="line"/>
      <point x="363" y="193" type="line"/>
      <point x="326" y="32" type="line"/>
      <point x="87" y="26" type="line"/>
      <point x="94" y="14" type="line"/>
      <point x="168" y="60"/>
      <point x="212" y="121"/>
      <point x="212" y="185" type="curve" smooth="yes"/>
      <point x="212" y="251"/>
      <point x="156" y="357"/>
      <point x="156" y="453" type="curve" smooth="yes"/>
      <point x="156" y="552"/>
      <point x="192" y="592"/>
    </contour>
  </outline>
</glyph>
<glyph name="currency" format="2">
	<advance width="426"/>
	<unicode hex="00A4"/>
	<outline>
		<contour>
			<point x="217" y="9" type="curve" smooth="yes"/>
			<point x="156" y="9"/>
			<point x="130" y="68"/>
			<point x="130" y="205" type="curve" smooth="yes"/>
			<point x="130" y="330"/>
			<point x="153" y="383"/>
			<point x="209" y="383" type="curve" smooth="yes"/>
			<point x="270" y="383"/>
			<point x="295" y="328"/>
			<point x="295" y="197" type="curve" smooth="yes"/>
			<point x="295" y="67"/>
			<point x="272" y="9"/>
		</contour>
		<contour>
			<point x="213" y="-20" type="curve" smooth="yes"/>
			<point x="296" y="-20"/>
			<point x="332" y="50"/>
			<point x="332" y="205" type="curve" smooth="yes"/>
			<point x="332" y="348"/>
			<point x="296" y="412"/>
			<point x="213" y="412" type="curve" smooth="yes"/>
			<point x="131" y="412"/>
			<point x="95" y="346"/>
			<point x="95" y="197" type="curve" smooth="yes"/>
			<point x="95" y="47"/>
			<point x="131" y="-20"/>
		</contour>
		<contour>
			<point x="64" y="412" type="line"/>
			<point x="39" y="389" type="line"/>
			<point x="118" y="314" type="line"/>
			<point x="142" y="338" type="line"/>
		</contour>
		<contour>
			<point x="362" y="412" type="line"/>
			<point x="284" y="338" type="line"/>
			<point x="308" y="314" type="line"/>
			<point x="387" y="388" type="line"/>
		</contour>
		<contour>
			<point x="363" y="-20" type="line"/>
			<point x="387" y="4" type="line"/>
			<point x="309" y="78" type="line"/>
			<point x="284" y="54" type="line"/>
		</contour>
		<contour>
			<point x="64" y="-20" type="line"/>
			<point x="143" y="55" type="line"/>
			<point x="118" y="78" type="line"/>
			<point x="39" y="4" type="line"/>
		</contour>
	</outline>
</glyph>
<glyph name="yen" format="2">
	<advance width="456"/>
	<unicode hex="00A5"/>
	<outline>
		<contour>
			<point x="0" y="592" type="line"/>
			<point x="80" y="555" type="line"/>
			<point x="214" y="250" type="line"/>
			<point x="214" y="45" type="line"/>
			<point x="104" y="8" type="line"/>
			<point x="106" y="0" type="line"/>
			<point x="357" y="0" type="line"/>
			<point x="359" y="8" type="line"/>
			<point x="249" y="45" type="line"/>
			<point x="249" y="251" type="line"/>
			<point x="376" y="555" type="line"/>
			<point x="456" y="592" type="line"/>
			<point x="454" y="600" type="line"/>
			<point x="254" y="600" type="line"/>
			<point x="252" y="592" type="line"/>
			<point x="342" y="555" type="line"/>
			<point x="224" y="262" type="line"/>
			<point x="241" y="265" type="line"/>
			<point x="120" y="555" type="line"/>
			<point x="210" y="592" type="line"/>
			<point x="208" y="600" type="line"/>
			<point x="2" y="600" type="line"/>
		</contour>
		<contour>
			<point x="99" y="271" type="line"/>
			<point x="99" y="246" type="line"/>
			<point x="364" y="246" type="line"/>
			<point x="364" y="271" type="line"/>
			<point x="250" y="271" type="line"/>
			<point x="232" y="271" type="line"/>
			<point x="214" y="271" type="line"/>
		</contour>
		<contour>
			<point x="99" y="185" type="line"/>
			<point x="99" y="160" type="line"/>
			<point x="364" y="160" type="line"/>
			<point x="364" y="185" type="line"/>
		</contour>
	</outline>
</glyph>
<glyph name="brokenbar" format="2">
  <advance width="165"/>
  <unicode hex="00A6"/>
  <outline>
    <contour>
      <point x="68" y="-231" type="line"/>
      <point x="98" y="-231" type="line"/>
      <point x="98" y="169" type="line"/>
      <point x="68" y="169" type="line"/>
    </contour>
    <contour>
      <point x="68" y="271" type="line"/>
      <point x="98" y="271" type="line"/>
      <point x="98" y="681" type="line"/>
      <point x="68" y="681" type="line"/>
    </contour>
  </outline>
</glyph>
<glyph name="section" format="2">
  <advance width="421"/>
  <unicode hex="00A7"/>
  <outline>
    <contour>
      <point x="254" y="209" type="curve"/>
      <point x="276" y="194" type="line"/>
      <point x="315" y="215"/>
      <point x="341" y="270"/>
      <point x="341" y="331" type="curve" smooth="yes"/>
      <point x="341" y="387"/>
      <point x="320" y="416"/>
      <point x="247" y="459" type="curve" smooth="yes"/>
      <point x="198" y="488" type="line" smooth="yes"/>
      <point x="158" y="511"/>
      <point x="136" y="550"/>
      <point x="136" y="596" type="curve" smooth="yes"/>
      <point x="136" y="647"/>
      <point x="167" y="679"/>
      <point x="217" y="679" type="curve" smooth="yes"/>
      <point x="227" y="679"/>
      <point x="238" y="678"/>
      <point x="260" y="675" type="curve"/>
      <point x="280" y="574" type="line"/>
      <point x="288" y="572" type="line"/>
      <point x="312" y="691" type="line"/>
      <point x="291" y="696"/>
      <point x="247" y="701"/>
      <point x="220" y="701" type="curve" smooth="yes"/>
      <point x="147" y="701"/>
      <point x="107" y="662"/>
      <point x="107" y="590" type="curve" smooth="yes"/>
      <point x="107" y="533"/>
      <point x="132" y="490"/>
      <point x="186" y="458" type="curve" smooth="yes"/>
      <point x="235" y="428" type="line" smooth="yes"/>
      <point x="293" y="392"/>
      <point x="311" y="367"/>
      <point x="311" y="321" type="curve" smooth="yes"/>
      <point x="311" y="272"/>
      <point x="287" y="225"/>
    </contour>
    <contour>
      <point x="179" y="477" type="curve"/>
      <point x="156" y="493" type="line"/>
      <point x="113" y="476"/>
      <point x="87" y="434"/>
      <point x="87" y="381" type="curve" smooth="yes"/>
      <point x="87" y="329"/>
      <point x="112" y="290"/>
      <point x="166" y="257" type="curve" smooth="yes"/>
      <point x="215" y="227" type="line" smooth="yes"/>
      <point x="271" y="193"/>
      <point x="291" y="162"/>
      <point x="291" y="112" type="curve" smooth="yes"/>
      <point x="291" y="52"/>
      <point x="254" y="5"/>
      <point x="205" y="3" type="curve" smooth="yes"/>
      <point x="185" y="2"/>
      <point x="156" y="9"/>
      <point x="133" y="20" type="curve"/>
      <point x="113" y="163" type="line"/>
      <point x="105" y="166" type="line"/>
      <point x="80" y="7" type="line"/>
      <point x="107" y="-9"/>
      <point x="157" y="-20"/>
      <point x="197" y="-20" type="curve" smooth="yes"/>
      <point x="271" y="-20"/>
      <point x="321" y="38"/>
      <point x="321" y="122" type="curve" smooth="yes"/>
      <point x="321" y="181"/>
      <point x="297" y="216"/>
      <point x="227" y="258" type="curve" smooth="yes"/>
      <point x="178" y="287" type="line" smooth="yes"/>
      <point x="136" y="312"/>
      <point x="116" y="345"/>
      <point x="116" y="387" type="curve" smooth="yes"/>
      <point x="116" y="431"/>
      <point x="141" y="467"/>
    </contour>
  </outline>
</glyph>
<glyph name="copyright" format="2">
  <advance width="605"/>
  <unicode hex="00A9"/>
  <outline>
    <contour>
      <point x="297" y="-20" type="curve" smooth="yes"/>
      <point x="152" y="-20"/>
      <point x="60" y="102"/>
      <point x="60" y="294" type="curve" smooth="yes"/>
      <point x="60" y="491"/>
      <point x="159" y="620"/>
      <point x="310" y="620" type="curve" smooth="yes"/>
      <point x="453" y="620"/>
      <point x="545" y="498"/>
      <point x="545" y="306" type="curve" smooth="yes"/>
      <point x="545" y="109"/>
      <point x="447" y="-20"/>
    </contour>
    <contour>
      <point x="302" y="592" type="curve" smooth="yes"/>
      <point x="172" y="592"/>
      <point x="91" y="480"/>
      <point x="91" y="302" type="curve" smooth="yes"/>
      <point x="91" y="124"/>
      <point x="176" y="7"/>
      <point x="305" y="7" type="curve" smooth="yes"/>
      <point x="434" y="7"/>
      <point x="515" y="120"/>
      <point x="515" y="298" type="curve" smooth="yes"/>
      <point x="515" y="479"/>
      <point x="433" y="592"/>
    </contour>
    <contour>
      <point x="199" y="286" type="curve" smooth="yes"/>
      <point x="199" y="182"/>
      <point x="233" y="127"/>
      <point x="298" y="127" type="curve" smooth="yes"/>
      <point x="339" y="127"/>
      <point x="375" y="153"/>
      <point x="398" y="199" type="curve"/>
      <point x="390" y="205" type="line"/>
      <point x="371" y="174"/>
      <point x="340" y="155"/>
      <point x="308" y="155" type="curve" smooth="yes"/>
      <point x="259" y="155"/>
      <point x="230" y="208"/>
      <point x="230" y="298" type="curve" smooth="yes"/>
      <point x="230" y="396"/>
      <point x="258" y="450"/>
      <point x="307" y="450" type="curve" smooth="yes"/>
      <point x="317" y="450"/>
      <point x="327" y="448"/>
      <point x="332" y="445" type="curve"/>
      <point x="344" y="349" type="line"/>
      <point x="352" y="347" type="line"/>
      <point x="379" y="461" type="line"/>
      <point x="358" y="469"/>
      <point x="333" y="474"/>
      <point x="313" y="474" type="curve" smooth="yes"/>
      <point x="242" y="474"/>
      <point x="199" y="404"/>
    </contour>
  </outline>
</glyph>
<glyph name="logicalnot" format="2">
	<advance width="454"/>
	<unicode hex="00AC"/>
	<outline>
		<contour>
			<point x="69" y="354" type="line"/>
			<point x="69" y="329" type="line"/>
			<point x="356" y="329" type="line"/>
			<point x="356" y="182" type="line"/>
			<point x="385" y="182" type="line"/>
			<point x="385" y="354" type="line"/>
		</contour>
	</outline>
</glyph>
<glyph name="registered" format="2">
  <advance width="605"/>
  <unicode hex="00AE"/>
  <outline>
    <contour>
      <point x="297" y="-20" type="curve" smooth="yes"/>
      <point x="152" y="-20"/>
      <point x="60" y="102"/>
      <point x="60" y="294" type="curve" smooth="yes"/>
      <point x="60" y="491"/>
      <point x="159" y="620"/>
      <point x="310" y="620" type="curve" smooth="yes"/>
      <point x="453" y="620"/>
      <point x="545" y="498"/>
      <point x="545" y="306" type="curve" smooth="yes"/>
      <point x="545" y="109"/>
      <point x="447" y="-20"/>
    </contour>
    <contour>
      <point x="302" y="592" type="curve" smooth="yes"/>
      <point x="172" y="592"/>
      <point x="91" y="480"/>
      <point x="91" y="302" type="curve" smooth="yes"/>
      <point x="91" y="124"/>
      <point x="176" y="7"/>
      <point x="305" y="7" type="curve" smooth="yes"/>
      <point x="434" y="7"/>
      <point x="515" y="120"/>
      <point x="515" y="298" type="curve" smooth="yes"/>
      <point x="515" y="479"/>
      <point x="433" y="592"/>
    </contour>
    <contour>
      <point x="171" y="160" type="line"/>
      <point x="172" y="156" type="line"/>
      <point x="288" y="156" type="line"/>
      <point x="289" y="160" type="line"/>
      <point x="248" y="184" type="line"/>
      <point x="248" y="288" type="line"/>
      <point x="315" y="288" type="line" smooth="yes"/>
      <point x="361" y="288"/>
      <point x="393" y="329"/>
      <point x="393" y="377" type="curve" smooth="yes"/>
      <point x="393" y="433"/>
      <point x="363" y="464"/>
      <point x="310" y="464" type="curve" smooth="yes"/>
      <point x="172" y="464" type="line"/>
      <point x="171" y="460" type="line"/>
      <point x="218" y="437" type="line"/>
      <point x="218" y="184" type="line"/>
    </contour>
    <contour>
      <point x="248" y="310" type="line"/>
      <point x="248" y="443" type="line"/>
      <point x="295" y="445" type="line" smooth="yes"/>
      <point x="339" y="447"/>
      <point x="363" y="420"/>
      <point x="363" y="370" type="curve" smooth="yes"/>
      <point x="363" y="325"/>
      <point x="337" y="306"/>
      <point x="290" y="308" type="curve" smooth="yes"/>
    </contour>
    <contour>
      <point x="334" y="297" type="line"/>
      <point x="304" y="297" type="line"/>
      <point x="362" y="184" type="line"/>
      <point x="316" y="160" type="line"/>
      <point x="317" y="156" type="line"/>
      <point x="434" y="156" type="line"/>
      <point x="435" y="160" type="line"/>
      <point x="393" y="184" type="line"/>
    </contour>
  </outline>
</glyph>
<glyph name="degree" format="2">
	<advance width="293"/>
	<unicode hex="00B0"/>
	<outline>
		<contour>
			<point x="147" y="327" type="curve" smooth="yes"/>
			<point x="211" y="326"/>
			<point x="253" y="385"/>
			<point x="253" y="474" type="curve" smooth="yes"/>
			<point x="253" y="562"/>
			<point x="211" y="620"/>
			<point x="147" y="620" type="curve" smooth="yes"/>
			<point x="83" y="620"/>
			<point x="40" y="562"/>
			<point x="40" y="474" type="curve" smooth="yes"/>
			<point x="40" y="386"/>
			<point x="83" y="327"/>
		</contour>
		<contour>
			<point x="147" y="358" type="curve" smooth="yes"/>
			<point x="102" y="357"/>
			<point x="72" y="403"/>
			<point x="72" y="474" type="curve" smooth="yes"/>
			<point x="72" y="544"/>
			<point x="102" y="590"/>
			<point x="147" y="589" type="curve" smooth="yes"/>
			<point x="191" y="588"/>
			<point x="221" y="542"/>
			<point x="221" y="474" type="curve" smooth="yes"/>
			<point x="221" y="405"/>
			<point x="191" y="359"/>
		</contour>
	</outline>
</glyph>
<glyph name="plusminus" format="2">
  <advance width="463"/>
  <unicode hex="00B1"/>
  <outline>
    <contour>
      <point x="79" y="263" type="line"/>
      <point x="218" y="263" type="line"/>
      <point x="218" y="140" type="line"/>
      <point x="245" y="140" type="line"/>
      <point x="245" y="262" type="line"/>
      <point x="384" y="262" type="line"/>
      <point x="384" y="287" type="line"/>
      <point x="245" y="287" type="line"/>
      <point x="245" y="410" type="line"/>
      <point x="219" y="410" type="line"/>
      <point x="219" y="287" type="line"/>
      <point x="79" y="287" type="line"/>
    </contour>
    <contour>
      <point x="70" y="84" type="line"/>
      <point x="70" y="60" type="line"/>
      <point x="394" y="60" type="line"/>
      <point x="394" y="84" type="line"/>
    </contour>
  </outline>
</glyph>
<glyph name="twosuperior" format="2">
	<advance width="227"/>
	<unicode hex="00B2"/>
	<outline>
		<contour>
			<point x="48" y="606" type="curve"/>
			<point x="70" y="496" type="line"/>
			<point x="75" y="497" type="line"/>
			<point x="88" y="593" type="line"/>
			<point x="95" y="595"/>
			<point x="100" y="595"/>
			<point x="111" y="595" type="curve" smooth="yes"/>
			<point x="147" y="595"/>
			<point x="173" y="573"/>
			<point x="173" y="530" type="curve" smooth="yes"/>
			<point x="172" y="449"/>
			<point x="84" y="348"/>
			<point x="9" y="263" type="curve"/>
			<point x="22" y="248" type="line"/>
			<point x="216" y="248" type="line"/>
			<point x="204" y="376" type="line"/>
			<point x="199" y="375" type="line"/>
			<point x="179" y="274" type="line"/>
			<point x="17" y="269" type="line"/>
			<point x="31" y="256" type="line"/>
			<point x="138" y="362"/>
			<point x="204" y="453"/>
			<point x="203" y="534" type="curve" smooth="yes"/>
			<point x="203" y="589"/>
			<point x="164" y="620"/>
			<point x="112" y="620" type="curve" smooth="yes"/>
			<point x="90" y="620"/>
			<point x="75" y="618"/>
		</contour>
	</outline>
</glyph>
<glyph name="threesuperior" format="2">
  <advance width="236"/>
  <unicode hex="00B3"/>
  <outline>
    <contour>
      <point x="119" y="437" type="curve" smooth="yes"/>
      <point x="160" y="437"/>
      <point x="192" y="402"/>
      <point x="192" y="357" type="curve" smooth="yes"/>
      <point x="192" y="298"/>
      <point x="156" y="258"/>
      <point x="102" y="258" type="curve" smooth="yes"/>
      <point x="84" y="258"/>
      <point x="60" y="261"/>
      <point x="53" y="265" type="curve"/>
      <point x="44" y="352" type="line"/>
      <point x="40" y="353" type="line"/>
      <point x="13" y="243" type="line"/>
      <point x="27" y="238"/>
      <point x="69" y="233"/>
      <point x="93" y="233" type="curve" smooth="yes"/>
      <point x="166" y="233"/>
      <point x="224" y="290"/>
      <point x="224" y="362" type="curve" smooth="yes"/>
      <point x="224" y="421"/>
      <point x="187" y="460"/>
      <point x="130" y="460" type="curve" smooth="yes"/>
      <point x="106" y="460"/>
      <point x="84" y="453"/>
      <point x="69" y="441" type="curve"/>
      <point x="78" y="430" type="line"/>
      <point x="202" y="590" type="line"/>
      <point x="190" y="605" type="line"/>
      <point x="6" y="612" type="line"/>
      <point x="34" y="492" type="line"/>
      <point x="38" y="493" type="line"/>
      <point x="52" y="587" type="line"/>
      <point x="182" y="588" type="line"/>
      <point x="184" y="602" type="line"/>
      <point x="56" y="435" type="line"/>
      <point x="67" y="418" type="line"/>
      <point x="81" y="430"/>
      <point x="100" y="437"/>
    </contour>
  </outline>
</glyph>
<glyph name="paragraph" format="2">
  <advance width="417"/>
  <unicode hex="00B6"/>
  <outline>
    <contour>
      <point x="347" y="8" type="line"/>
      <point x="241" y="45" type="line"/>
      <point x="241" y="645" type="line"/>
      <point x="347" y="682" type="line"/>
      <point x="345" y="690" type="line"/>
      <point x="142" y="690" type="line" smooth="yes"/>
      <point x="78" y="690"/>
      <point x="30" y="625"/>
      <point x="30" y="539" type="curve" smooth="yes"/>
      <point x="30" y="434"/>
      <point x="66" y="375"/>
      <point x="132" y="372" type="curve" smooth="yes"/>
      <point x="153" y="371" type="line"/>
      <point x="153" y="45" type="line"/>
      <point x="47" y="8" type="line"/>
      <point x="49" y="0" type="line"/>
      <point x="345" y="0" type="line"/>
    </contour>
    <contour>
      <point x="180" y="645" type="line"/>
      <point x="216" y="645" type="line"/>
      <point x="216" y="45" type="line"/>
      <point x="180" y="45" type="line"/>
    </contour>
  </outline>
</glyph>
<glyph name="onesuperior" format="2">
	<advance width="165"/>
	<unicode hex="00B9"/>
	<outline>
		<contour>
			<point x="12" y="538" type="line"/>
			<point x="69" y="552" type="line"/>
			<point x="69" y="285" type="line"/>
			<point x="15" y="253" type="line"/>
			<point x="16" y="248" type="line"/>
			<point x="152" y="248" type="line"/>
			<point x="153" y="253" type="line"/>
			<point x="99" y="285" type="line"/>
			<point x="98" y="620" type="line"/>
			<point x="11" y="543" type="line"/>
		</contour>
	</outline>
</glyph>
<glyph name="onequarter" format="2">
  <advance width="752"/>
  <unicode hex="00BC"/>
  <outline>
    <contour>
      <point x="621" y="95" type="line"/>
      <point x="621" y="118" type="line"/>
      <point x="407" y="118" type="line"/>
      <point x="415" y="100" type="line"/>
      <point x="552" y="357" type="line"/>
      <point x="536" y="355" type="line"/>
      <point x="536" y="36" type="line"/>
      <point x="455" y="5" type="line"/>
      <point x="457" y="0" type="line"/>
      <point x="630" y="0" type="line"/>
      <point x="632" y="5" type="line"/>
      <point x="566" y="36" type="line"/>
      <point x="566" y="324" type="line"/>
      <point x="632" y="355" type="line"/>
      <point x="630" y="360" type="line"/>
      <point x="524" y="360" type="line"/>
      <point x="391" y="110" type="line"/>
      <point x="414" y="95" type="line"/>
    </contour>
    <component base="onesuperior" xOffset="109" identifier="D04F4B0D"/>
    <component base="fraction" xOffset="197" identifier="F21A29A7"/>
  </outline>
</glyph>
<glyph name="threequarters" format="2">
	<advance width="828"/>
	<unicode hex="00BE"/>
	<outline>
		<contour>
			<point x="697" y="95" type="line"/>
			<point x="697" y="118" type="line"/>
			<point x="483" y="118" type="line"/>
			<point x="491" y="100" type="line"/>
			<point x="628" y="357" type="line"/>
			<point x="612" y="355" type="line"/>
			<point x="612" y="36" type="line"/>
			<point x="531" y="5" type="line"/>
			<point x="533" y="0" type="line"/>
			<point x="706" y="0" type="line"/>
			<point x="708" y="5" type="line"/>
			<point x="642" y="36" type="line"/>
			<point x="642" y="324" type="line"/>
			<point x="708" y="355" type="line"/>
			<point x="706" y="360" type="line"/>
			<point x="600" y="360" type="line"/>
			<point x="467" y="110" type="line"/>
			<point x="490" y="95" type="line"/>
		</contour>
		<component base="fraction" xOffset="259"/>
		<component base="threesuperior" xOffset="114"/>
	</outline>
</glyph>
<glyph name="AE" format="2">
	<advance width="735"/>
	<unicode hex="00C6"/>
	<anchor x="422" y="600" name="top"/>
	<outline>
		<contour>
			<point x="88" y="44" type="line"/>
			<point x="396" y="575" type="line"/>
			<point x="373" y="575" type="line"/>
			<point x="373" y="45" type="line"/>
			<point x="243" y="10" type="line"/>
			<point x="245" y="0" type="line"/>
			<point x="675" y="0" type="line"/>
			<point x="654" y="198" type="line"/>
			<point x="646" y="196" type="line"/>
			<point x="609" y="30" type="line"/>
			<point x="408" y="25" type="line"/>
			<point x="408" y="279" type="line"/>
			<point x="507" y="279" type="line"/>
			<point x="567" y="156" type="line"/>
			<point x="575" y="158" type="line"/>
			<point x="556" y="292" type="line"/>
			<point x="573" y="429" type="line"/>
			<point x="565" y="433" type="line"/>
			<point x="507" y="309" type="line"/>
			<point x="408" y="309" type="line"/>
			<point x="408" y="579" type="line"/>
			<point x="605" y="575" type="line"/>
			<point x="625" y="423" type="line"/>
			<point x="633" y="421" type="line"/>
			<point x="672" y="612" type="line"/>
			<point x="247" y="600" type="line"/>
			<point x="245" y="592" type="line"/>
			<point x="366" y="554" type="line"/>
			<point x="355" y="574" type="line"/>
			<point x="50" y="44" type="line"/>
			<point x="-20" y="9" type="line"/>
			<point x="-18" y="0" type="line"/>
			<point x="206" y="0" type="line"/>
			<point x="208" y="9" type="line"/>
		</contour>
		<contour>
			<point x="178" y="232" type="line"/>
			<point x="159" y="202" type="line"/>
			<point x="395" y="202" type="line"/>
			<point x="395" y="232" type="line"/>
		</contour>
	</outline>
</glyph>
<glyph name="Eth" format="2">
  <advance width="521"/>
  <unicode hex="00D0"/>
  <outline>
    <contour>
      <point x="290" y="315" type="line"/>
      <point x="30" y="315" type="line"/>
      <point x="30" y="285" type="line"/>
      <point x="290" y="285" type="line"/>
    </contour>
    <component base="D" identifier="0D845E2D"/>
  </outline>
</glyph>
<glyph name="multiply" format="2">
	<advance width="417"/>
	<unicode hex="00D7"/>
	<outline>
		<contour>
			<point x="88" y="419" type="line"/>
			<point x="71" y="402" type="line"/>
			<point x="192" y="280" type="line"/>
			<point x="69" y="160" type="line"/>
			<point x="87" y="141" type="line"/>
			<point x="209" y="263" type="line"/>
			<point x="330" y="141" type="line"/>
			<point x="347" y="159" type="line"/>
			<point x="226" y="280" type="line"/>
			<point x="348" y="401" type="line"/>
			<point x="331" y="419" type="line"/>
			<point x="209" y="298" type="line"/>
		</contour>
	</outline>
</glyph>
<glyph name="Oslash" format="2">
  <advance width="500"/>
  <unicode hex="00D8"/>
  <outline>
    <contour>
      <point x="372" y="669" type="line"/>
      <point x="123" y="-62" type="line"/>
      <point x="158" y="-62" type="line"/>
      <point x="407" y="669" type="line"/>
    </contour>
    <component base="O" identifier="49D70FAF"/>
  </outline>
</glyph>
<glyph name="Thorn" format="2">
  <advance width="473"/>
  <unicode hex="00DE"/>
  <outline>
    <contour>
      <point x="20" y="8" type="line"/>
      <point x="22" y="0" type="line"/>
      <point x="279" y="0" type="line"/>
      <point x="281" y="8" type="line"/>
      <point x="171" y="45" type="line"/>
      <point x="171" y="136" type="line"/>
      <point x="265" y="137" type="line" smooth="yes"/>
      <point x="363" y="138"/>
      <point x="433" y="208"/>
      <point x="433" y="305" type="curve" smooth="yes"/>
      <point x="433" y="402"/>
      <point x="364" y="479"/>
      <point x="276" y="479" type="curve" smooth="yes"/>
      <point x="171" y="479" type="line"/>
      <point x="171" y="555" type="line"/>
      <point x="286" y="592" type="line"/>
      <point x="284" y="600" type="line"/>
      <point x="28" y="600" type="line"/>
      <point x="26" y="592" type="line"/>
      <point x="136" y="555" type="line"/>
      <point x="136" y="45" type="line"/>
    </contour>
    <contour>
      <point x="171" y="169" type="line"/>
      <point x="171" y="449" type="line"/>
      <point x="264" y="453" type="line" smooth="yes"/>
      <point x="343" y="456"/>
      <point x="398" y="388"/>
      <point x="398" y="297" type="curve" smooth="yes"/>
      <point x="398" y="220"/>
      <point x="348" y="160"/>
      <point x="274" y="164" type="curve" smooth="yes"/>
    </contour>
  </outline>
</glyph>
<glyph name="germandbls" format="2">
  <advance width="445"/>
  <unicode hex="00DF"/>
  <outline>
    <contour>
      <point x="101" y="480" type="curve" smooth="yes"/>
      <point x="101" y="407" type="line"/>
      <point x="-9" y="375" type="line"/>
      <point x="-7" y="367" type="line"/>
      <point x="101" y="367" type="line"/>
      <point x="101" y="47" type="line"/>
      <point x="-10" y="8" type="line"/>
      <point x="-8" y="0" type="line"/>
      <point x="136" y="0" type="line"/>
      <point x="136" y="504" type="line" smooth="yes"/>
      <point x="136" y="631"/>
      <point x="154" y="674"/>
      <point x="211" y="676" type="curve" smooth="yes"/>
      <point x="261" y="678"/>
      <point x="323" y="650"/>
      <point x="335" y="621" type="curve"/>
      <point x="326" y="658" type="line"/>
      <point x="207" y="338" type="line"/>
      <point x="235" y="328" type="line"/>
      <point x="247" y="348"/>
      <point x="272" y="359"/>
      <point x="298" y="359" type="curve" smooth="yes"/>
      <point x="353" y="359"/>
      <point x="388" y="289"/>
      <point x="388" y="174" type="curve" smooth="yes"/>
      <point x="388" y="63"/>
      <point x="355" y="7"/>
      <point x="293" y="7" type="curve" smooth="yes"/>
      <point x="277" y="7"/>
      <point x="254" y="11"/>
      <point x="244" y="16" type="curve"/>
      <point x="224" y="140" type="line"/>
      <point x="216" y="142" type="line"/>
      <point x="182" y="13" type="line"/>
      <point x="203" y="-5"/>
      <point x="251" y="-19"/>
      <point x="290" y="-19" type="curve" smooth="yes"/>
      <point x="373" y="-19"/>
      <point x="422" y="56"/>
      <point x="422" y="187" type="curve" smooth="yes"/>
      <point x="422" y="309"/>
      <point x="378" y="386"/>
      <point x="307" y="386" type="curve" smooth="yes"/>
      <point x="265" y="386"/>
      <point x="245" y="372"/>
      <point x="231" y="344" type="curve"/>
      <point x="245" y="354" type="line"/>
      <point x="359" y="648" type="line"/>
      <point x="339" y="677"/>
      <point x="274" y="702"/>
      <point x="216" y="702" type="curve" smooth="yes"/>
      <point x="129" y="702"/>
      <point x="101" y="647"/>
    </contour>
  </outline>
</glyph>
<glyph name="ae" format="2">
	<advance width="556"/>
	<unicode hex="00E6"/>
	<anchor x="275" y="392" name="top"/>
	<outline>
		<contour>
			<point x="65" y="114" type="curve" smooth="yes"/>
			<point x="65" y="180"/>
			<point x="97" y="214"/>
			<point x="158" y="214" type="curve" smooth="yes"/>
			<point x="188" y="214"/>
			<point x="230" y="207"/>
			<point x="244" y="198" type="curve"/>
			<point x="244" y="61" type="line"/>
			<point x="225" y="27"/>
			<point x="194" y="7"/>
			<point x="160" y="7" type="curve" smooth="yes"/>
			<point x="99" y="7"/>
			<point x="65" y="45"/>
		</contour>
		<contour>
			<point x="167" y="412" type="curve" smooth="yes"/>
			<point x="130" y="412"/>
			<point x="83" y="399"/>
			<point x="51" y="378" type="curve"/>
			<point x="89" y="279" type="line"/>
			<point x="97" y="281" type="line"/>
			<point x="98" y="373" type="line"/>
			<point x="112" y="381"/>
			<point x="141" y="386"/>
			<point x="166" y="386" type="curve" smooth="yes"/>
			<point x="229" y="386"/>
			<point x="246" y="355"/>
			<point x="245" y="224" type="curve"/>
			<point x="213" y="236"/>
			<point x="186" y="240"/>
			<point x="162" y="240" type="curve" smooth="yes"/>
			<point x="78" y="240"/>
			<point x="29" y="193"/>
			<point x="29" y="109" type="curve" smooth="yes"/>
			<point x="29" y="29"/>
			<point x="74" y="-20"/>
			<point x="146" y="-20" type="curve" smooth="yes"/>
			<point x="204" y="-20"/>
			<point x="252" y="13"/>
			<point x="280" y="73" type="curve"/>
			<point x="260" y="68" type="line"/>
			<point x="290" y="9"/>
			<point x="336" y="-20"/>
			<point x="395" y="-20" type="curve" smooth="yes"/>
			<point x="446" y="-20"/>
			<point x="484" y="1"/>
			<point x="517" y="57" type="curve"/>
			<point x="505" y="65" type="line"/>
			<point x="475" y="24"/>
			<point x="445" y="6"/>
			<point x="405" y="6" type="curve" smooth="yes"/>
			<point x="324" y="6"/>
			<point x="281" y="80"/>
			<point x="278" y="210" type="curve" smooth="yes"/>
			<point x="275" y="338"/>
			<point x="317" y="386"/>
			<point x="388" y="386" type="curve" smooth="yes"/>
			<point x="457" y="386"/>
			<point x="478" y="342"/>
			<point x="482" y="227" type="curve"/>
			<point x="266" y="222" type="line"/>
			<point x="268" y="201" type="line"/>
			<point x="517" y="204" type="line"/>
			<point x="515" y="352"/>
			<point x="479" y="412"/>
			<point x="395" y="412" type="curve" smooth="yes"/>
			<point x="326" y="412"/>
			<point x="281" y="373"/>
			<point x="259" y="296" type="curve"/>
			<point x="277" y="289" type="line"/>
			<point x="270" y="381"/>
			<point x="235" y="412"/>
		</contour>
	</outline>
</glyph>
<glyph name="eth" format="2">
	<advance width="384"/>
	<unicode hex="00F0"/>
	<outline>
		<contour>
			<point x="104" y="500" type="line"/>
			<point x="119" y="480" type="line"/>
			<point x="363" y="630" type="line"/>
			<point x="346" y="651" type="line"/>
		</contour>
		<contour>
			<point x="116" y="702" type="curve"/>
			<point x="108" y="690" type="line"/>
			<point x="230" y="609"/>
			<point x="307" y="425"/>
			<point x="307" y="212" type="curve" smooth="yes"/>
			<point x="307" y="80"/>
			<point x="268" y="6"/>
			<point x="196" y="6" type="curve" smooth="yes"/>
			<point x="115" y="6"/>
			<point x="69" y="82"/>
			<point x="69" y="210" type="curve" smooth="yes"/>
			<point x="69" y="325"/>
			<point x="108" y="386"/>
			<point x="182" y="386" type="curve" smooth="yes"/>
			<point x="242" y="386"/>
			<point x="291" y="345"/>
			<point x="314" y="272" type="curve"/>
			<point x="327" y="313" type="line"/>
			<point x="304" y="377"/>
			<point x="256" y="412"/>
			<point x="189" y="412" type="curve" smooth="yes"/>
			<point x="91" y="412"/>
			<point x="34" y="336"/>
			<point x="34" y="202" type="curve" smooth="yes"/>
			<point x="34" y="62"/>
			<point x="91" y="-20"/>
			<point x="188" y="-20" type="curve" smooth="yes"/>
			<point x="287" y="-20"/>
			<point x="345" y="66"/>
			<point x="345" y="219" type="curve" smooth="yes"/>
			<point x="345" y="431"/>
			<point x="251" y="629"/>
		</contour>
	</outline>
</glyph>
<glyph name="divide" format="2">
  <advance width="463"/>
  <unicode hex="00F7"/>
  <outline>
    <contour>
      <point x="211" y="428" type="line"/>
      <point x="211" y="356" type="line"/>
      <point x="252" y="356" type="line"/>
      <point x="252" y="428" type="line"/>
    </contour>
    <contour>
      <point x="211" y="132" type="line"/>
      <point x="252" y="132" type="line"/>
      <point x="252" y="204" type="line"/>
      <point x="211" y="204" type="line"/>
    </contour>
    <contour>
      <point x="69" y="293" type="line"/>
      <point x="69" y="267" type="line"/>
      <point x="394" y="268" type="line"/>
      <point x="394" y="293" type="line"/>
    </contour>
  </outline>
</glyph>
<glyph name="oslash" format="2">
	<advance width="383"/>
	<unicode hex="00F8"/>
	<anchor x="189" y="392" name="top"/>
	<outline>
		<contour>
			<point x="34" y="194" type="curve" smooth="yes"/>
			<point x="34" y="114"/>
			<point x="53" y="53"/>
			<point x="88" y="17" type="curve"/>
			<point x="55" y="-55" type="line"/>
			<point x="85" y="-55" type="line"/>
			<point x="110" y="0" type="line"/>
			<point x="132" y="-13"/>
			<point x="156" y="-20"/>
			<point x="185" y="-20" type="curve" smooth="yes"/>
			<point x="286" y="-20"/>
			<point x="344" y="59"/>
			<point x="344" y="199" type="curve" smooth="yes"/>
			<point x="344" y="282"/>
			<point x="324" y="344"/>
			<point x="286" y="378" type="curve"/>
			<point x="318" y="447" type="line"/>
			<point x="288" y="447" type="line"/>
			<point x="264" y="395" type="line"/>
			<point x="244" y="406"/>
			<point x="222" y="412"/>
			<point x="194" y="412" type="curve" smooth="yes"/>
			<point x="91" y="412"/>
			<point x="34" y="333"/>
		</contour>
		<contour>
			<point x="69" y="202" type="curve" smooth="yes"/>
			<point x="69" y="322"/>
			<point x="109" y="386"/>
			<point x="185" y="386" type="curve" smooth="yes"/>
			<point x="210" y="386"/>
			<point x="231" y="380"/>
			<point x="250" y="365" type="curve"/>
			<point x="105" y="51" type="line"/>
			<point x="81" y="84"/>
			<point x="69" y="135"/>
		</contour>
		<contour>
			<point x="125" y="30" type="curve"/>
			<point x="271" y="346" type="line"/>
			<point x="295" y="313"/>
			<point x="309" y="261"/>
			<point x="309" y="191" type="curve" smooth="yes"/>
			<point x="309" y="71"/>
			<point x="269" y="6"/>
			<point x="193" y="6" type="curve" smooth="yes"/>
			<point x="169" y="6"/>
			<point x="145" y="13"/>
		</contour>
	</outline>
</glyph>
<glyph name="thorn" format="2">
  <advance width="397"/>
  <unicode hex="00FE"/>
  <outline>
    <contour>
      <point x="95" y="37" type="curve"/>
      <point x="95" y="327" type="line"/>
      <point x="119" y="365"/>
      <point x="158" y="385"/>
      <point x="198" y="385" type="curve" smooth="yes"/>
      <point x="273" y="385"/>
      <point x="323" y="310"/>
      <point x="323" y="188" type="curve" smooth="yes"/>
      <point x="323" y="73"/>
      <point x="277" y="7"/>
      <point x="195" y="7" type="curve" smooth="yes"/>
      <point x="161" y="7"/>
      <point x="122" y="19"/>
    </contour>
    <contour>
      <point x="-50" y="631" type="line"/>
      <point x="-46" y="623" type="line"/>
      <point x="61" y="629" type="line"/>
      <point x="61" y="-185" type="line"/>
      <point x="-46" y="-224" type="line"/>
      <point x="-44" y="-232" type="line"/>
      <point x="203" y="-232" type="line"/>
      <point x="205" y="-224" type="line"/>
      <point x="95" y="-185" type="line"/>
      <point x="95" y="6" type="line"/>
      <point x="125" y="-11"/>
      <point x="161" y="-20"/>
      <point x="192" y="-20" type="curve" smooth="yes"/>
      <point x="290" y="-20"/>
      <point x="358" y="50"/>
      <point x="358" y="202" type="curve" smooth="yes"/>
      <point x="358" y="336"/>
      <point x="299" y="412"/>
      <point x="204" y="412" type="curve" smooth="yes"/>
      <point x="156" y="412"/>
      <point x="118" y="392"/>
      <point x="95" y="364" type="curve"/>
      <point x="95" y="702" type="line"/>
    </contour>
  </outline>
</glyph>
<glyph name="idotless" format="2">
	<advance width="318"/>
	<unicode hex="0131"/>
	<anchor x="175" y="10" name="ogonek"/>
	<anchor x="167" y="392" name="top"/>
	<outline>
		<contour>
			<point x="184" y="47" type="line"/>
			<point x="184" y="412" type="line"/>
			<point x="39" y="345" type="line"/>
			<point x="41" y="337" type="line"/>
			<point x="150" y="345" type="line"/>
			<point x="150" y="47" type="line"/>
			<point x="40" y="8" type="line"/>
			<point x="42" y="0" type="line"/>
			<point x="292" y="0" type="line"/>
			<point x="294" y="8" type="line"/>
		</contour>
	</outline>
</glyph>
<glyph name="Lslash" format="2">
  <advance width="477"/>
  <unicode hex="0141"/>
  <outline>
    <contour>
      <point x="421" y="443" type="line"/>
      <point x="397" y="472" type="line"/>
      <point x="20" y="156" type="line"/>
      <point x="44" y="127" type="line"/>
    </contour>
    <component base="L" xOffset="16" identifier="A444DEF7"/>
  </outline>
</glyph>
<glyph name="lslash" format="2">
  <advance width="276"/>
  <unicode hex="0142"/>
  <outline>
    <contour>
      <point x="-12" y="279" type="line"/>
      <point x="2" y="256" type="line"/>
      <point x="312" y="420" type="line"/>
      <point x="299" y="444" type="line"/>
    </contour>
    <component base="l" xOffset="30" identifier="847CD16A"/>
  </outline>
</glyph>
<glyph name="OE" format="2">
	<advance width="702"/>
	<unicode hex="0152"/>
	<anchor x="367" y="0" name="bottom"/>
	<anchor x="367" y="600" name="top"/>
	<outline>
		<contour>
			<point x="82" y="316" type="curve" smooth="yes"/>
			<point x="82" y="491"/>
			<point x="142" y="588"/>
			<point x="250" y="588" type="curve" smooth="yes"/>
			<point x="283" y="588"/>
			<point x="311" y="578"/>
			<point x="335" y="559" type="curve"/>
			<point x="335" y="36" type="line"/>
			<point x="313" y="20"/>
			<point x="287" y="12"/>
			<point x="257" y="12" type="curve" smooth="yes"/>
			<point x="145" y="12"/>
			<point x="82" y="121"/>
		</contour>
		<contour>
			<point x="45" y="303" type="curve" smooth="yes"/>
			<point x="45" y="95"/>
			<point x="118" y="-20"/>
			<point x="250" y="-20" type="curve" smooth="yes"/>
			<point x="282" y="-20"/>
			<point x="310" y="-13"/>
			<point x="335" y="0" type="curve"/>
			<point x="642" y="0" type="line"/>
			<point x="621" y="198" type="line"/>
			<point x="613" y="196" type="line"/>
			<point x="576" y="30" type="line"/>
			<point x="370" y="25" type="line"/>
			<point x="370" y="279" type="line"/>
			<point x="467" y="279" type="line"/>
			<point x="527" y="156" type="line"/>
			<point x="535" y="158" type="line"/>
			<point x="516" y="292" type="line"/>
			<point x="533" y="429" type="line"/>
			<point x="525" y="433" type="line"/>
			<point x="467" y="309" type="line"/>
			<point x="370" y="309" type="line"/>
			<point x="370" y="579" type="line"/>
			<point x="572" y="575" type="line"/>
			<point x="592" y="423" type="line"/>
			<point x="600" y="421" type="line"/>
			<point x="639" y="612" type="line"/>
			<point x="339" y="600" type="line"/>
			<point x="314" y="613"/>
			<point x="286" y="620"/>
			<point x="255" y="620" type="curve" smooth="yes"/>
			<point x="120" y="620"/>
			<point x="45" y="507"/>
		</contour>
	</outline>
</glyph>
<glyph name="oe" format="2">
	<advance width="604"/>
	<unicode hex="0153"/>
	<outline>
		<contour>
			<point x="176" y="-20" type="curve" smooth="yes"/>
			<point x="245" y="-20"/>
			<point x="300" y="26"/>
			<point x="319" y="121" type="curve"/>
			<point x="300" y="120" type="line"/>
			<point x="317" y="32"/>
			<point x="373" y="-20"/>
			<point x="444" y="-20" type="curve" smooth="yes"/>
			<point x="491" y="-20"/>
			<point x="529" y="3"/>
			<point x="563" y="57" type="curve"/>
			<point x="551" y="65" type="line"/>
			<point x="522" y="27"/>
			<point x="492" y="6"/>
			<point x="453" y="6" type="curve" smooth="yes"/>
			<point x="377" y="6"/>
			<point x="329" y="92"/>
			<point x="326" y="210" type="curve" smooth="yes"/>
			<point x="323" y="312"/>
			<point x="363" y="386"/>
			<point x="437" y="386" type="curve" smooth="yes"/>
			<point x="495" y="386"/>
			<point x="524" y="340"/>
			<point x="528" y="227" type="curve"/>
			<point x="314" y="222" type="line"/>
			<point x="316" y="201" type="line"/>
			<point x="565" y="204" type="line"/>
			<point x="562" y="347"/>
			<point x="522" y="412"/>
			<point x="444" y="412" type="curve" smooth="yes"/>
			<point x="377" y="412"/>
			<point x="319" y="363"/>
			<point x="301" y="276" type="curve"/>
			<point x="320" y="275" type="line"/>
			<point x="303" y="365"/>
			<point x="256" y="412"/>
			<point x="185" y="412" type="curve" smooth="yes"/>
			<point x="89" y="412"/>
			<point x="34" y="333"/>
			<point x="34" y="194" type="curve" smooth="yes"/>
			<point x="34" y="57"/>
			<point x="85" y="-20"/>
		</contour>
		<contour>
			<point x="69" y="202" type="curve" smooth="yes"/>
			<point x="69" y="320"/>
			<point x="107" y="386"/>
			<point x="177" y="386" type="curve" smooth="yes"/>
			<point x="250" y="386"/>
			<point x="292" y="314"/>
			<point x="292" y="191" type="curve" smooth="yes"/>
			<point x="292" y="71"/>
			<point x="254" y="6"/>
			<point x="184" y="6" type="curve" smooth="yes"/>
			<point x="110" y="6"/>
			<point x="69" y="76"/>
		</contour>
	</outline>
</glyph>
<glyph name="Schwa" format="2">
	<advance width="488"/>
	<unicode hex="018F"/>
	<outline>
		<contour>
			<point x="419" y="279" type="line"/>
			<point x="418" y="303" type="line"/>
			<point x="45" y="310" type="line"/>
			<point x="45" y="90"/>
			<point x="107" y="-19"/>
			<point x="231" y="-19" type="curve" smooth="yes"/>
			<point x="363" y="-19"/>
			<point x="443" y="110"/>
			<point x="443" y="322" type="curve" smooth="yes"/>
			<point x="443" y="514"/>
			<point x="380" y="616"/>
			<point x="248" y="620" type="curve" smooth="yes"/>
			<point x="169" y="623"/>
			<point x="108" y="590"/>
			<point x="66" y="522" type="curve"/>
			<point x="84" y="509" type="line"/>
			<point x="128" y="564"/>
			<point x="175" y="589"/>
			<point x="233" y="587" type="curve" smooth="yes"/>
			<point x="346" y="583"/>
			<point x="407" y="475"/>
			<point x="407" y="292" type="curve" smooth="yes"/>
			<point x="407" y="116"/>
			<point x="345" y="11"/>
			<point x="241" y="11" type="curve" smooth="yes"/>
			<point x="145" y="11"/>
			<point x="95" y="101"/>
			<point x="95" y="275" type="curve"/>
		</contour>
	</outline>
</glyph>
<glyph name="florin" format="2">
	<advance width="335"/>
	<unicode hex="0192"/>
	<outline>
		<contour>
			<point x="163" y="-14" type="curve" smooth="yes"/>
			<point x="185" y="366" type="line"/>
			<point x="284" y="366" type="line"/>
			<point x="296" y="274" type="line"/>
			<point x="304" y="272" type="line"/>
			<point x="333" y="390" type="line"/>
			<point x="186" y="391" type="line"/>
			<point x="193" y="504" type="line" smooth="yes"/>
			<point x="201" y="637"/>
			<point x="216" y="674"/>
			<point x="269" y="676" type="curve" smooth="yes"/>
			<point x="292" y="677"/>
			<point x="323" y="671"/>
			<point x="347" y="662" type="curve"/>
			<point x="363" y="570" type="line"/>
			<point x="371" y="568" type="line"/>
			<point x="405" y="675" type="line"/>
			<point x="376" y="689"/>
			<point x="314" y="701"/>
			<point x="276" y="701" type="curve" smooth="yes"/>
			<point x="197" y="701"/>
			<point x="170" y="650"/>
			<point x="160" y="484" type="curve" smooth="yes"/>
			<point x="156" y="407" type="line"/>
			<point x="46" y="375" type="line"/>
			<point x="48" y="367" type="line"/>
			<point x="153" y="367" type="line"/>
			<point x="130" y="-34" type="line" smooth="yes"/>
			<point x="121" y="-188"/>
			<point x="115" y="-203"/>
			<point x="54" y="-206" type="curve" smooth="yes"/>
			<point x="5" y="-208"/>
			<point x="-56" y="-195"/>
			<point x="-102" y="-172" type="curve"/>
			<point x="-110" y="-184" type="line"/>
			<point x="-60" y="-214"/>
			<point x="-3" y="-231"/>
			<point x="47" y="-231" type="curve" smooth="yes"/>
			<point x="129" y="-231"/>
			<point x="153" y="-186"/>
		</contour>
	</outline>
</glyph>
<glyph name="jdotless" format="2">
	<advance width="252"/>
	<unicode hex="0237"/>
	<anchor x="154" y="402" name="top"/>
	<outline>
		<contour>
			<point x="28" y="355" type="line"/>
			<point x="30" y="347" type="line"/>
			<point x="139" y="355" type="line"/>
			<point x="139" y="9" type="line" smooth="yes"/>
			<point x="139" y="-113"/>
			<point x="118" y="-166"/>
			<point x="34" y="-239" type="curve"/>
			<point x="42" y="-251" type="line"/>
			<point x="132" y="-197"/>
			<point x="173" y="-127"/>
			<point x="173" y="9" type="curve" smooth="yes"/>
			<point x="173" y="422" type="line"/>
		</contour>
	</outline>
</glyph>
<glyph name="gravecomb" format="2">
  <advance width="266"/>
  <unicode hex="0300"/>
  <anchor x="137" y="390" name="_top"/>
  <outline>
    <contour>
      <point x="60" y="539" type="line"/>
      <point x="201" y="502" type="line"/>
      <point x="206" y="515" type="line"/>
      <point x="81" y="579" type="line"/>
    </contour>
  </outline>
</glyph>
<glyph name="circumflexcomb" format="2">
	<advance width="311"/>
	<unicode hex="0302"/>
	<anchor x="156" y="390" name="_top"/>
	<outline>
		<contour>
			<point x="156" y="609" type="line"/>
			<point x="67" y="519" type="line"/>
			<point x="74" y="510" type="line"/>
			<point x="156" y="563" type="line"/>
			<point x="237" y="510" type="line"/>
			<point x="244" y="519" type="line"/>
		</contour>
	</outline>
</glyph>
<glyph name="tildecomb" format="2">
	<advance width="332"/>
	<unicode hex="0303"/>
	<anchor x="166" y="391" name="_top"/>
	<outline>
		<contour>
			<point x="260" y="587" type="curve"/>
			<point x="245" y="590" type="line"/>
			<point x="238" y="565"/>
			<point x="223" y="550"/>
			<point x="205" y="550" type="curve" smooth="yes"/>
			<point x="177" y="550"/>
			<point x="173" y="589"/>
			<point x="131" y="589" type="curve" smooth="yes"/>
			<point x="105" y="589"/>
			<point x="79" y="574"/>
			<point x="73" y="515" type="curve"/>
			<point x="86" y="514" type="line"/>
			<point x="98" y="543"/>
			<point x="111" y="554"/>
			<point x="126" y="554" type="curve" smooth="yes"/>
			<point x="155" y="554"/>
			<point x="164" y="515"/>
			<point x="203" y="515" type="curve" smooth="yes"/>
			<point x="234" y="515"/>
			<point x="256" y="541"/>
		</contour>
	</outline>
</glyph>
<glyph name="macroncomb" format="2">
	<advance width="282"/>
	<unicode hex="0304"/>
	<anchor x="146" y="400" name="_top"/>
	<outline>
		<contour>
			<point x="60" y="576" type="line"/>
			<point x="60" y="546" type="line"/>
			<point x="222" y="546" type="line"/>
			<point x="222" y="576" type="line"/>
		</contour>
	</outline>
</glyph>
<glyph name="brevecomb" format="2">
  <advance width="285"/>
  <unicode hex="0306"/>
  <anchor x="143" y="391" name="_top"/>
  <outline>
    <contour>
      <point x="221" y="590" type="curve"/>
      <point x="200" y="590" type="line"/>
      <point x="196" y="553"/>
      <point x="183" y="526"/>
      <point x="143" y="526" type="curve" smooth="yes"/>
      <point x="102" y="526"/>
      <point x="89" y="552"/>
      <point x="85" y="590" type="curve"/>
      <point x="64" y="590" type="line"/>
      <point x="64" y="531"/>
      <point x="97" y="499"/>
      <point x="143" y="499" type="curve" smooth="yes"/>
      <point x="189" y="499"/>
      <point x="221" y="530"/>
    </contour>
  </outline>
</glyph>
<glyph name="dotaccentcomb" format="2">
  <advance width="161"/>
  <unicode hex="0307"/>
  <anchor x="81" y="390" name="_top"/>
  <outline>
    <contour>
      <point x="60" y="603" type="line"/>
      <point x="60" y="520" type="line"/>
      <point x="101" y="520" type="line"/>
      <point x="101" y="603" type="line"/>
    </contour>
  </outline>
</glyph>
<glyph name="dieresiscomb" format="2">
  <advance width="264"/>
  <unicode hex="0308"/>
  <anchor x="132" y="390" name="_top"/>
  <outline>
    <contour>
      <point x="60" y="597" type="line"/>
      <point x="60" y="514" type="line"/>
      <point x="100" y="514" type="line"/>
      <point x="100" y="597" type="line"/>
    </contour>
    <contour>
      <point x="164" y="597" type="line"/>
      <point x="164" y="514" type="line"/>
      <point x="204" y="514" type="line"/>
      <point x="204" y="597" type="line"/>
    </contour>
  </outline>
</glyph>
<glyph name="ringcomb" format="2">
	<advance width="267"/>
	<unicode hex="030A"/>
	<anchor x="134" y="391" name="_top"/>
	<outline>
		<contour>
			<point x="130" y="482" type="curve" smooth="yes"/>
			<point x="173" y="482"/>
			<point x="206" y="517"/>
			<point x="206" y="564" type="curve" smooth="yes"/>
			<point x="206" y="611"/>
			<point x="179" y="643"/>
			<point x="138" y="643" type="curve" smooth="yes"/>
			<point x="93" y="643"/>
			<point x="61" y="609"/>
			<point x="61" y="562" type="curve" smooth="yes"/>
			<point x="61" y="515"/>
			<point x="90" y="482"/>
		</contour>
		<contour>
			<point x="133" y="499" type="curve" smooth="yes"/>
			<point x="106" y="499"/>
			<point x="88" y="526"/>
			<point x="88" y="566" type="curve" smooth="yes"/>
			<point x="88" y="601"/>
			<point x="107" y="624"/>
			<point x="135" y="624" type="curve" smooth="yes"/>
			<point x="162" y="624"/>
			<point x="180" y="598"/>
			<point x="180" y="560" type="curve" smooth="yes"/>
			<point x="180" y="523"/>
			<point x="161" y="499"/>
		</contour>
	</outline>
</glyph>
<glyph name="hungarumlautcomb" format="2">
	<advance width="387"/>
	<unicode hex="030B"/>
	<anchor x="159" y="390" name="_top"/>
	<outline>
		<contour>
			<point x="327" y="532" type="line"/>
			<point x="307" y="578" type="line"/>
			<point x="180" y="506" type="line"/>
			<point x="183" y="493" type="line"/>
		</contour>
		<contour>
			<point x="201" y="563" type="line"/>
			<point x="170" y="602" type="line"/>
			<point x="60" y="502" type="line"/>
			<point x="66" y="491" type="line"/>
		</contour>
	</outline>
</glyph>
<glyph name="cedillacomb" format="2">
  <advance width="266"/>
  <unicode hex="0327"/>
  <anchor x="145" y="0" name="_bottom"/>
  <outline>
    <contour>
      <point x="133" y="0" type="line"/>
      <point x="96" y="-86" type="line"/>
      <point x="115" y="-93" type="line"/>
      <point x="121" y="-88"/>
      <point x="128" y="-86"/>
      <point x="136" y="-86" type="curve" smooth="yes"/>
      <point x="156" y="-86"/>
      <point x="177" y="-98"/>
      <point x="177" y="-135" type="curve" smooth="yes"/>
      <point x="177" y="-164"/>
      <point x="156" y="-183"/>
      <point x="129" y="-183" type="curve" smooth="yes"/>
      <point x="106" y="-183"/>
      <point x="84" y="-171"/>
      <point x="66" y="-156" type="curve"/>
      <point x="58" y="-171" type="line"/>
      <point x="81" y="-194"/>
      <point x="108" y="-205"/>
      <point x="132" y="-205" type="curve" smooth="yes"/>
      <point x="173" y="-205"/>
      <point x="206" y="-172"/>
      <point x="206" y="-128" type="curve" smooth="yes"/>
      <point x="206" y="-89"/>
      <point x="174" y="-68"/>
      <point x="145" y="-68" type="curve" smooth="yes"/>
      <point x="135" y="-68"/>
      <point x="125" y="-72"/>
      <point x="117" y="-77" type="curve"/>
      <point x="121" y="-85" type="line"/>
      <point x="158" y="0" type="line"/>
    </contour>
  </outline>
</glyph>
<glyph name="ogonekcomb" format="2">
	<advance width="301"/>
	<unicode hex="0328"/>
	<anchor x="140" y="0" name="_ogonek"/>
	<outline>
		<contour>
			<point x="213" y="-109" type="curve"/>
			<point x="197" y="-104" type="line"/>
			<point x="181" y="-151"/>
			<point x="153" y="-177"/>
			<point x="115" y="-177" type="curve" smooth="yes"/>
			<point x="54" y="-177"/>
			<point x="57" y="-86"/>
			<point x="165" y="7" type="curve"/>
			<point x="138" y="7" type="line"/>
			<point x="64" y="-61"/>
			<point x="40" y="-100"/>
			<point x="40" y="-135" type="curve" smooth="yes"/>
			<point x="40" y="-173"/>
			<point x="70" y="-204"/>
			<point x="107" y="-204" type="curve" smooth="yes"/>
			<point x="158" y="-204"/>
			<point x="195" y="-167"/>
		</contour>
	</outline>
</glyph>
<glyph name="strokeshortcomb" format="2">
  <advance width="380"/>
  <unicode hex="0335"/>
  <outline>
    <contour>
      <point x="70" y="244" type="line"/>
      <point x="70" y="235" type="line"/>
      <point x="310" y="215" type="line"/>
      <point x="310" y="269" type="line"/>
    </contour>
  </outline>
</glyph>
<glyph name="mu" format="2">
	<advance width="469"/>
	<unicode hex="03BC"/>
	<outline>
		<contour>
			<point x="99" y="204" type="line"/>
			<point x="99" y="-232" type="line"/>
			<point x="133" y="-232" type="line"/>
			<point x="133" y="204" type="line"/>
		</contour>
		<contour>
			<point x="-12" y="345" type="line"/>
			<point x="-10" y="337" type="line"/>
			<point x="99" y="345" type="line"/>
			<point x="99" y="128" type="line" smooth="yes"/>
			<point x="99" y="34"/>
			<point x="138" y="-20"/>
			<point x="203" y="-20" type="curve" smooth="yes"/>
			<point x="245" y="-20"/>
			<point x="287" y="-3"/>
			<point x="331" y="45" type="curve"/>
			<point x="331" y="-20" type="line"/>
			<point x="475" y="47" type="line"/>
			<point x="473" y="55" type="line"/>
			<point x="365" y="47" type="line"/>
			<point x="365" y="412" type="line"/>
			<point x="220" y="345" type="line"/>
			<point x="222" y="337" type="line"/>
			<point x="331" y="345" type="line"/>
			<point x="331" y="73" type="line"/>
			<point x="287" y="22"/>
			<point x="252" y="8"/>
			<point x="216" y="8" type="curve" smooth="yes"/>
			<point x="164" y="8"/>
			<point x="133" y="54"/>
			<point x="133" y="136" type="curve" smooth="yes"/>
			<point x="133" y="412" type="line"/>
		</contour>
	</outline>
</glyph>
<glyph name="Germandbls" format="2">
  <advance width="538"/>
  <unicode hex="1E9E"/>
  <outline>
    <contour>
      <point x="465" y="594" type="line"/>
      <point x="450" y="611" type="line"/>
      <point x="22" y="600" type="line"/>
      <point x="20" y="592" type="line"/>
      <point x="130" y="555" type="line"/>
      <point x="130" y="45" type="line"/>
      <point x="20" y="8" type="line"/>
      <point x="22" y="0" type="line"/>
      <point x="165" y="0" type="line"/>
      <point x="165" y="581" type="line"/>
      <point x="454" y="584" type="line"/>
      <point x="426" y="596" type="line"/>
      <point x="270" y="311" type="line"/>
      <point x="298" y="299" type="line"/>
      <point x="400" y="348"/>
      <point x="480" y="289"/>
      <point x="479" y="166" type="curve" smooth="yes"/>
      <point x="478" y="60"/>
      <point x="427" y="10"/>
      <point x="364" y="10" type="curve" smooth="yes"/>
      <point x="332" y="10"/>
      <point x="299" y="19"/>
      <point x="294" y="29" type="curve"/>
      <point x="288" y="185" type="line"/>
      <point x="280" y="187" type="line"/>
      <point x="228" y="11" type="line"/>
      <point x="269" y="-11"/>
      <point x="305" y="-20"/>
      <point x="349" y="-20" type="curve" smooth="yes"/>
      <point x="452" y="-20"/>
      <point x="515" y="55"/>
      <point x="515" y="180" type="curve" smooth="yes"/>
      <point x="515" y="314"/>
      <point x="424" y="380"/>
      <point x="312" y="327" type="curve"/>
      <point x="309" y="315" type="line"/>
    </contour>
  </outline>
</glyph>
<glyph name="endash" format="2">
  <advance width="413"/>
  <unicode hex="2013"/>
  <outline>
    <contour>
      <point x="49" y="256" type="line"/>
      <point x="49" y="226" type="line"/>
      <point x="363" y="226" type="line"/>
      <point x="363" y="256" type="line"/>
    </contour>
  </outline>
</glyph>
<glyph name="emdash" format="2">
	<advance width="622"/>
	<unicode hex="2014"/>
	<outline>
		<contour>
			<point x="49" y="256" type="line"/>
			<point x="49" y="226" type="line"/>
			<point x="572" y="226" type="line"/>
			<point x="572" y="256" type="line"/>
		</contour>
	</outline>
</glyph>
<glyph name="dagger" format="2">
	<advance width="352"/>
	<unicode hex="2020"/>
	<outline>
		<contour>
			<point x="211" y="390" type="line"/>
			<point x="186" y="-240" type="line"/>
			<point x="166" y="-240" type="line"/>
			<point x="141" y="390" type="line"/>
			<point x="171" y="530" type="line"/>
			<point x="149" y="644" type="line"/>
			<point x="60" y="682" type="line"/>
			<point x="62" y="690" type="line"/>
			<point x="290" y="690" type="line"/>
			<point x="292" y="682" type="line"/>
			<point x="202" y="644" type="line"/>
			<point x="181" y="530" type="line"/>
		</contour>
		<contour>
			<point x="76" y="550" type="line"/>
			<point x="176" y="538" type="line"/>
			<point x="275" y="549" type="line"/>
			<point x="275" y="515" type="line"/>
			<point x="176" y="527" type="line"/>
			<point x="76" y="515" type="line"/>
		</contour>
	</outline>
</glyph>
<glyph name="daggerdbl" format="2">
  <advance width="352"/>
  <unicode hex="2021"/>
  <outline>
    <contour>
      <point x="211" y="60" type="line"/>
      <point x="181" y="-80" type="line"/>
      <point x="202" y="-195" type="line"/>
      <point x="292" y="-232" type="line"/>
      <point x="290" y="-240" type="line"/>
      <point x="62" y="-240" type="line"/>
      <point x="60" y="-232" type="line"/>
      <point x="149" y="-195" type="line"/>
      <point x="171" y="-80" type="line"/>
      <point x="141" y="60" type="line"/>
      <point x="170" y="225" type="line"/>
      <point x="141" y="390" type="line"/>
      <point x="171" y="530" type="line"/>
      <point x="149" y="646" type="line"/>
      <point x="60" y="682" type="line"/>
      <point x="62" y="690" type="line"/>
      <point x="290" y="690" type="line"/>
      <point x="292" y="682" type="line"/>
      <point x="202" y="646" type="line"/>
      <point x="181" y="530" type="line"/>
      <point x="211" y="390" type="line"/>
      <point x="182" y="225" type="line"/>
    </contour>
    <contour>
      <point x="76" y="-101" type="line"/>
      <point x="76" y="-66" type="line"/>
      <point x="176" y="-78" type="line"/>
      <point x="275" y="-68" type="line"/>
      <point x="275" y="-102" type="line"/>
      <point x="176" y="-89" type="line"/>
    </contour>
    <contour>
      <point x="76" y="548" type="line"/>
      <point x="176" y="536" type="line"/>
      <point x="275" y="547" type="line"/>
      <point x="275" y="513" type="line"/>
      <point x="176" y="525" type="line"/>
      <point x="76" y="513" type="line"/>
    </contour>
  </outline>
</glyph>
<glyph name="bullet" format="2">
	<advance width="312"/>
	<unicode hex="2022"/>
	<outline>
		<contour>
			<point x="156" y="109" type="curve" smooth="yes"/>
			<point x="197" y="109"/>
			<point x="222" y="145"/>
			<point x="222" y="200" type="curve" smooth="yes"/>
			<point x="222" y="255"/>
			<point x="197" y="291"/>
			<point x="156" y="291" type="curve" smooth="yes"/>
			<point x="115" y="291"/>
			<point x="90" y="255"/>
			<point x="90" y="200" type="curve" smooth="yes"/>
			<point x="90" y="145"/>
			<point x="115" y="109"/>
		</contour>
	</outline>
</glyph>
<glyph name="perthousand" format="2">
	<advance width="773"/>
	<unicode hex="2030"/>
	<outline>
		<contour>
			<point x="410" y="-4" type="curve" smooth="yes"/>
			<point x="477" y="-4"/>
			<point x="513" y="47"/>
			<point x="513" y="131" type="curve" smooth="yes"/>
			<point x="513" y="212"/>
			<point x="475" y="263"/>
			<point x="410" y="263" type="curve" smooth="yes"/>
			<point x="345" y="263"/>
			<point x="306" y="212"/>
			<point x="306" y="131" type="curve" smooth="yes"/>
			<point x="306" y="47"/>
			<point x="345" y="-4"/>
		</contour>
		<contour>
			<point x="410" y="21" type="curve" smooth="yes"/>
			<point x="364" y="21"/>
			<point x="338" y="62"/>
			<point x="338" y="131" type="curve" smooth="yes"/>
			<point x="338" y="199"/>
			<point x="365" y="238"/>
			<point x="410" y="238" type="curve" smooth="yes"/>
			<point x="455" y="238"/>
			<point x="481" y="199"/>
			<point x="481" y="131" type="curve" smooth="yes"/>
			<point x="481" y="62"/>
			<point x="456" y="21"/>
		</contour>
		<contour>
			<point x="269" y="314" type="line"/>
			<point x="284" y="312" type="line"/>
			<point x="413" y="600" type="line"/>
			<point x="356" y="600" type="line"/>
		</contour>
		<contour>
			<point x="133" y="333" type="curve" smooth="yes"/>
			<point x="200" y="333"/>
			<point x="236" y="384"/>
			<point x="236" y="468" type="curve" smooth="yes"/>
			<point x="236" y="549"/>
			<point x="198" y="600"/>
			<point x="133" y="600" type="curve" smooth="yes"/>
			<point x="68" y="600"/>
			<point x="29" y="549"/>
			<point x="29" y="468" type="curve" smooth="yes"/>
			<point x="29" y="384"/>
			<point x="68" y="333"/>
		</contour>
		<contour>
			<point x="133" y="358" type="curve" smooth="yes"/>
			<point x="87" y="358"/>
			<point x="61" y="399"/>
			<point x="61" y="468" type="curve" smooth="yes"/>
			<point x="61" y="536"/>
			<point x="88" y="575"/>
			<point x="133" y="575" type="curve" smooth="yes"/>
			<point x="178" y="575"/>
			<point x="204" y="536"/>
			<point x="204" y="468" type="curve" smooth="yes"/>
			<point x="204" y="399"/>
			<point x="179" y="358"/>
		</contour>
		<contour>
			<point x="273" y="286" type="line"/>
			<point x="258" y="288" type="line"/>
			<point x="130" y="0" type="line"/>
			<point x="187" y="0" type="line"/>
		</contour>
		<contour>
			<point x="650" y="-4" type="curve" smooth="yes"/>
			<point x="717" y="-4"/>
			<point x="753" y="47"/>
			<point x="753" y="131" type="curve" smooth="yes"/>
			<point x="753" y="212"/>
			<point x="715" y="263"/>
			<point x="650" y="263" type="curve" smooth="yes"/>
			<point x="585" y="263"/>
			<point x="546" y="212"/>
			<point x="546" y="131" type="curve" smooth="yes"/>
			<point x="546" y="47"/>
			<point x="585" y="-4"/>
		</contour>
		<contour>
			<point x="650" y="21" type="curve" smooth="yes"/>
			<point x="604" y="21"/>
			<point x="578" y="62"/>
			<point x="578" y="131" type="curve" smooth="yes"/>
			<point x="578" y="199"/>
			<point x="605" y="238"/>
			<point x="650" y="238" type="curve" smooth="yes"/>
			<point x="695" y="238"/>
			<point x="721" y="199"/>
			<point x="721" y="131" type="curve" smooth="yes"/>
			<point x="721" y="62"/>
			<point x="696" y="21"/>
		</contour>
	</outline>
</glyph>
<glyph name="guilsinglleft" format="2">
	<advance width="197"/>
	<unicode hex="2039"/>
	<outline>
		<contour>
			<point x="162" y="395" type="line"/>
			<point x="40" y="202" type="line"/>
			<point x="162" y="11" type="line"/>
			<point x="177" y="16" type="line"/>
			<point x="85" y="202" type="line"/>
			<point x="177" y="390" type="line"/>
		</contour>
	</outline>
</glyph>
<glyph name="fraction" format="2">
  <advance width="341"/>
  <unicode hex="2044"/>
  <outline>
    <contour>
      <point x="75" y="0" type="line"/>
      <point x="291" y="622" type="line"/>
      <point x="269" y="624" type="line"/>
      <point x="52" y="2" type="line"/>
    </contour>
  </outline>
</glyph>
<glyph name="zerosuperior" format="2">
  <advance width="243"/>
  <unicode hex="2070"/>
  <outline>
    <contour>
      <point x="118" y="236" type="curve" smooth="yes"/>
      <point x="189" y="236"/>
      <point x="235" y="318"/>
      <point x="235" y="440" type="curve" smooth="yes"/>
      <point x="235" y="548"/>
      <point x="196" y="620"/>
      <point x="134" y="620" type="curve" smooth="yes"/>
      <point x="60" y="620"/>
      <point x="11" y="541"/>
      <point x="11" y="423" type="curve" smooth="yes"/>
      <point x="11" y="311"/>
      <point x="53" y="236"/>
    </contour>
    <contour>
      <point x="126" y="263" type="curve" smooth="yes"/>
      <point x="77" y="263"/>
      <point x="45" y="332"/>
      <point x="45" y="439" type="curve" smooth="yes"/>
      <point x="45" y="533"/>
      <point x="78" y="595"/>
      <point x="123" y="595" type="curve" smooth="yes"/>
      <point x="172" y="595"/>
      <point x="201" y="528"/>
      <point x="201" y="425" type="curve" smooth="yes"/>
      <point x="201" y="327"/>
      <point x="172" y="263"/>
    </contour>
  </outline>
</glyph>
<glyph name="euro" format="2">
  <advance width="501"/>
  <unicode hex="20AC"/>
  <outline>
    <contour>
      <point x="45" y="277" type="line"/>
      <point x="45" y="252" type="line"/>
      <point x="291" y="252" type="line"/>
      <point x="304" y="277" type="line"/>
    </contour>
    <contour>
      <point x="45" y="355" type="line"/>
      <point x="45" y="330" type="line"/>
      <point x="319" y="330" type="line"/>
      <point x="332" y="355" type="line"/>
    </contour>
    <contour>
      <point x="305" y="589" type="curve" smooth="yes"/>
      <point x="329" y="589"/>
      <point x="356" y="584"/>
      <point x="375" y="577" type="curve"/>
      <point x="392" y="413" type="line"/>
      <point x="400" y="411" type="line"/>
      <point x="451" y="589" type="line"/>
      <point x="414" y="608"/>
      <point x="360" y="620"/>
      <point x="312" y="620" type="curve" smooth="yes"/>
      <point x="186" y="620"/>
      <point x="116" y="504"/>
      <point x="116" y="294" type="curve" smooth="yes"/>
      <point x="116" y="92"/>
      <point x="182" y="-20"/>
      <point x="300" y="-20" type="curve" smooth="yes"/>
      <point x="361" y="-20"/>
      <point x="402" y="-1"/>
      <point x="450" y="49" type="curve"/>
      <point x="438" y="66" type="line"/>
      <point x="393" y="25"/>
      <point x="355" y="8"/>
      <point x="306" y="8" type="curve" smooth="yes"/>
      <point x="209" y="8"/>
      <point x="155" y="112"/>
      <point x="155" y="300" type="curve" smooth="yes"/>
      <point x="155" y="486"/>
      <point x="209" y="589"/>
    </contour>
  </outline>
</glyph>
<glyph name="trademark" format="2">
  <advance width="597"/>
  <unicode hex="2122"/>
  <outline>
    <contour>
      <point x="80" y="613" type="line"/>
      <point x="85" y="541" type="line"/>
      <point x="90" y="543" type="line"/>
      <point x="106" y="597" type="line"/>
      <point x="145" y="599" type="line"/>
      <point x="145" y="413" type="line"/>
      <point x="107" y="394" type="line"/>
      <point x="108" y="391" type="line"/>
      <point x="200" y="391" type="line"/>
      <point x="202" y="394" type="line"/>
      <point x="164" y="413" type="line"/>
      <point x="164" y="599" type="line"/>
      <point x="203" y="597" type="line"/>
      <point x="220" y="543" type="line"/>
      <point x="225" y="541" type="line"/>
      <point x="229" y="613" type="line"/>
      <point x="154" y="609" type="line"/>
    </contour>
    <contour>
      <point x="254" y="394" type="line"/>
      <point x="255" y="391" type="line"/>
      <point x="345" y="391" type="line"/>
      <point x="346" y="394" type="line"/>
      <point x="309" y="412" type="line"/>
      <point x="330" y="594" type="line"/>
      <point x="326" y="592" type="line"/>
      <point x="376" y="391" type="line"/>
      <point x="390" y="391" type="line"/>
      <point x="448" y="606" type="line"/>
      <point x="440" y="599" type="line"/>
      <point x="459" y="412" type="line"/>
      <point x="421" y="394" type="line"/>
      <point x="421" y="391" type="line"/>
      <point x="516" y="391" type="line"/>
      <point x="517" y="394" type="line"/>
      <point x="477" y="412" type="line"/>
      <point x="457" y="592" type="line"/>
      <point x="496" y="610" type="line"/>
      <point x="495" y="613" type="line"/>
      <point x="432" y="613" type="line"/>
      <point x="379" y="404" type="line"/>
      <point x="389" y="414" type="line"/>
      <point x="340" y="613" type="line"/>
      <point x="277" y="613" type="line"/>
      <point x="276" y="610" type="line"/>
      <point x="313" y="591" type="line"/>
      <point x="293" y="412" type="line"/>
    </contour>
  </outline>
</glyph>
<glyph name="notequal" format="2">
  <advance width="463"/>
  <unicode hex="2260"/>
  <outline>
    <contour>
      <point x="143" y="112" type="line"/>
      <point x="170" y="112" type="line"/>
      <point x="343" y="448" type="line"/>
      <point x="316" y="448" type="line"/>
    </contour>
    <component base="equal" identifier="2E152E28"/>
  </outline>
</glyph>
<glyph name="lessequal" format="2">
  <advance width="463"/>
  <unicode hex="2264"/>
  <outline>
    <contour>
      <point x="390" y="141" type="line"/>
      <point x="390" y="170" type="line"/>
      <point x="95" y="300" type="line"/>
      <point x="95" y="283" type="line"/>
      <point x="390" y="411" type="line"/>
      <point x="390" y="441" type="line"/>
      <point x="75" y="302" type="line"/>
      <point x="75" y="280" type="line"/>
    </contour>
    <contour>
      <point x="69" y="85" type="line"/>
      <point x="69" y="61" type="line"/>
      <point x="394" y="61" type="line"/>
      <point x="394" y="85" type="line"/>
    </contour>
  </outline>
</glyph>
<glyph name="greaterequal" format="2">
	<advance width="463"/>
	<unicode hex="2265"/>
	<outline>
		<contour>
			<point x="73" y="141" type="line"/>
			<point x="388" y="279" type="line"/>
			<point x="388" y="301" type="line"/>
			<point x="73" y="441" type="line"/>
			<point x="73" y="411" type="line"/>
			<point x="368" y="282" type="line"/>
			<point x="368" y="299" type="line"/>
			<point x="73" y="170" type="line"/>
		</contour>
		<contour>
			<point x="69" y="85" type="line"/>
			<point x="69" y="61" type="line"/>
			<point x="394" y="61" type="line"/>
			<point x="394" y="85" type="line"/>
		</contour>
	</outline>
</glyph>
<glyph name="T_b.liga" format="2">
  <advance width="813"/>
  <outline>
    <contour>
      <point x="482" y="575" type="line"/>
      <point x="482" y="31" type="line"/>
      <point x="533" y="-5"/>
      <point x="572" y="-20"/>
      <point x="613" y="-20" type="curve" smooth="yes"/>
      <point x="710" y="-20"/>
      <point x="774" y="67"/>
      <point x="774" y="200" type="curve" smooth="yes"/>
      <point x="774" y="327"/>
      <point x="712" y="411"/>
      <point x="619" y="411" type="curve" smooth="yes"/>
      <point x="577" y="411"/>
      <point x="532" y="393"/>
      <point x="512" y="369" type="curve"/>
      <point x="512" y="661" type="line"/>
      <point x="413" y="608" type="line"/>
      <point x="241" y="600" type="line"/>
      <point x="35" y="612" type="line"/>
      <point x="74" y="421" type="line"/>
      <point x="82" y="423" type="line"/>
      <point x="102" y="575" type="line"/>
      <point x="223" y="578" type="line"/>
      <point x="223" y="45" type="line"/>
      <point x="113" y="8" type="line"/>
      <point x="115" y="0" type="line"/>
      <point x="366" y="0" type="line"/>
      <point x="368" y="8" type="line"/>
      <point x="258" y="45" type="line"/>
      <point x="258" y="578" type="line"/>
    </contour>
    <contour>
      <point x="512" y="47" type="curve"/>
      <point x="512" y="332" type="line"/>
      <point x="525" y="362"/>
      <point x="571" y="386"/>
      <point x="615" y="386" type="curve" smooth="yes"/>
      <point x="694" y="386"/>
      <point x="744" y="309"/>
      <point x="744" y="188" type="curve" smooth="yes"/>
      <point x="744" y="74"/>
      <point x="697" y="5"/>
      <point x="620" y="5" type="curve" smooth="yes"/>
      <point x="582" y="5"/>
      <point x="538" y="22"/>
    </contour>
  </outline>
</glyph>
<glyph name="T_h.liga" format="2">
	<advance width="907"/>
	<anchor x="246" y="0" name="bottom"/>
	<anchor x="240" y="300" name="center"/>
	<anchor x="236" y="600" name="top"/>
	<outline>
		<contour>
			<point x="35" y="612" type="line"/>
			<point x="74" y="421" type="line"/>
			<point x="82" y="423" type="line"/>
			<point x="102" y="575" type="line"/>
			<point x="223" y="578" type="line"/>
			<point x="223" y="45" type="line"/>
			<point x="113" y="8" type="line"/>
			<point x="115" y="0" type="line"/>
			<point x="366" y="0" type="line"/>
			<point x="368" y="8" type="line"/>
			<point x="258" y="45" type="line"/>
			<point x="258" y="578" type="line"/>
			<point x="512" y="575" type="line"/>
			<point x="512" y="47" type="line"/>
			<point x="402" y="8" type="line"/>
			<point x="404" y="0" type="line"/>
			<point x="650" y="0" type="line"/>
			<point x="652" y="8" type="line"/>
			<point x="542" y="47" type="line"/>
			<point x="542" y="661" type="line"/>
			<point x="443" y="608" type="line"/>
			<point x="241" y="600" type="line"/>
		</contour>
		<contour>
			<point x="534" y="319" type="curve"/>
			<point x="534" y="287" type="line"/>
			<point x="590" y="361"/>
			<point x="633" y="384"/>
			<point x="679" y="384" type="curve" smooth="yes"/>
			<point x="735" y="384"/>
			<point x="757" y="349"/>
			<point x="757" y="257" type="curve" smooth="yes"/>
			<point x="757" y="45" type="line"/>
			<point x="677" y="8" type="line"/>
			<point x="679" y="0" type="line"/>
			<point x="886" y="1" type="line"/>
			<point x="888" y="9" type="line"/>
			<point x="787" y="44" type="line"/>
			<point x="787" y="264" type="line" smooth="yes"/>
			<point x="787" y="378"/>
			<point x="747" y="411"/>
			<point x="689" y="411" type="curve" smooth="yes"/>
			<point x="632" y="411"/>
			<point x="583" y="382"/>
		</contour>
	</outline>
</glyph>
<glyph name="T_k.liga" format="2">
  <advance width="865"/>
  <anchor x="243" y="0" name="bottom"/>
  <anchor x="237" y="300" name="center"/>
  <anchor x="237" y="600" name="top"/>
  <outline>
    <contour>
      <point x="536" y="118" type="line"/>
      <point x="693" y="346" type="line"/>
      <point x="813" y="383" type="line"/>
      <point x="811" y="391" type="line"/>
      <point x="584" y="391" type="line"/>
      <point x="582" y="383" type="line"/>
      <point x="662" y="346" type="line"/>
      <point x="525" y="143" type="line"/>
    </contour>
    <contour>
      <point x="619" y="263" type="line"/>
      <point x="604" y="235" type="line"/>
      <point x="721" y="35" type="line"/>
      <point x="661" y="8" type="line"/>
      <point x="663" y="0" type="line"/>
      <point x="844" y="0" type="line"/>
      <point x="846" y="8" type="line"/>
      <point x="750" y="41" type="line"/>
    </contour>
    <contour>
      <point x="35" y="612" type="line"/>
      <point x="74" y="421" type="line"/>
      <point x="82" y="423" type="line"/>
      <point x="102" y="575" type="line"/>
      <point x="223" y="578" type="line"/>
      <point x="223" y="45" type="line"/>
      <point x="113" y="8" type="line"/>
      <point x="115" y="0" type="line"/>
      <point x="366" y="0" type="line"/>
      <point x="368" y="8" type="line"/>
      <point x="258" y="45" type="line"/>
      <point x="258" y="578" type="line"/>
      <point x="512" y="575" type="line"/>
      <point x="512" y="47" type="line"/>
      <point x="402" y="8" type="line"/>
      <point x="404" y="0" type="line"/>
      <point x="650" y="0" type="line"/>
      <point x="652" y="8" type="line"/>
      <point x="542" y="47" type="line"/>
      <point x="542" y="661" type="line"/>
      <point x="443" y="608" type="line"/>
      <point x="241" y="600" type="line"/>
    </contour>
  </outline>
</glyph>
<glyph name="T_l.liga" format="2">
  <advance width="653"/>
  <outline>
    <contour>
      <point x="35" y="612" type="line"/>
      <point x="74" y="421" type="line"/>
      <point x="82" y="423" type="line"/>
      <point x="102" y="575" type="line"/>
      <point x="223" y="578" type="line"/>
      <point x="223" y="45" type="line"/>
      <point x="113" y="8" type="line"/>
      <point x="115" y="0" type="line"/>
      <point x="366" y="0" type="line"/>
      <point x="368" y="8" type="line"/>
      <point x="258" y="45" type="line"/>
      <point x="258" y="578" type="line"/>
      <point x="512" y="575" type="line"/>
      <point x="512" y="47" type="line"/>
      <point x="402" y="8" type="line"/>
      <point x="404" y="0" type="line"/>
      <point x="650" y="0" type="line"/>
      <point x="652" y="8" type="line"/>
      <point x="542" y="47" type="line"/>
      <point x="542" y="661" type="line"/>
      <point x="443" y="608" type="line"/>
      <point x="241" y="600" type="line"/>
    </contour>
  </outline>
</glyph>
<glyph name=".notdef" format="2">
  <advance width="350"/>
  <outline>
    <contour>
      <point x="192" y="482" type="curve" smooth="yes"/>
      <point x="217" y="482"/>
      <point x="239" y="504"/>
      <point x="239" y="530" type="curve" smooth="yes"/>
      <point x="239" y="554"/>
      <point x="217" y="576"/>
      <point x="192" y="576" type="curve" smooth="yes"/>
      <point x="167" y="576"/>
      <point x="145" y="554"/>
      <point x="145" y="530" type="curve" smooth="yes"/>
      <point x="145" y="504"/>
      <point x="167" y="482"/>
    </contour>
    <contour>
      <point x="192" y="504" type="curve" smooth="yes"/>
      <point x="178" y="504"/>
      <point x="167" y="516"/>
      <point x="167" y="530" type="curve" smooth="yes"/>
      <point x="167" y="543"/>
      <point x="178" y="554"/>
      <point x="192" y="554" type="curve" smooth="yes"/>
      <point x="205" y="554"/>
      <point x="217" y="543"/>
      <point x="217" y="530" type="curve" smooth="yes"/>
      <point x="217" y="516"/>
      <point x="205" y="504"/>
    </contour>
    <contour>
      <point x="194" y="42" type="curve"/>
      <point x="180" y="-4"/>
      <point x="141" y="-71"/>
      <point x="117" y="-70" type="curve"/>
      <point x="135" y="58"/>
      <point x="107" y="117"/>
      <point x="172" y="176" type="curve"/>
      <point x="145" y="284"/>
      <point x="127" y="361"/>
      <point x="127" y="432" type="curve" smooth="yes"/>
      <point x="127" y="545"/>
      <point x="164" y="671"/>
      <point x="194" y="671" type="curve" smooth="yes"/>
      <point x="224" y="671"/>
      <point x="261" y="545"/>
      <point x="261" y="432" type="curve" smooth="yes"/>
      <point x="261" y="361"/>
      <point x="239" y="284"/>
      <point x="211" y="176" type="curve"/>
      <point x="277" y="117"/>
      <point x="253" y="58"/>
      <point x="271" y="-70" type="curve"/>
      <point x="247" y="-71"/>
      <point x="208" y="-4"/>
    </contour>
  </outline>
</glyph>
<glyph name="brevecomb.case" format="2">
	<advance width="324"/>
	<anchor x="162" y="600" name="_top"/>
	<outline>
		<contour>
			<point x="264" y="762" type="curve"/>
			<point x="229" y="762" type="line"/>
			<point x="229" y="731"/>
			<point x="209" y="701"/>
			<point x="162" y="701" type="curve" smooth="yes"/>
			<point x="116" y="701"/>
			<point x="101" y="731"/>
			<point x="95" y="762" type="curve"/>
			<point x="60" y="762" type="line"/>
			<point x="67" y="706"/>
			<point x="102" y="666"/>
			<point x="162" y="666" type="curve" smooth="yes"/>
			<point x="229" y="666"/>
			<point x="264" y="706"/>
		</contour>
	</outline>
</glyph>
<glyph name="caroncomb.alt" format="2">
	<advance width="164"/>
	<anchor x="50" y="679" name="_topright"/>
	<outline>
		<contour>
			<point x="98" y="689" type="line"/>
			<point x="50" y="700" type="line"/>
			<point x="50" y="513" type="line"/>
			<point x="62" y="510" type="line"/>
		</contour>
	</outline>
</glyph>
<glyph name="circumflexcomb.case" format="2">
  <advance width="351"/>
  <anchor x="172" y="600" name="_top"/>
  <outline>
    <contour>
      <point x="176" y="774" type="line"/>
      <point x="60" y="690" type="line"/>
      <point x="72" y="672" type="line"/>
      <point x="176" y="719" type="line"/>
      <point x="279" y="672" type="line"/>
      <point x="291" y="690" type="line"/>
    </contour>
  </outline>
</glyph>
<glyph name="dieresiscomb.case" format="2">
  <advance width="300"/>
  <anchor x="150" y="600" name="_top"/>
  <outline>
    <contour>
      <point x="60" y="760" type="line"/>
      <point x="60" y="680" type="line"/>
      <point x="110" y="680" type="line"/>
      <point x="110" y="760" type="line"/>
    </contour>
    <contour>
      <point x="190" y="760" type="line"/>
      <point x="190" y="680" type="line"/>
      <point x="240" y="680" type="line"/>
      <point x="240" y="760" type="line"/>
    </contour>
  </outline>
</glyph>
<glyph name="dotaccentcomb.case" format="2">
  <advance width="170"/>
  <anchor x="86" y="600" name="_top"/>
  <outline>
    <contour>
      <point x="60" y="760" type="line"/>
      <point x="60" y="680" type="line"/>
      <point x="110" y="680" type="line"/>
      <point x="110" y="760" type="line"/>
    </contour>
  </outline>
</glyph>
<glyph name="f_b.liga" format="2">
	<advance width="758"/>
	<outline>
		<contour>
			<point x="422" y="629" type="curve"/>
			<point x="422" y="32" type="line"/>
			<point x="471" y="-4"/>
			<point x="512" y="-20"/>
			<point x="555" y="-20" type="curve" smooth="yes"/>
			<point x="653" y="-20"/>
			<point x="719" y="69"/>
			<point x="719" y="202" type="curve" smooth="yes"/>
			<point x="719" y="328"/>
			<point x="657" y="412"/>
			<point x="564" y="412" type="curve" smooth="yes"/>
			<point x="523" y="412"/>
			<point x="477" y="394"/>
			<point x="456" y="368" type="curve"/>
			<point x="456" y="702" type="line"/>
			<point x="401" y="668" type="line"/>
			<point x="347" y="688"/>
			<point x="284" y="702"/>
			<point x="236" y="702" type="curve" smooth="yes"/>
			<point x="136" y="702"/>
			<point x="101" y="644"/>
			<point x="101" y="480" type="curve" smooth="yes"/>
			<point x="101" y="407" type="line"/>
			<point x="-9" y="375" type="line"/>
			<point x="-7" y="367" type="line"/>
			<point x="101" y="367" type="line"/>
			<point x="101" y="47" type="line"/>
			<point x="-10" y="8" type="line"/>
			<point x="-8" y="0" type="line"/>
			<point x="271" y="0" type="line"/>
			<point x="273" y="8" type="line"/>
			<point x="136" y="47" type="line"/>
			<point x="136" y="367" type="line"/>
			<point x="233" y="366" type="line"/>
			<point x="246" y="274" type="line"/>
			<point x="254" y="272" type="line"/>
			<point x="284" y="391" type="line"/>
			<point x="136" y="392" type="line"/>
			<point x="136" y="504" type="line" smooth="yes"/>
			<point x="136" y="638"/>
			<point x="156" y="675"/>
			<point x="230" y="676" type="curve" smooth="yes"/>
			<point x="287" y="677"/>
			<point x="355" y="659"/>
		</contour>
		<contour>
			<point x="456" y="48" type="curve"/>
			<point x="456" y="330" type="line"/>
			<point x="471" y="362"/>
			<point x="516" y="385"/>
			<point x="558" y="385" type="curve" smooth="yes"/>
			<point x="635" y="385"/>
			<point x="685" y="308"/>
			<point x="685" y="188" type="curve" smooth="yes"/>
			<point x="685" y="75"/>
			<point x="638" y="7"/>
			<point x="562" y="7" type="curve" smooth="yes"/>
			<point x="525" y="7"/>
			<point x="482" y="23"/>
		</contour>
	</outline>
</glyph>
<glyph name="f_f" format="2">
	<advance width="638"/>
	<outline>
		<contour>
			<point x="404" y="480" type="curve" smooth="yes"/>
			<point x="404" y="391" type="line"/>
			<point x="136" y="392" type="line"/>
			<point x="136" y="504" type="line" smooth="yes"/>
			<point x="136" y="607"/>
			<point x="165" y="645"/>
			<point x="240" y="646" type="curve" smooth="yes"/>
			<point x="291" y="647"/>
			<point x="343" y="628"/>
			<point x="410" y="587" type="curve"/>
			<point x="406" y="560"/>
			<point x="404" y="525"/>
		</contour>
		<contour>
			<point x="508" y="676" type="curve" smooth="yes"/>
			<point x="545" y="677"/>
			<point x="570" y="670"/>
			<point x="591" y="662" type="curve"/>
			<point x="607" y="569" type="line"/>
			<point x="615" y="567" type="line"/>
			<point x="649" y="675" type="line"/>
			<point x="623" y="688"/>
			<point x="558" y="702"/>
			<point x="519" y="702" type="curve" smooth="yes"/>
			<point x="466" y="702"/>
			<point x="433" y="681"/>
			<point x="417" y="621" type="curve"/>
			<point x="348" y="656"/>
			<point x="296" y="672"/>
			<point x="246" y="672" type="curve" smooth="yes"/>
			<point x="146" y="672"/>
			<point x="101" y="614"/>
			<point x="101" y="480" type="curve" smooth="yes"/>
			<point x="101" y="407" type="line"/>
			<point x="-9" y="375" type="line"/>
			<point x="-7" y="367" type="line"/>
			<point x="101" y="367" type="line"/>
			<point x="101" y="47" type="line"/>
			<point x="-10" y="8" type="line"/>
			<point x="-8" y="0" type="line"/>
			<point x="261" y="0" type="line"/>
			<point x="263" y="8" type="line"/>
			<point x="136" y="47" type="line"/>
			<point x="136" y="367" type="line"/>
			<point x="404" y="366" type="line"/>
			<point x="404" y="47" type="line"/>
			<point x="294" y="8" type="line"/>
			<point x="296" y="0" type="line"/>
			<point x="578" y="0" type="line"/>
			<point x="580" y="8" type="line"/>
			<point x="438" y="47" type="line"/>
			<point x="438" y="367" type="line"/>
			<point x="536" y="366" type="line"/>
			<point x="548" y="274" type="line"/>
			<point x="556" y="272" type="line"/>
			<point x="587" y="391" type="line"/>
			<point x="438" y="392" type="line"/>
			<point x="438" y="504" type="line" smooth="yes"/>
			<point x="438" y="630"/>
			<point x="456" y="674"/>
		</contour>
	</outline>
</glyph>
<glyph name="f_f_b.liga" format="2">
	<advance width="1059"/>
	<outline>
		<contour>
			<point x="723" y="629" type="curve"/>
			<point x="723" y="32" type="line"/>
			<point x="772" y="-4"/>
			<point x="813" y="-20"/>
			<point x="856" y="-20" type="curve" smooth="yes"/>
			<point x="954" y="-20"/>
			<point x="1020" y="69"/>
			<point x="1020" y="202" type="curve" smooth="yes"/>
			<point x="1020" y="328"/>
			<point x="958" y="412"/>
			<point x="865" y="412" type="curve" smooth="yes"/>
			<point x="824" y="412"/>
			<point x="778" y="394"/>
			<point x="757" y="368" type="curve"/>
			<point x="757" y="702" type="line"/>
			<point x="702" y="668" type="line"/>
			<point x="643" y="690"/>
			<point x="581" y="702"/>
			<point x="537" y="702" type="curve" smooth="yes"/>
			<point x="474" y="702"/>
			<point x="436" y="679"/>
			<point x="418" y="620" type="curve"/>
			<point x="343" y="659"/>
			<point x="291" y="672"/>
			<point x="246" y="672" type="curve" smooth="yes"/>
			<point x="146" y="672"/>
			<point x="101" y="614"/>
			<point x="101" y="480" type="curve" smooth="yes"/>
			<point x="101" y="407" type="line"/>
			<point x="-9" y="375" type="line"/>
			<point x="-7" y="367" type="line"/>
			<point x="101" y="367" type="line"/>
			<point x="101" y="47" type="line"/>
			<point x="-10" y="8" type="line"/>
			<point x="-8" y="0" type="line"/>
			<point x="261" y="0" type="line"/>
			<point x="263" y="8" type="line"/>
			<point x="136" y="47" type="line"/>
			<point x="136" y="367" type="line"/>
			<point x="402" y="366" type="line"/>
			<point x="402" y="47" type="line"/>
			<point x="292" y="8" type="line"/>
			<point x="294" y="0" type="line"/>
			<point x="572" y="0" type="line"/>
			<point x="574" y="8" type="line"/>
			<point x="437" y="47" type="line"/>
			<point x="437" y="367" type="line"/>
			<point x="560" y="366" type="line"/>
			<point x="573" y="274" type="line"/>
			<point x="581" y="272" type="line"/>
			<point x="611" y="391" type="line"/>
			<point x="437" y="392" type="line"/>
			<point x="437" y="504" type="line" smooth="yes"/>
			<point x="437" y="638"/>
			<point x="457" y="675"/>
			<point x="531" y="676" type="curve" smooth="yes"/>
			<point x="583" y="677"/>
			<point x="649" y="662"/>
		</contour>
		<contour>
			<point x="136" y="392" type="line"/>
			<point x="136" y="504" type="line" smooth="yes"/>
			<point x="136" y="607"/>
			<point x="165" y="645"/>
			<point x="240" y="646" type="curve" smooth="yes"/>
			<point x="291" y="647"/>
			<point x="341" y="629"/>
			<point x="410" y="589" type="curve"/>
			<point x="404" y="559"/>
			<point x="402" y="519"/>
			<point x="402" y="480" type="curve" smooth="yes"/>
			<point x="402" y="391" type="line"/>
		</contour>
		<contour>
			<point x="757" y="48" type="curve"/>
			<point x="757" y="330" type="line"/>
			<point x="772" y="362"/>
			<point x="817" y="385"/>
			<point x="859" y="385" type="curve" smooth="yes"/>
			<point x="936" y="385"/>
			<point x="986" y="308"/>
			<point x="986" y="188" type="curve" smooth="yes"/>
			<point x="986" y="75"/>
			<point x="939" y="7"/>
			<point x="863" y="7" type="curve" smooth="yes"/>
			<point x="826" y="7"/>
			<point x="783" y="23"/>
		</contour>
	</outline>
</glyph>
<glyph name="f_f_k.liga" format="2">
  <advance width="1081"/>
  <outline>
    <contour>
      <point x="723" y="629" type="curve"/>
      <point x="723" y="47" type="line"/>
      <point x="622" y="8" type="line"/>
      <point x="624" y="0" type="line"/>
      <point x="862" y="0" type="line"/>
      <point x="864" y="8" type="line"/>
      <point x="757" y="47" type="line"/>
      <point x="757" y="702" type="line"/>
      <point x="702" y="668" type="line"/>
      <point x="643" y="690"/>
      <point x="581" y="702"/>
      <point x="537" y="702" type="curve" smooth="yes"/>
      <point x="474" y="702"/>
      <point x="436" y="679"/>
      <point x="418" y="620" type="curve"/>
      <point x="343" y="659"/>
      <point x="291" y="672"/>
      <point x="246" y="672" type="curve" smooth="yes"/>
      <point x="146" y="672"/>
      <point x="101" y="614"/>
      <point x="101" y="480" type="curve" smooth="yes"/>
      <point x="101" y="407" type="line"/>
      <point x="-9" y="375" type="line"/>
      <point x="-7" y="367" type="line"/>
      <point x="101" y="367" type="line"/>
      <point x="101" y="47" type="line"/>
      <point x="-10" y="8" type="line"/>
      <point x="-8" y="0" type="line"/>
      <point x="261" y="0" type="line"/>
      <point x="263" y="8" type="line"/>
      <point x="136" y="47" type="line"/>
      <point x="136" y="367" type="line"/>
      <point x="402" y="366" type="line"/>
      <point x="402" y="47" type="line"/>
      <point x="292" y="8" type="line"/>
      <point x="294" y="0" type="line"/>
      <point x="572" y="0" type="line"/>
      <point x="574" y="8" type="line"/>
      <point x="437" y="47" type="line"/>
      <point x="437" y="367" type="line"/>
      <point x="560" y="366" type="line"/>
      <point x="573" y="274" type="line"/>
      <point x="581" y="272" type="line"/>
      <point x="611" y="391" type="line"/>
      <point x="437" y="392" type="line"/>
      <point x="437" y="504" type="line" smooth="yes"/>
      <point x="437" y="638"/>
      <point x="457" y="675"/>
      <point x="531" y="676" type="curve" smooth="yes"/>
      <point x="583" y="677"/>
      <point x="649" y="662"/>
    </contour>
    <contour>
      <point x="402" y="480" type="curve" smooth="yes"/>
      <point x="402" y="391" type="line"/>
      <point x="136" y="392" type="line"/>
      <point x="136" y="504" type="line" smooth="yes"/>
      <point x="136" y="607"/>
      <point x="165" y="645"/>
      <point x="240" y="646" type="curve" smooth="yes"/>
      <point x="291" y="647"/>
      <point x="341" y="629"/>
      <point x="410" y="589" type="curve"/>
      <point x="404" y="559"/>
      <point x="402" y="519"/>
    </contour>
    <contour>
      <point x="750" y="118" type="line"/>
      <point x="910" y="347" type="line"/>
      <point x="1028" y="384" type="line"/>
      <point x="1026" y="392" type="line"/>
      <point x="799" y="392" type="line"/>
      <point x="797" y="384" type="line"/>
      <point x="877" y="347" type="line"/>
      <point x="738" y="143" type="line"/>
    </contour>
    <contour>
      <point x="832" y="263" type="line"/>
      <point x="815" y="233" type="line"/>
      <point x="934" y="35" type="line"/>
      <point x="873" y="8" type="line"/>
      <point x="875" y="0" type="line"/>
      <point x="1060" y="0" type="line"/>
      <point x="1062" y="8" type="line"/>
      <point x="967" y="41" type="line"/>
    </contour>
  </outline>
</glyph>
<glyph name="f_f_l.liga" format="2">
	<advance width="865"/>
	<outline>
		<contour>
			<point x="402" y="480" type="curve" smooth="yes"/>
			<point x="402" y="391" type="line"/>
			<point x="136" y="392" type="line"/>
			<point x="136" y="504" type="line" smooth="yes"/>
			<point x="136" y="607"/>
			<point x="165" y="645"/>
			<point x="240" y="646" type="curve" smooth="yes"/>
			<point x="291" y="647"/>
			<point x="341" y="629"/>
			<point x="410" y="589" type="curve"/>
			<point x="404" y="559"/>
			<point x="402" y="519"/>
		</contour>
		<contour>
			<point x="723" y="624" type="curve"/>
			<point x="723" y="47" type="line"/>
			<point x="622" y="8" type="line"/>
			<point x="624" y="0" type="line"/>
			<point x="862" y="0" type="line"/>
			<point x="864" y="8" type="line"/>
			<point x="757" y="47" type="line"/>
			<point x="757" y="702" type="line"/>
			<point x="702" y="668" type="line"/>
			<point x="643" y="690"/>
			<point x="581" y="702"/>
			<point x="537" y="702" type="curve" smooth="yes"/>
			<point x="474" y="702"/>
			<point x="436" y="679"/>
			<point x="418" y="620" type="curve"/>
			<point x="343" y="659"/>
			<point x="291" y="672"/>
			<point x="246" y="672" type="curve" smooth="yes"/>
			<point x="146" y="672"/>
			<point x="101" y="614"/>
			<point x="101" y="480" type="curve" smooth="yes"/>
			<point x="101" y="407" type="line"/>
			<point x="-9" y="375" type="line"/>
			<point x="-7" y="367" type="line"/>
			<point x="101" y="367" type="line"/>
			<point x="101" y="47" type="line"/>
			<point x="-10" y="8" type="line"/>
			<point x="-8" y="0" type="line"/>
			<point x="261" y="0" type="line"/>
			<point x="263" y="8" type="line"/>
			<point x="136" y="47" type="line"/>
			<point x="136" y="367" type="line"/>
			<point x="402" y="366" type="line"/>
			<point x="402" y="47" type="line"/>
			<point x="292" y="8" type="line"/>
			<point x="294" y="0" type="line"/>
			<point x="572" y="0" type="line"/>
			<point x="574" y="8" type="line"/>
			<point x="437" y="47" type="line"/>
			<point x="437" y="367" type="line"/>
			<point x="560" y="366" type="line"/>
			<point x="573" y="274" type="line"/>
			<point x="581" y="272" type="line"/>
			<point x="611" y="391" type="line"/>
			<point x="437" y="392" type="line"/>
			<point x="437" y="504" type="line" smooth="yes"/>
			<point x="437" y="638"/>
			<point x="457" y="675"/>
			<point x="531" y="676" type="curve" smooth="yes"/>
			<point x="584" y="677"/>
			<point x="651" y="661"/>
		</contour>
	</outline>
</glyph>
